<?xml version="1.0" standalone="no"?><!DOCTYPE svg PUBLIC "-//W3C//DTD SVG 1.1//EN" "http://www.w3.org/Graphics/SVG/1.1/DTD/svg11.dtd" ><svg xmlns="http://www.w3.org/2000/svg"><metadata></metadata><defs><font id="Founder:FZBITMAPFENGJW	Regular" horiz-adv-x="1000"><font-face font-family="FZBITMAPFENGJW" font-weight="400" font-stretch="normal" units-per-em="1000" panose-1="2 1 6 0 1 1 1 1 1 1" ascent="884" descent="-232" x-height="1" bbox="0 -232 1000 884" underline-thickness="50" underline-position="-90" unicode-range="U+0000-ffe5" /><missing-glyph horiz-adv-x="1000"  /><glyph glyph-name="" unicode="¡¢£¥¦©ª«¬­®¯²³´µ¶·¸¹º»¼½¾¿àáâãäåæçèéêëìíîïðñòóôõöøùúûüýþßâãäåæçëîïðñôõöøûýþÿ" d="" /><glyph glyph-name="" unicode=" " d="" /><glyph glyph-name="" unicode="!" d="M104 135 l78 0 l0 -104 l-78 0 l0 104 ZM104 687 l78 0 l0 -472 l-78 0 l0 472 Z" /><glyph glyph-name="" unicode="&quot;" d="M304 389 l-29 0 q-5 24 -13 90 q-25 139 -25 163 q5 43 53 48 q47 -5 53 -48 q0 -24 -23 -163 q-11 -66 -16 -90 ZM94 389 l-24 0 q-33 172 -39 253 q6 43 53 48 q44 -5 48 -48 q-4 -81 -38 -253 Z" /><glyph glyph-name="" unicode="#" d="M103 212 l-78 0 l0 106 l78 0 l0 266 l106 0 l0 107 l188 0 l0 -187 l78 0 l0 -104 l-78 0 l0 -82 l78 0 l0 -106 l-78 0 l0 -184 l-107 0 l0 184 l-81 0 l0 -184 l-106 0 l0 184 ZM211 398 l0 -80 l78 0 l0 80 l-78 0 ZM211 584 l0 -78 l78 0 l0 78 l-78 0 Z" /><glyph glyph-name="" unicode="$" d="M111 133 l105 0 l0 267 l-105 0 l0 104 l105 0 l0 80 l-106 0 l0 -78 l-79 0 l0 78 l79 0 l0 107 l292 0 l0 -107 l-105 0 l0 -184 l105 0 l0 -82 l-105 0 l0 -184 l107 0 l0 184 l78 0 l0 -290 l-371 0 l0 105 ZM31 212 l79 0 l0 -78 l-79 0 l0 78 ZM404 584 l78 0 l0 -78 l-78 0 l0 78 Z" /><glyph glyph-name="" unicode="%" d="M214 134 l79 0 l0 186 l106 0 l0 80 l-106 0 l0 -80 l-185 0 l0 81 l185 0 l0 184 l107 0 l0 -78 l79 0 l0 184 l106 0 l0 -185 l-106 0 l0 -186 l-79 0 l0 -186 l-107 0 l0 -106 l-79 0 l0 106 ZM587 134 l78 0 l0 80 l-80 0 l0 -79 l-106 0 l0 183 l292 0 l0 -290 l-184 0 l0 106 ZM28 585 l78 0 l0 106 l186 0 l0 -106 l-186 0 l0 -184 l-78 0 l0 184 Z" /><glyph glyph-name="" unicode="&amp;" d="M162 133 l265 0 l0 79 l107 0 l0 106 l78 0 l0 -106 l-78 0 l0 -79 l-107 0 l0 -105 l-265 0 l0 105 ZM534 133 l78 0 l0 -105 l-78 0 l0 105 ZM55 318 l105 0 l0 82 l80 0 l0 106 l187 0 l0 78 l105 0 l0 -78 l-105 0 l0 -292 l-81 0 l0 104 l-186 0 l0 -184 l-105 0 l0 184 ZM162 585 l78 0 l0 106 l186 0 l0 -106 l-186 0 l0 -79 l-78 0 l0 79 Z" /><glyph glyph-name="" unicode="&#39;" d="M99 395 l-30 0 q-4 24 -15 90 q-23 139 -23 163 q5 43 53 48 q48 -5 53 -48 q0 -24 -25 -163 q-10 -66 -13 -90 Z" /><glyph glyph-name="" unicode="(" d="M163 -34 l80 0 l0 -106 l-80 0 l0 106 ZM58 601 l105 0 l0 106 l80 0 l0 -106 l-80 0 l0 -635 l-105 0 l0 635 Z" /><glyph glyph-name="" unicode=")" d="M25 -21 l79 0 l0 185 l107 0 l0 267 l78 0 l0 -267 l-78 0 l0 -185 l-107 0 l0 -105 l-79 0 l0 105 ZM105 615 l104 0 l0 -184 l-104 0 l0 184 ZM25 722 l79 0 l0 -105 l-79 0 l0 105 Z" /><glyph glyph-name="" unicode="*" d="M241 477 l-14 5 q-34 19 -100 38 q-92 14 -87 62 q5 38 39 38 q28 0 61 -38 q48 -57 110 -90 l0 18 q0 52 -18 110 q-14 34 -14 58 q0 47 47 47 q33 0 38 -47 q0 -15 -10 -53 q-18 -67 -18 -100 l0 -33 l5 5 q42 23 95 81 q43 47 63 47 q42 -5 42 -43 q0 -43 -62 -57 q-77 -15 -133 -53 l8 -5 q44 -28 120 -42 q77 -11 72 -53 q0 -38 -47 -43 q-30 0 -72 52 q-48 58 -86 72 l-5 5 l0 -10 q0 -76 23 -139 q10 -23 10 -33 q-5 -48 -48 -52 q-42 0 -42 48 q0 14 14 57 q23 76 18 119 l-4 10 q-72 -44 -91 -77 q-43 -62 -76 -52 q-34 0 -39 38 q0 42 77 62 q76 15 124 48 Z" /><glyph glyph-name="" unicode="+" d="M217 205 l-186 0 l0 107 l186 0 l0 80 l80 0 l0 -80 l186 0 l0 -107 l-186 0 l0 -79 l-80 0 l0 79 Z" /><glyph glyph-name="" unicode="," d="M57 130 l78 0 l0 -183 l-78 0 l0 183 Z" /><glyph glyph-name="" unicode="-" d="M33 323 l478 0 l0 -105 l-478 0 l0 105 Z" /><glyph glyph-name="" unicode="." d="M106 51 q-46 3 -46 40 q3 43 46 50 q40 -7 47 -50 q-3 -37 -47 -40 Z" /><glyph glyph-name="" unicode="/" d="M31 312 l79 0 l0 266 l106 0 l0 105 l80 0 l0 -105 l-80 0 l0 -266 l-106 0 l0 -291 l-79 0 l0 291 Z" /><glyph glyph-name="" unicode="0" d="M111 182 l105 0 l0 -78 l186 0 l0 451 l80 0 l0 -452 l-80 0 l0 -105 l-291 0 l0 184 ZM30 476 l80 0 l0 185 l291 0 l0 -106 l-185 0 l0 -79 l-106 0 l0 -292 l-80 0 l0 292 Z" /><glyph glyph-name="" unicode="1" d="M257 476 l-186 0 l0 80 l186 0 l0 106 l78 0 l0 -662 l-78 0 l0 476 Z" /><glyph glyph-name="" unicode="2" d="M44 102 l106 0 l0 185 l187 0 l0 81 l80 0 l0 185 l105 0 l0 -266 l-185 0 l0 -106 l-106 0 l0 -79 l291 0 l0 -106 l-478 0 l0 106 ZM44 475 l106 0 l0 184 l265 0 l0 -106 l-185 0 l0 -78 l-80 0 l0 -107 l-106 0 l0 107 Z" /><glyph glyph-name="" unicode="3" d="M119 97 l292 0 l0 186 l79 0 l0 -291 l-371 0 l0 105 ZM40 176 l78 0 l0 -78 l-78 0 l0 78 ZM227 364 l184 0 l0 185 l79 0 l0 -185 l-79 0 l0 -81 l-184 0 l0 81 ZM119 655 l292 0 l0 -106 l-186 0 l0 -79 l-106 0 l0 185 Z" /><glyph glyph-name="" unicode="4" d="M335 106 l-186 0 l0 80 l184 0 l0 292 l-106 0 l0 -186 l-79 0 l0 -105 l-105 0 l0 105 l105 0 l0 186 l79 0 l0 79 l108 0 l0 106 l78 0 l0 -663 l-78 0 l0 106 Z" /><glyph glyph-name="" unicode="5" d="M131 113 l264 0 l0 185 l-79 0 l0 80 l186 0 l0 -265 l-106 0 l0 -106 l-265 0 l0 106 ZM24 192 l105 0 l0 -79 l-105 0 l0 79 ZM131 670 l371 0 l0 -106 l-292 0 l0 -78 l105 0 l0 -106 l-106 0 l0 -82 l-78 0 l0 372 Z" /><glyph glyph-name="" unicode="6" d="M152 189 l78 0 l0 -78 l187 0 l0 184 l-267 0 l0 -104 l-104 0 l0 292 l104 0 l0 185 l267 0 l0 -107 l-187 0 l0 -78 l-78 0 l0 -106 l371 0 l0 -372 l-371 0 l0 184 ZM417 561 l106 0 l0 -78 l-106 0 l0 78 Z" /><glyph glyph-name="" unicode="7" d="M133 99 l106 0 l0 267 l79 0 l0 104 l107 0 l0 80 l-371 0 l0 107 l450 0 l0 -187 l-78 0 l0 -104 l-108 0 l0 -267 l-79 0 l0 -105 l-106 0 l0 105 Z" /><glyph glyph-name="" unicode="8" d="M123 94 l293 0 l0 185 l78 0 l0 -290 l-371 0 l0 105 ZM43 279 l79 0 l0 373 l292 0 l0 -107 l-184 0 l0 -184 l186 0 l0 184 l78 0 l0 -184 l-78 0 l0 -82 l-294 0 l0 -184 l-79 0 l0 184 Z" /><glyph glyph-name="" unicode="9" d="M145 106 l264 0 l0 79 l-185 0 l0 106 l186 0 l0 266 l105 0 l0 -451 l-105 0 l0 -106 l-265 0 l0 106 ZM145 371 l78 0 l0 -80 l-78 0 l0 80 ZM37 479 l106 0 l0 184 l266 0 l0 -106 l-186 0 l0 -78 l-80 0 l0 -106 l-106 0 l0 106 Z" /><glyph glyph-name="" unicode=":" d="M69 104 l104 0 l0 -104 l-104 0 l0 104 ZM69 474 l104 0 l0 -105 l-104 0 l0 105 Z" /><glyph glyph-name="" unicode=";" d="M84 94 l78 0 l0 -184 l-78 0 l0 184 ZM84 461 l78 0 l0 -104 l-78 0 l0 104 Z" /><glyph glyph-name="" unicode="&lt;" d="M409 144 l78 0 l0 -105 l-78 0 l0 105 ZM224 224 l183 0 l0 -79 l-183 0 l0 79 ZM37 330 l186 0 l0 81 l186 0 l0 105 l78 0 l0 -105 l-78 0 l0 -81 l-186 0 l0 -105 l-186 0 l0 105 Z" /><glyph glyph-name="" unicode="=" d="M48 214 l450 0 l0 -79 l-450 0 l0 79 ZM48 400 l450 0 l0 -79 l-450 0 l0 79 Z" /><glyph glyph-name="" unicode="&gt;" d="M48 141 l186 0 l0 80 l186 0 l0 106 l78 0 l0 -106 l-78 0 l0 -80 l-186 0 l0 -106 l-186 0 l0 106 ZM128 407 l291 0 l0 -80 l-291 0 l0 80 ZM48 513 l78 0 l0 -105 l-78 0 l0 105 Z" /><glyph glyph-name="" unicode="?" d="M111 90 l105 0 l0 -106 l-105 0 l0 106 ZM111 276 l105 0 l0 81 l80 0 l0 184 l104 0 l0 -184 l-104 0 l0 -81 l-80 0 l0 -106 l-105 0 l0 106 ZM30 646 l264 0 l0 -103 l-264 0 l0 103 Z" /><glyph glyph-name="" unicode="@" d="M212 97 l80 0 l0 80 l106 0 l0 106 l79 0 l0 187 l-185 0 l0 -293 l-80 0 l0 -79 l-106 0 l0 79 l106 0 l0 293 l78 0 l0 79 l-78 0 l0 -79 l-107 0 l0 -292 l-79 0 l0 292 l79 0 l0 79 l107 0 l0 105 l450 0 l0 -184 l-78 0 l0 -187 l-107 0 l0 -106 l-79 0 l0 -79 l79 0 l0 79 l107 0 l0 106 l79 0 l0 187 l105 0 l0 -187 l-105 0 l0 -186 l-79 0 l0 -105 l-372 0 l0 105 Z" /><glyph glyph-name="" unicode="a" d="M31 109 l106 0 l0 267 l81 0 l0 185 l106 0 l0 106 l79 0 l0 -106 l-79 0 l0 -185 l-105 0 l0 -80 l185 0 l0 265 l106 0 l0 -266 l80 0 l0 -291 l-80 0 l0 184 l-292 0 l0 -79 l-81 0 l0 -105 l-106 0 l0 105 Z" /><glyph glyph-name="" unicode="b" d="M48 669 l476 0 l0 -663 l-476 0 l0 663 ZM154 297 l0 -184 l264 0 l0 184 l-264 0 ZM154 563 l0 -184 l264 0 l0 184 l-264 0 Z" /><glyph glyph-name="" unicode="c" d="M213 113 l266 0 l0 80 l106 0 l0 105 l80 0 l0 -105 l-80 0 l0 -185 l-372 0 l0 105 ZM134 298 l79 0 l0 -184 l-79 0 l0 184 ZM28 380 l105 0 l0 185 l80 0 l0 105 l371 0 l0 -105 l-371 0 l0 -185 l-80 0 l0 -80 l-105 0 l0 80 ZM585 564 l80 0 l0 -77 l-80 0 l0 77 Z" /><glyph glyph-name="" unicode="d" d="M53 659 l451 0 l0 -184 l-79 0 l0 78 l-292 0 l0 -451 l292 0 l0 79 l81 0 l0 292 l105 0 l0 -292 l-105 0 l0 -79 l-81 0 l0 -106 l-372 0 l0 663 Z" /><glyph glyph-name="" unicode="e" d="M48 669 l477 0 l0 -107 l-370 0 l0 -184 l370 0 l0 -82 l-370 0 l0 -185 l370 0 l0 -105 l-477 0 l0 663 Z" /><glyph glyph-name="" unicode="f" d="M67 669 l450 0 l0 -106 l-371 0 l0 -184 l292 0 l0 -82 l-293 0 l0 -291 l-78 0 l0 663 Z" /><glyph glyph-name="" unicode="g" d="M215 114 l371 0 l0 186 l-186 0 l0 81 l292 0 l0 -372 l-477 0 l0 105 ZM135 300 l78 0 l0 -185 l-78 0 l0 185 ZM29 381 l105 0 l0 186 l79 0 l0 105 l373 0 l0 -105 l-373 0 l0 -186 l-79 0 l0 -80 l-105 0 l0 80 ZM587 566 l105 0 l0 -79 l-105 0 l0 79 Z" /><glyph glyph-name="" unicode="h" d="M73 672 l79 0 l0 -291 l267 0 l0 291 l105 0 l0 -663 l-105 0 l0 291 l-267 0 l0 -291 l-79 0 l0 663 Z" /><glyph glyph-name="" unicode="i" d="M103 666 l77 0 l0 -653 l-77 0 l0 653 Z" /><glyph glyph-name="" unicode="j" d="M118 115 l186 0 l0 557 l106 0 l0 -662 l-292 0 l0 105 ZM38 195 l78 0 l0 -79 l-78 0 l0 79 Z" /><glyph glyph-name="" unicode="k" d="M73 671 l78 0 l0 -291 l107 0 l0 105 l81 0 l0 80 l106 0 l0 106 l79 0 l0 -106 l-79 0 l0 -80 l-106 0 l0 -186 l-188 0 l0 -291 l-78 0 l0 663 ZM445 113 l-106 0 l0 186 l106 0 l0 -106 l79 0 l0 -185 l-79 0 l0 105 Z" /><glyph glyph-name="" unicode="l" d="M85 671 l105 0 l0 -557 l266 0 l0 -105 l-371 0 l0 662 Z" /><glyph glyph-name="" unicode="m" d="M54 672 l106 0 l0 -105 l79 0 l0 -266 l-79 0 l0 -291 l-106 0 l0 662 ZM347 115 l-106 0 l0 185 l106 0 l0 -105 l78 0 l0 292 l107 0 l0 185 l159 0 l0 -662 l-78 0 l0 477 l-81 0 l0 -292 l-107 0 l0 -185 l-78 0 l0 105 Z" /><glyph glyph-name="" unicode="n" d="M85 672 l78 0 l0 -106 l106 0 l0 -80 l-106 0 l0 -477 l-78 0 l0 663 ZM456 114 l-106 0 l0 186 l106 0 l0 266 l79 0 l0 -557 l-79 0 l0 105 ZM270 486 l79 0 l0 -186 l-79 0 l0 186 Z" /><glyph glyph-name="" unicode="o" d="M218 114 l373 0 l0 451 l79 0 l0 -451 l-79 0 l0 -105 l-373 0 l0 105 ZM113 299 l105 0 l0 -184 l-105 0 l0 184 ZM34 380 l78 0 l0 186 l106 0 l0 105 l371 0 l0 -105 l-371 0 l0 -186 l-106 0 l0 -80 l-78 0 l0 80 Z" /><glyph glyph-name="" unicode="p" d="M54 672 l478 0 l0 -372 l-372 0 l0 -291 l-106 0 l0 663 ZM161 566 l0 -185 l264 0 l0 185 l-264 0 Z" /><glyph glyph-name="" unicode="q" d="M213 114 l186 0 l0 79 l106 0 l0 -78 l80 0 l0 451 l105 0 l0 -557 l-477 0 l0 105 ZM133 300 l78 0 l0 -185 l-78 0 l0 185 ZM26 381 l106 0 l0 186 l79 0 l0 105 l372 0 l0 -105 l-372 0 l0 -186 l-79 0 l0 -80 l-106 0 l0 80 Z" /><glyph glyph-name="" unicode="r" d="M67 673 l452 0 l0 -106 l-371 0 l0 -185 l264 0 l0 106 l108 0 l0 79 l78 0 l0 -79 l-78 0 l0 -478 l-108 0 l0 290 l-265 0 l0 -290 l-80 0 l0 663 Z" /><glyph glyph-name="" unicode="s" d="M49 193 l79 0 l0 -78 l294 0 l0 185 l78 0 l0 -291 l-451 0 l0 184 ZM129 380 l291 0 l0 -80 l-291 0 l0 80 ZM49 672 l371 0 l0 -106 l-292 0 l0 -185 l-79 0 l0 291 ZM422 566 l78 0 l0 -79 l-78 0 l0 79 Z" /><glyph glyph-name="" unicode="t" d="M301 567 l-264 0 l0 106 l556 0 l0 -106 l-184 0 l0 -557 l-108 0 l0 557 Z" /><glyph glyph-name="" unicode="u" d="M179 114 l266 0 l0 558 l105 0 l0 -663 l-371 0 l0 105 ZM72 672 l106 0 l0 -557 l-106 0 l0 557 Z" /><glyph glyph-name="" unicode="v" d="M345 115 l-107 0 l0 265 l107 0 l0 -184 l79 0 l0 292 l106 0 l0 185 l79 0 l0 -291 l-79 0 l0 -188 l-106 0 l0 -184 l-79 0 l0 105 ZM157 567 l-105 0 l0 106 l185 0 l0 -291 l-80 0 l0 185 Z" /><glyph glyph-name="" unicode="w" d="M199 190 l105 0 l0 292 l80 0 l0 187 l105 0 l0 -107 l81 0 l0 -266 l-81 0 l0 186 l-105 0 l0 -292 l-80 0 l0 -184 l-105 0 l0 184 ZM571 296 l106 0 l0 82 l79 0 l0 291 l105 0 l0 -291 l-105 0 l0 -372 l-185 0 l0 290 ZM118 562 l80 0 l0 -370 l-80 0 l0 370 ZM38 669 l79 0 l0 -106 l-79 0 l0 106 Z" /><glyph glyph-name="" unicode="x" d="M54 193 l107 0 l0 107 l80 0 l0 81 l-79 0 l0 185 l79 0 l0 -79 l106 0 l0 80 l80 0 l0 105 l106 0 l0 -105 l-106 0 l0 -186 l-80 0 l0 -81 l-106 0 l0 -107 l-80 0 l0 -184 l-107 0 l0 184 ZM427 114 l106 0 l0 -105 l-106 0 l0 105 ZM347 300 l78 0 l0 -185 l-78 0 l0 185 ZM54 672 l107 0 l0 -105 l-107 0 l0 105 Z" /><glyph glyph-name="" unicode="y" d="M265 299 l-105 0 l0 186 l105 0 l0 -105 l80 0 l0 185 l108 0 l0 106 l78 0 l0 -106 l-78 0 l0 -185 l-108 0 l0 -372 l-80 0 l0 291 ZM81 671 l78 0 l0 -184 l-78 0 l0 184 Z" /><glyph glyph-name="" unicode="z" d="M47 113 l78 0 l0 80 l106 0 l0 187 l80 0 l0 107 l106 0 l0 79 l-291 0 l0 105 l478 0 l0 -105 l-106 0 l0 -79 l-80 0 l0 -188 l-107 0 l0 -106 l-79 0 l0 -80 l372 0 l0 -105 l-557 0 l0 105 Z" /><glyph glyph-name="" unicode="[" d="M313 782 l-110 0 q-58 0 -58 -53 l0 -813 q0 -68 63 -68 l105 0 l0 -28 l-258 0 l0 991 l258 0 l0 -29 Z" /><glyph glyph-name="" unicode="\" d="M232 114 l80 0 l0 -105 l-80 0 l0 105 ZM154 380 l78 0 l0 -265 l-78 0 l0 265 ZM48 671 l104 0 l0 -290 l-104 0 l0 290 Z" /><glyph glyph-name="" unicode="]" d="M42 -147 l110 0 q58 0 53 58 l0 813 q0 63 -58 63 l-105 0 l0 29 l258 0 l0 -991 l-258 0 l0 28 Z" /><glyph glyph-name="" unicode="^" d="M401 478 l-38 0 l-153 125 l-143 -125 l-43 0 l153 206 l71 0 l153 -206 Z" /><glyph glyph-name="" unicode="_" d="M19 28 l556 0 l0 -79 l-556 0 l0 79 Z" /><glyph glyph-name="" unicode="`" d="M296 487 l-48 0 l-190 119 q-33 19 -33 53 q3 38 37 38 q24 5 53 -28 l181 -182 Z" /><glyph glyph-name="" unicode="a" d="M147 113 l264 0 l0 80 l-265 0 l0 -79 l-105 0 l0 79 l105 0 l0 107 l265 0 l0 80 l-264 0 l0 106 l372 0 l0 -478 l-372 0 l0 105 Z" /><glyph glyph-name="" unicode="b" d="M152 114 l185 0 l0 266 l-187 0 l0 -265 l-104 0 l0 451 l104 0 l0 -79 l267 0 l0 -373 l-79 0 l0 -105 l-186 0 l0 105 Z" /><glyph glyph-name="" unicode="c" d="M115 114 l265 0 l0 80 l105 0 l0 -80 l-105 0 l0 -105 l-265 0 l0 105 ZM35 381 l78 0 l0 106 l266 0 l0 -106 l-266 0 l0 -266 l-78 0 l0 266 ZM380 380 l105 0 l0 -80 l-105 0 l0 80 Z" /><glyph glyph-name="" unicode="d" d="M133 114 l290 0 l0 266 l-292 0 l0 -265 l-78 0 l0 266 l78 0 l0 105 l294 0 l0 186 l78 0 l0 -663 l-370 0 l0 105 Z" /><glyph glyph-name="" unicode="e" d="M116 114 l291 0 l0 80 l-292 0 l0 -79 l-78 0 l0 266 l78 0 l0 106 l372 0 l0 -373 l-79 0 l0 -105 l-292 0 l0 105 ZM116 380 l0 -80 l291 0 l0 80 l-291 0 Z" /><glyph glyph-name="" unicode="f" d="M99 378 l-78 0 l0 106 l78 0 l0 185 l187 0 l0 -106 l-79 0 l0 -79 l79 0 l0 -106 l-79 0 l0 -372 l-108 0 l0 372 Z" /><glyph glyph-name="" unicode="g" d="M139 -70 l265 0 l0 81 l-265 0 l0 184 l80 0 l0 -78 l185 0 l0 265 l-265 0 l0 -185 l-106 0 l0 185 l106 0 l0 107 l371 0 l0 -559 l-105 0 l0 -106 l-266 0 l0 106 Z" /><glyph glyph-name="" unicode="h" d="M54 672 l106 0 l0 -185 l266 0 l0 -477 l-79 0 l0 371 l-187 0 l0 -371 l-106 0 l0 662 Z" /><glyph glyph-name="" unicode="i" d="M73 483 l78 0 l0 -472 l-78 0 l0 472 ZM73 667 l78 0 l0 -104 l-78 0 l0 104 Z" /><glyph glyph-name="" unicode="j" d="M21 -68 l106 0 l0 557 l80 0 l0 -557 l-80 0 l0 -105 l-106 0 l0 105 ZM127 674 l80 0 l0 -106 l-80 0 l0 106 Z" /><glyph glyph-name="" unicode="k" d="M48 674 l104 0 l0 -290 l80 0 l0 105 l105 0 l0 -105 l-105 0 l0 -187 l-80 0 l0 -186 l-104 0 l0 663 ZM338 117 l80 0 l0 -106 l-80 0 l0 106 ZM234 197 l103 0 l0 -79 l-103 0 l0 79 Z" /><glyph glyph-name="" unicode="l" d="M83 665 l79 0 l0 -656 l-79 0 l0 656 Z" /><glyph glyph-name="" unicode="m" d="M51 487 l663 0 l0 -477 l-105 0 l0 372 l-186 0 l0 -372 l-80 0 l0 372 l-187 0 l0 -372 l-105 0 l0 477 Z" /><glyph glyph-name="" unicode="n" d="M46 490 l371 0 l0 -478 l-78 0 l0 372 l-188 0 l0 -372 l-105 0 l0 478 Z" /><glyph glyph-name="" unicode="o" d="M121 112 l291 0 l0 266 l-292 0 l0 -265 l-79 0 l0 266 l79 0 l0 105 l371 0 l0 -372 l-78 0 l0 -106 l-292 0 l0 106 Z" /><glyph glyph-name="" unicode="p" d="M55 488 l371 0 l0 -371 l-78 0 l0 -107 l-187 0 l0 -79 l-106 0 l0 557 ZM162 382 l0 -265 l185 0 l0 265 l-185 0 Z" /><glyph glyph-name="" unicode="q" d="M414 9 l-292 0 l0 106 l291 0 l0 265 l-293 0 l0 -265 l-78 0 l0 265 l78 0 l0 107 l372 0 l0 -664 l-78 0 l0 186 Z" /><glyph glyph-name="" unicode="r" d="M60 482 l185 0 l0 -106 l-80 0 l0 -370 l-105 0 l0 476 Z" /><glyph glyph-name="" unicode="s" d="M143 117 l265 0 l0 80 l105 0 l0 -80 l-105 0 l0 -106 l-265 0 l0 106 ZM36 197 l105 0 l0 106 l266 0 l0 -106 l-266 0 l0 -79 l-105 0 l0 79 ZM36 384 l105 0 l0 105 l266 0 l0 -105 l-266 0 l0 -81 l-105 0 l0 81 Z" /><glyph glyph-name="" unicode="t" d="M103 380 l-78 0 l0 106 l78 0 l0 184 l107 0 l0 -184 l79 0 l0 -106 l-79 0 l0 -267 l79 0 l0 -105 l-186 0 l0 372 Z" /><glyph glyph-name="" unicode="u" d="M59 488 l80 0 l0 -371 l186 0 l0 371 l105 0 l0 -477 l-371 0 l0 477 Z" /><glyph glyph-name="" unicode="v" d="M224 116 l-108 0 l0 266 l108 0 l0 -185 l79 0 l0 186 l107 0 l0 105 l78 0 l0 -105 l-78 0 l0 -187 l-107 0 l0 -185 l-79 0 l0 105 ZM37 488 l79 0 l0 -105 l-79 0 l0 105 Z" /><glyph glyph-name="" unicode="w" d="M136 380 l186 0 l0 107 l78 0 l0 -107 l-78 0 l0 -371 l-186 0 l0 371 ZM507 114 l-105 0 l0 266 l105 0 l0 -80 l80 0 l0 187 l106 0 l0 -187 l-106 0 l0 -291 l-80 0 l0 105 ZM30 487 l105 0 l0 -106 l-105 0 l0 106 Z" /><glyph glyph-name="" unicode="x" d="M31 115 l79 0 l0 80 l107 0 l0 106 l80 0 l0 186 l105 0 l0 -186 l-105 0 l0 -106 l-80 0 l0 -185 l-186 0 l0 105 ZM297 195 l106 0 l0 -80 l78 0 l0 -105 l-184 0 l0 185 ZM111 487 l106 0 l0 -186 l-106 0 l0 186 Z" /><glyph glyph-name="" unicode="y" d="M110 -74 l107 0 l0 187 l79 0 l0 265 l107 0 l0 107 l78 0 l0 -107 l-78 0 l0 -265 l-107 0 l0 -187 l-79 0 l0 -106 l-107 0 l0 106 ZM110 378 l107 0 l0 -265 l-107 0 l0 265 ZM31 485 l78 0 l0 -105 l-78 0 l0 105 Z" /><glyph glyph-name="" unicode="z" d="M31 117 l106 0 l0 80 l80 0 l0 106 l106 0 l0 81 l-184 0 l0 105 l370 0 l0 -105 l-105 0 l0 -81 l-79 0 l0 -106 l-107 0 l0 -80 l291 0 l0 -106 l-478 0 l0 106 Z" /><glyph glyph-name="" unicode="{" d="M153 265 l105 0 l0 -265 l79 0 l0 -106 l-184 0 l0 371 ZM74 371 l78 0 l0 371 l106 0 l0 -371 l-106 0 l0 -106 l-78 0 l0 106 Z" /><glyph glyph-name="" unicode="|" d="M45 660 l79 0 l0 -656 l-79 0 l0 656 Z" /><glyph glyph-name="" unicode="}" d="M70 35 l105 0 l0 265 l81 0 l0 107 l105 0 l0 -107 l-105 0 l0 -370 l-186 0 l0 105 ZM177 778 l78 0 l0 -371 l-78 0 l0 371 Z" /><glyph glyph-name="" unicode="~" d="M548 407 l48 -62 q-72 -111 -153 -106 q-43 0 -120 33 q-5 6 -10 6 q-66 42 -139 42 q-62 0 -104 -86 l-44 63 q63 105 153 105 q53 0 139 -43 q5 -4 19 -9 q76 -35 106 -35 q42 0 100 82 q5 5 5 10 Z" /><glyph glyph-name="" unicode="¤" d="M186 142 l106 0 l0 107 l79 0 l0 -107 l-79 0 l0 -78 l-106 0 l0 78 ZM372 142 l186 0 l0 293 l-187 0 l0 -106 l-79 0 l0 -79 l-106 0 l0 79 l106 0 l0 107 l79 0 l0 79 l293 0 l0 -373 l-106 0 l0 -78 l-186 0 l0 78 ZM186 515 l106 0 l0 -79 l-106 0 l0 79 Z" /><glyph glyph-name="" unicode="§" d="M346 -122 l157 0 l0 81 l-78 0 l0 106 l78 0 l0 185 l-78 0 l0 81 l185 0 l0 -453 l-105 0 l0 -105 l-159 0 l0 105 ZM239 -41 l105 0 l0 -79 l-105 0 l0 79 ZM346 144 l79 0 l0 -79 l-79 0 l0 79 ZM239 623 l371 0 l0 -106 l-264 0 l0 -80 l79 0 l0 -106 l-81 0 l0 -186 l-105 0 l0 478 Z" /><glyph glyph-name="" unicode="¨" d="M332 621 l186 0 l0 -105 l-186 0 l0 105 Z" /><glyph glyph-name="" unicode="°" d="M332 621 l186 0 l0 -290 l-186 0 l0 290 Z" /><glyph glyph-name="" unicode="±" d="M146 63 l186 0 l0 79 l-79 0 l0 107 l79 0 l0 80 l106 0 l0 -80 l186 0 l0 -107 l-185 0 l0 -79 l265 0 l0 -105 l-558 0 l0 105 Z" /><glyph glyph-name="" unicode="×" d="M146 63 l79 0 l0 79 l107 0 l0 187 l187 0 l0 106 l185 0 l0 -106 l-185 0 l0 -187 l79 0 l0 -79 l106 0 l0 -105 l-185 0 l0 105 l-108 0 l0 79 l-79 0 l0 -79 l-107 0 l0 -105 l-79 0 l0 105 ZM226 435 l106 0 l0 -106 l-106 0 l0 106 Z" /><glyph glyph-name="" unicode="à" d="M239 432 l371 0 l0 -477 l-371 0 l0 477 ZM346 326 l0 -264 l157 0 l0 264 l-157 0 ZM346 618 l78 0 l0 -105 l-78 0 l0 105 Z" /><glyph glyph-name="" unicode="á" d="M239 432 l371 0 l0 -477 l-371 0 l0 477 ZM346 326 l0 -264 l184 0 l0 264 l-184 0 ZM425 618 l105 0 l0 -105 l-105 0 l0 105 Z" /><glyph glyph-name="" unicode="è" d="M239 432 l371 0 l0 -477 l-371 0 l0 477 ZM346 142 l0 -80 l184 0 l0 80 l-184 0 ZM346 326 l0 -78 l184 0 l0 78 l-184 0 ZM346 618 l79 0 l0 -105 l-79 0 l0 105 Z" /><glyph glyph-name="" unicode="é" d="M239 432 l371 0 l0 -477 l-371 0 l0 477 ZM319 142 l0 -80 l184 0 l0 80 l-184 0 ZM319 326 l0 -78 l184 0 l0 78 l-184 0 ZM425 618 l78 0 l0 -105 l-78 0 l0 105 Z" /><glyph glyph-name="" unicode="ê" d="M239 432 l371 0 l0 -477 l-371 0 l0 477 ZM346 142 l0 -80 l184 0 l0 80 l-184 0 ZM346 326 l0 -78 l184 0 l0 78 l-184 0 ZM346 618 l184 0 l0 -105 l-184 0 l0 105 Z" /><glyph glyph-name="" unicode="ì" d="M386 426 l77 0 l0 -471 l-77 0 l0 471 ZM386 610 l77 0 l0 -103 l-77 0 l0 103 Z" /><glyph glyph-name="" unicode="í" d="M385 428 l79 0 l0 -473 l-79 0 l0 473 ZM385 612 l79 0 l0 -103 l-79 0 l0 103 Z" /><glyph glyph-name="" unicode="ò" d="M239 432 l371 0 l0 -477 l-371 0 l0 477 ZM347 326 l0 -264 l183 0 l0 264 l-183 0 ZM347 618 l78 0 l0 -105 l-78 0 l0 105 Z" /><glyph glyph-name="" unicode="ó" d="M239 432 l371 0 l0 -477 l-371 0 l0 477 ZM319 326 l0 -264 l184 0 l0 264 l-184 0 ZM425 618 l78 0 l0 -105 l-78 0 l0 105 Z" /><glyph glyph-name="" unicode="÷" d="M332 63 l186 0 l0 -105 l-186 0 l0 105 ZM146 249 l558 0 l0 -105 l-558 0 l0 105 ZM332 435 l186 0 l0 -106 l-186 0 l0 106 Z" /><glyph glyph-name="" unicode="ù" d="M239 432 l105 0 l0 -370 l188 0 l0 370 l78 0 l0 -477 l-371 0 l0 477 ZM346 618 l79 0 l0 -105 l-79 0 l0 105 Z" /><glyph glyph-name="" unicode="ú" d="M239 432 l79 0 l0 -370 l187 0 l0 370 l105 0 l0 -477 l-371 0 l0 477 ZM425 618 l78 0 l0 -105 l-78 0 l0 105 Z" /><glyph glyph-name="" unicode="ü" d="M239 432 l80 0 l0 -370 l186 0 l0 370 l105 0 l0 -477 l-371 0 l0 477 ZM320 618 l183 0 l0 -105 l-183 0 l0 105 Z" /><glyph glyph-name="" unicode="&#x101;" d="M314 432 l371 0 l0 -477 l-371 0 l0 477 ZM421 326 l0 -264 l184 0 l0 264 l-184 0 ZM421 618 l264 0 l0 -105 l-264 0 l0 105 Z" /><glyph glyph-name="" unicode="&#x113;" d="M314 432 l371 0 l0 -477 l-371 0 l0 477 ZM394 142 l0 -80 l184 0 l0 80 l-184 0 ZM394 326 l0 -78 l184 0 l0 78 l-184 0 ZM314 618 l371 0 l0 -105 l-371 0 l0 105 Z" /><glyph glyph-name="" unicode="&#x11b;" d="M314 432 l371 0 l0 -477 l-371 0 l0 477 ZM394 142 l0 -80 l184 0 l0 80 l-184 0 ZM394 326 l0 -78 l184 0 l0 78 l-184 0 ZM394 618 l184 0 l0 -105 l-184 0 l0 105 Z" /><glyph glyph-name="" unicode="&#x12b;" d="M421 325 l79 0 l0 -264 l-79 0 l0 264 ZM314 618 l371 0 l0 -105 l-371 0 l0 105 Z" /><glyph glyph-name="" unicode="&#x144;" d="M314 432 l371 0 l0 -477 l-80 0 l0 371 l-186 0 l0 -371 l-105 0 l0 477 ZM500 618 l105 0 l0 -105 l-105 0 l0 105 Z" /><glyph glyph-name="" unicode="&#x148;" d="M314 432 l371 0 l0 -477 l-105 0 l0 371 l-187 0 l0 -371 l-79 0 l0 477 ZM394 618 l184 0 l0 -105 l-184 0 l0 105 Z" /><glyph glyph-name="" unicode="&#x14d;" d="M314 432 l371 0 l0 -477 l-371 0 l0 477 ZM394 326 l0 -264 l184 0 l0 264 l-184 0 ZM314 618 l371 0 l0 -105 l-371 0 l0 105 Z" /><glyph glyph-name="" unicode="&#x16b;" d="M314 432 l107 0 l0 -370 l186 0 l0 370 l78 0 l0 -477 l-371 0 l0 477 ZM314 618 l291 0 l0 -105 l-291 0 l0 105 Z" /><glyph glyph-name="" unicode="&#x1ce;" d="M314 432 l371 0 l0 -477 l-371 0 l0 477 ZM421 326 l0 -264 l184 0 l0 264 l-184 0 ZM421 618 l184 0 l0 -105 l-184 0 l0 105 Z" /><glyph glyph-name="" unicode="&#x1d0;" d="M407 325 l80 0 l0 -264 l-80 0 l0 264 ZM407 616 l186 0 l0 -104 l-186 0 l0 104 Z" /><glyph glyph-name="" unicode="&#x1d2;" d="M314 432 l371 0 l0 -477 l-371 0 l0 477 ZM421 326 l0 -264 l184 0 l0 264 l-184 0 ZM421 618 l184 0 l0 -105 l-184 0 l0 105 Z" /><glyph glyph-name="" unicode="&#x1d4;" d="M314 432 l105 0 l0 -370 l188 0 l0 370 l78 0 l0 -477 l-371 0 l0 477 ZM421 618 l184 0 l0 -105 l-184 0 l0 105 Z" /><glyph glyph-name="" unicode="&#x1d6;" d="M314 432 l105 0 l0 -370 l188 0 l0 370 l78 0 l0 -477 l-371 0 l0 477 ZM421 698 l184 0 l0 -185 l-184 0 l0 185 Z" /><glyph glyph-name="" unicode="&#x1d8;" d="M314 432 l105 0 l0 -370 l161 0 l0 370 l105 0 l0 -477 l-371 0 l0 477 ZM421 699 l79 0 l0 106 l78 0 l0 -106 l-78 0 l0 -79 l78 0 l0 -107 l-157 0 l0 186 Z" /><glyph glyph-name="" unicode="&#x1da;" d="M314 432 l80 0 l0 -370 l186 0 l0 370 l105 0 l0 -477 l-371 0 l0 477 ZM395 618 l183 0 l0 -105 l-183 0 l0 105 ZM395 805 l183 0 l0 -106 l-183 0 l0 106 Z" /><glyph glyph-name="" unicode="&#x1dc;" d="M314 432 l80 0 l0 -370 l186 0 l0 370 l105 0 l0 -477 l-371 0 l0 477 ZM395 618 l183 0 l0 -105 l-183 0 l0 105 ZM395 805 l105 0 l0 -106 l-105 0 l0 106 Z" /><glyph glyph-name="" unicode="&#x251;" d="M314 432 l371 0 l0 -477 l-371 0 l0 477 ZM421 326 l0 -264 l184 0 l0 264 l-184 0 Z" /><glyph glyph-name="" unicode="&#x261;" d="M314 -125 l264 0 l0 80 l-264 0 l0 477 l371 0 l0 -662 l-371 0 l0 105 ZM394 328 l0 -266 l184 0 l0 266 l-184 0 Z" /><glyph glyph-name="" unicode="&#x2c7;" d="M407 621 l186 0 l0 -105 l-186 0 l0 105 Z" /><glyph glyph-name="" unicode="&#x2c9;" d="M314 621 l371 0 l0 -105 l-371 0 l0 105 Z" /><glyph glyph-name="" unicode="&#x391;" d="M220 220 l80 0 l0 292 l107 0 l0 186 l185 0 l0 -292 l-106 0 l0 105 l-78 0 l0 -185 l185 0 l0 78 l80 0 l0 -184 l-373 0 l0 -186 l-80 0 l0 186 ZM673 220 l106 0 l0 -186 l-106 0 l0 186 Z" /><glyph glyph-name="" unicode="&#x392;" d="M220 698 l453 0 l0 -477 l-80 0 l0 105 l-292 0 l0 -186 l372 0 l0 80 l106 0 l0 -81 l-106 0 l0 -105 l-453 0 l0 664 ZM301 592 l0 -186 l291 0 l0 186 l-291 0 Z" /><glyph glyph-name="" unicode="&#x393;" d="M314 698 l371 0 l0 -106 l-266 0 l0 -452 l-105 0 l0 558 Z" /><glyph glyph-name="" unicode="&#x394;" d="M234 220 l80 0 l0 186 l106 0 l0 186 l159 0 l0 -186 l-159 0 l0 -186 l-105 0 l0 -80 l372 0 l0 80 l78 0 l0 -186 l-531 0 l0 186 ZM581 404 l105 0 l0 -183 l-105 0 l0 183 Z" /><glyph glyph-name="" unicode="&#x395;" d="M314 697 l371 0 l0 -105 l-291 0 l0 -186 l184 0 l0 -80 l-184 0 l0 -187 l291 0 l0 -105 l-371 0 l0 663 Z" /><glyph glyph-name="" unicode="&#x396;" d="M275 220 l79 0 l0 186 l106 0 l0 105 l79 0 l0 81 l-264 0 l0 106 l371 0 l0 -187 l-105 0 l0 -185 l-81 0 l0 -106 l-105 0 l0 -81 l370 0 l0 -105 l-450 0 l0 186 Z" /><glyph glyph-name="" unicode="&#x397;" d="M221 698 l106 0 l0 -292 l373 0 l0 292 l79 0 l0 -664 l-79 0 l0 292 l-373 0 l0 -292 l-106 0 l0 664 Z" /><glyph glyph-name="" unicode="&#x398;" d="M301 139 l371 0 l0 187 l-372 0 l0 -186 l-79 0 l0 452 l79 0 l0 106 l372 0 l0 -106 l-371 0 l0 -186 l372 0 l0 186 l106 0 l0 -453 l-106 0 l0 -105 l-372 0 l0 105 Z" /><glyph glyph-name="" unicode="&#x399;" d="M447 692 l105 0 l0 -658 l-105 0 l0 658 Z" /><glyph glyph-name="" unicode="&#x39a;" d="M275 698 l79 0 l0 -292 l106 0 l0 105 l81 0 l0 81 l106 0 l0 106 l78 0 l0 -106 l-78 0 l0 -81 l-106 0 l0 -105 l-81 0 l0 -80 l-106 0 l0 -292 l-79 0 l0 664 ZM647 139 l78 0 l0 -105 l-78 0 l0 105 ZM541 220 l105 0 l0 -80 l-105 0 l0 80 ZM461 325 l78 0 l0 -104 l-78 0 l0 104 Z" /><glyph glyph-name="" unicode="&#x39b;" d="M235 220 l79 0 l0 292 l106 0 l0 186 l186 0 l0 -186 l-186 0 l0 -292 l-106 0 l0 -186 l-79 0 l0 186 ZM687 220 l78 0 l0 -186 l-78 0 l0 186 ZM607 511 l78 0 l0 -290 l-78 0 l0 290 Z" /><glyph glyph-name="" unicode="&#x39c;" d="M221 698 l106 0 l0 -106 l80 0 l0 -186 l-80 0 l0 -372 l-106 0 l0 664 ZM700 404 l-106 0 l0 -183 l-187 0 l0 185 l187 0 l0 186 l106 0 l0 106 l79 0 l0 -664 l-79 0 l0 370 Z" /><glyph glyph-name="" unicode="&#x39d;" d="M221 698 l186 0 l0 -186 l-80 0 l0 -478 l-106 0 l0 664 ZM700 139 l-106 0 l0 81 l106 0 l0 478 l79 0 l0 -664 l-79 0 l0 105 ZM514 404 l79 0 l0 -183 l-79 0 l0 183 ZM407 511 l107 0 l0 -105 l-107 0 l0 105 Z" /><glyph glyph-name="" unicode="&#x39e;" d="M328 139 l79 0 l0 81 l107 0 l0 106 l-186 0 l0 80 l79 0 l0 106 l107 0 l0 80 l-293 0 l0 106 l478 0 l0 -106 l-105 0 l0 -80 l-80 0 l0 -106 l185 0 l0 -80 l-105 0 l0 -106 l-80 0 l0 -81 l265 0 l0 -105 l-451 0 l0 105 Z" /><glyph glyph-name="" unicode="&#x39f;" d="M301 139 l372 0 l0 453 l106 0 l0 -453 l-106 0 l0 -105 l-372 0 l0 105 ZM221 592 l79 0 l0 106 l372 0 l0 -106 l-372 0 l0 -452 l-79 0 l0 452 Z" /><glyph glyph-name="" unicode="&#x3a0;" d="M220 698 l559 0 l0 -105 l-106 0 l0 -453 l-80 0 l0 452 l-294 0 l0 -452 l-79 0 l0 558 Z" /><glyph glyph-name="" unicode="&#x3a1;" d="M314 697 l291 0 l0 -105 l-183 0 l0 -266 l78 0 l0 80 l107 0 l0 186 l78 0 l0 -266 l-185 0 l0 -106 l-79 0 l0 -186 l-107 0 l0 663 Z" /><glyph glyph-name="" unicode="&#x3a3;" d="M221 139 l106 0 l0 81 l80 0 l0 106 l107 0 l0 80 l-107 0 l0 105 l187 0 l0 -105 l105 0 l0 -80 l-105 0 l0 -106 l-187 0 l0 -81 l372 0 l0 -105 l-558 0 l0 105 ZM327 592 l-106 0 l0 106 l558 0 l0 -106 l-372 0 l0 -80 l-80 0 l0 80 Z" /><glyph glyph-name="" unicode="&#x3a4;" d="M407 593 l-186 0 l0 105 l558 0 l0 -105 l-292 0 l0 -453 l-80 0 l0 453 Z" /><glyph glyph-name="" unicode="&#x3a5;" d="M407 406 l187 0 l0 187 l79 0 l0 105 l106 0 l0 -105 l-106 0 l0 -187 l-79 0 l0 -80 l-107 0 l0 -186 l-80 0 l0 266 ZM301 592 l106 0 l0 -186 l-106 0 l0 186 ZM221 698 l79 0 l0 -105 l-79 0 l0 105 Z" /><glyph glyph-name="" unicode="&#x3a6;" d="M487 139 l107 0 l0 81 l78 0 l0 291 l-185 0 l0 -371 l-266 0 l0 452 l558 0 l0 -453 l-185 0 l0 -105 l-107 0 l0 105 ZM301 511 l0 -290 l106 0 l0 290 l-106 0 Z" /><glyph glyph-name="" unicode="&#x3a7;" d="M234 139 l79 0 l0 81 l106 0 l0 292 l160 0 l0 80 l107 0 l0 106 l79 0 l0 -106 l-79 0 l0 -80 l-107 0 l0 -292 l-160 0 l0 -81 l-106 0 l0 -105 l-79 0 l0 105 ZM686 139 l79 0 l0 -105 l-79 0 l0 105 ZM579 220 l105 0 l0 -80 l-105 0 l0 80 ZM314 592 l105 0 l0 -80 l-105 0 l0 80 ZM234 698 l79 0 l0 -105 l-79 0 l0 105 Z" /><glyph glyph-name="" unicode="&#x3a8;" d="M407 326 l-80 0 l0 80 l80 0 l0 186 l107 0 l0 -185 l185 0 l0 291 l80 0 l0 -292 l-80 0 l0 -80 l-185 0 l0 -186 l-107 0 l0 186 ZM220 698 l106 0 l0 -291 l-106 0 l0 291 Z" /><glyph glyph-name="" unicode="&#x3a9;" d="M220 139 l106 0 l0 81 l81 0 l0 -80 l186 0 l0 80 l106 0 l0 372 l80 0 l0 -372 l-80 0 l0 -81 l80 0 l0 -105 l-559 0 l0 105 ZM220 593 l106 0 l0 105 l372 0 l0 -105 l-372 0 l0 -372 l-106 0 l0 372 Z" /><glyph glyph-name="" unicode="&#x3b1;" d="M301 139 l293 0 l0 267 l79 0 l0 105 l106 0 l0 -105 l-106 0 l0 -267 l-79 0 l0 -105 l-293 0 l0 105 ZM673 139 l106 0 l0 -105 l-106 0 l0 105 ZM221 406 l79 0 l0 105 l293 0 l0 -105 l-293 0 l0 -266 l-79 0 l0 266 Z" /><glyph glyph-name="" unicode="&#x3b2;" d="M314 698 l291 0 l0 -105 l-184 0 l0 -186 l78 0 l0 105 l108 0 l0 80 l78 0 l0 -80 l-78 0 l0 -106 l78 0 l0 -372 l-266 0 l0 -79 l-105 0 l0 743 ZM421 326 l0 -184 l184 0 l0 184 l-184 0 Z" /><glyph glyph-name="" unicode="&#x3b3;" d="M301 -45 l106 0 l0 373 l79 0 l0 -106 l108 0 l0 186 l79 0 l0 105 l106 0 l0 -105 l-106 0 l0 -186 l-79 0 l0 -80 l-108 0 l0 -187 l-79 0 l0 -105 l-106 0 l0 105 ZM301 407 l106 0 l0 -78 l-106 0 l0 78 ZM221 513 l79 0 l0 -105 l-79 0 l0 105 Z" /><glyph glyph-name="" unicode="&#x3b4;" d="M394 139 l184 0 l0 265 l107 0 l0 -265 l-107 0 l0 -105 l-184 0 l0 105 ZM314 406 l79 0 l0 105 l185 0 l0 -105 l-185 0 l0 -266 l-79 0 l0 266 ZM314 697 l371 0 l0 -105 l-292 0 l0 -80 l-79 0 l0 185 Z" /><glyph glyph-name="" unicode="&#x3b5;" d="M421 139 l184 0 l0 -105 l-184 0 l0 105 ZM314 220 l105 0 l0 105 l186 0 l0 -105 l-186 0 l0 -80 l-105 0 l0 80 ZM314 406 l105 0 l0 105 l266 0 l0 -105 l-266 0 l0 -80 l-105 0 l0 80 Z" /><glyph glyph-name="" unicode="&#x3b6;" d="M314 34 l185 0 l0 106 l106 0 l0 -106 l-106 0 l0 -79 l-185 0 l0 79 ZM421 220 l78 0 l0 -78 l-78 0 l0 78 ZM314 512 l293 0 l0 80 l78 0 l0 -80 l-78 0 l0 -106 l-188 0 l0 -185 l-105 0 l0 291 Z" /><glyph glyph-name="" unicode="&#x3b7;" d="M607 406 l-108 0 l0 -78 l-80 0 l0 -186 l-105 0 l0 186 l105 0 l0 78 l80 0 l0 106 l186 0 l0 -557 l-78 0 l0 451 ZM314 512 l105 0 l0 -105 l-105 0 l0 105 Z" /><glyph glyph-name="" unicode="&#x3b8;" d="M421 139 l157 0 l0 186 l-159 0 l0 -185 l-105 0 l0 452 l105 0 l0 105 l159 0 l0 -105 l-157 0 l0 -186 l159 0 l0 186 l105 0 l0 -453 l-105 0 l0 -105 l-159 0 l0 105 Z" /><glyph glyph-name="" unicode="&#x3b9;" d="M407 510 l106 0 l0 -371 l80 0 l0 -105 l-186 0 l0 476 Z" /><glyph glyph-name="" unicode="&#x3ba;" d="M314 511 l79 0 l0 -185 l106 0 l0 78 l79 0 l0 -78 l-79 0 l0 -106 l-106 0 l0 -186 l-79 0 l0 477 ZM580 139 l105 0 l0 -105 l-105 0 l0 105 ZM500 220 l78 0 l0 -80 l-78 0 l0 80 Z" /><glyph glyph-name="" unicode="&#x3bb;" d="M314 220 l79 0 l0 186 l106 0 l0 105 l79 0 l0 -291 l-185 0 l0 -186 l-79 0 l0 186 ZM580 220 l105 0 l0 -186 l-105 0 l0 186 ZM393 592 l-79 0 l0 105 l185 0 l0 -185 l-106 0 l0 80 Z" /><glyph glyph-name="" unicode="&#x3bc;" d="M314 512 l105 0 l0 -370 l188 0 l0 370 l78 0 l0 -478 l-266 0 l0 -79 l-105 0 l0 557 Z" /><glyph glyph-name="" unicode="&#x3bd;" d="M421 220 l186 0 l0 291 l78 0 l0 -291 l-78 0 l0 -81 l-107 0 l0 -105 l-79 0 l0 186 ZM314 511 l105 0 l0 -291 l-105 0 l0 291 Z" /><glyph glyph-name="" unicode="&#x3be;" d="M421 -45 l186 0 l0 79 l78 0 l0 -184 l-264 0 l0 105 ZM421 140 l184 0 l0 -104 l-184 0 l0 104 ZM314 328 l105 0 l0 79 l266 0 l0 -79 l-266 0 l0 -186 l-105 0 l0 186 ZM314 594 l105 0 l0 105 l266 0 l0 -105 l-266 0 l0 -186 l-105 0 l0 186 Z" /><glyph glyph-name="" unicode="&#x3bf;" d="M421 139 l186 0 l0 265 l78 0 l0 -265 l-78 0 l0 -105 l-186 0 l0 105 ZM314 406 l105 0 l0 105 l186 0 l0 -105 l-186 0 l0 -266 l-105 0 l0 266 Z" /><glyph glyph-name="" unicode="&#x3c0;" d="M326 406 l-106 0 l0 105 l559 0 l0 -105 l-80 0 l0 -372 l-106 0 l0 370 l-186 0 l0 -370 l-81 0 l0 372 Z" /><glyph glyph-name="" unicode="&#x3c1;" d="M314 407 l80 0 l0 105 l184 0 l0 -105 l-183 0 l0 -265 l185 0 l0 265 l105 0 l0 -265 l-105 0 l0 -108 l-186 0 l0 -184 l-80 0 l0 557 Z" /><glyph glyph-name="" unicode="&#x3c3;" d="M368 139 l265 0 l0 186 l106 0 l0 -186 l-106 0 l0 -105 l-265 0 l0 105 ZM261 326 l106 0 l0 80 l80 0 l0 105 l292 0 l0 -105 l-106 0 l0 -80 l-79 0 l0 78 l-107 0 l0 -78 l-80 0 l0 -186 l-106 0 l0 186 Z" /><glyph glyph-name="" unicode="&#x3c4;" d="M446 404 l-79 0 l0 106 l265 0 l0 -106 l-79 0 l0 -370 l-107 0 l0 370 Z" /><glyph glyph-name="" unicode="&#x3c5;" d="M421 139 l184 0 l0 372 l80 0 l0 -372 l-80 0 l0 -105 l-184 0 l0 105 ZM314 511 l105 0 l0 -371 l-105 0 l0 371 Z" /><glyph glyph-name="" unicode="&#x3c6;" d="M394 34 l-80 0 l0 372 l80 0 l0 186 l106 0 l0 -80 l78 0 l0 -106 l-78 0 l0 -264 l80 0 l0 264 l105 0 l0 -372 l-185 0 l0 -79 l-106 0 l0 79 Z" /><glyph glyph-name="" unicode="&#x3c7;" d="M220 -45 l106 0 l0 79 l81 0 l0 295 l186 0 l0 184 l105 0 l0 -184 l-105 0 l0 -107 l-79 0 l0 -80 l78 0 l0 -108 l-185 0 l0 -79 l-81 0 l0 -105 l-106 0 l0 105 ZM593 34 l106 0 l0 -79 l80 0 l0 -105 l-186 0 l0 184 ZM326 408 l-106 0 l0 105 l187 0 l0 -184 l-81 0 l0 79 Z" /><glyph glyph-name="" unicode="&#x3c8;" d="M407 34 l-107 0 l0 106 l107 0 l0 266 l79 0 l0 -264 l187 0 l0 370 l106 0 l0 -372 l-106 0 l0 -106 l-187 0 l0 -79 l-79 0 l0 79 ZM220 512 l79 0 l0 -370 l-79 0 l0 370 Z" /><glyph glyph-name="" unicode="&#x3c9;" d="M220 406 l79 0 l0 105 l108 0 l0 -105 l-107 0 l0 -266 l107 0 l0 80 l186 0 l0 -80 l80 0 l0 264 l106 0 l0 -370 l-559 0 l0 372 ZM593 511 l78 0 l0 -105 l-78 0 l0 105 Z" /><glyph glyph-name="" unicode="&#x401;" d="M221 593 l478 0 l0 -80 l-371 0 l0 -185 l371 0 l0 -107 l-371 0 l0 -160 l451 0 l0 -106 l-558 0 l0 638 ZM407 779 l186 0 l0 -78 l-186 0 l0 78 Z" /><glyph glyph-name="" unicode="&#x410;" d="M220 142 l80 0 l0 266 l107 0 l0 185 l185 0 l0 -265 l-106 0 l0 79 l-78 0 l0 -185 l185 0 l0 104 l80 0 l0 -184 l-373 0 l0 -187 l-80 0 l0 187 ZM673 142 l106 0 l0 -187 l-106 0 l0 187 Z" /><glyph glyph-name="" unicode="&#x411;" d="M220 593 l453 0 l0 -78 l-372 0 l0 -187 l372 0 l0 -107 l-372 0 l0 -159 l372 0 l0 159 l106 0 l0 -160 l-106 0 l0 -106 l-453 0 l0 638 Z" /><glyph glyph-name="" unicode="&#x412;" d="M220 593 l453 0 l0 -372 l-372 0 l0 -159 l372 0 l0 159 l106 0 l0 -160 l-106 0 l0 -106 l-453 0 l0 638 ZM301 513 l0 -185 l291 0 l0 185 l-291 0 Z" /><glyph glyph-name="" unicode="&#x413;" d="M314 592 l371 0 l0 -79 l-266 0 l0 -558 l-105 0 l0 637 Z" /><glyph glyph-name="" unicode="&#x414;" d="M129 62 l186 0 l0 531 l452 0 l0 -531 l104 0 l0 -185 l-104 0 l0 78 l-559 0 l0 -78 l-79 0 l0 185 ZM395 513 l0 -450 l292 0 l0 450 l-292 0 Z" /><glyph glyph-name="" unicode="&#x415;" d="M221 593 l478 0 l0 -80 l-371 0 l0 -185 l371 0 l0 -107 l-371 0 l0 -160 l451 0 l0 -106 l-558 0 l0 638 Z" /><glyph glyph-name="" unicode="&#x416;" d="M129 61 l105 0 l0 81 l80 0 l0 265 l106 0 l0 106 l81 0 l0 -185 l105 0 l0 79 l80 0 l0 106 l106 0 l0 79 l79 0 l0 -79 l-79 0 l0 -106 l-106 0 l0 -265 l-80 0 l0 78 l-105 0 l0 -158 l-81 0 l0 80 l-106 0 l0 -81 l-80 0 l0 -106 l-105 0 l0 106 ZM792 61 l79 0 l0 -106 l-79 0 l0 106 ZM687 142 l104 0 l0 -80 l-104 0 l0 80 ZM236 513 l78 0 l0 -105 l-78 0 l0 105 ZM129 592 l105 0 l0 -79 l-105 0 l0 79 Z" /><glyph glyph-name="" unicode="&#x417;" d="M301 61 l372 0 l0 160 l106 0 l0 -160 l-106 0 l0 -106 l-372 0 l0 106 ZM221 142 l79 0 l0 -80 l-79 0 l0 80 ZM407 328 l186 0 l0 185 l-293 0 l0 -105 l-79 0 l0 105 l79 0 l0 80 l372 0 l0 -372 l-265 0 l0 107 Z" /><glyph glyph-name="" unicode="&#x418;" d="M221 593 l79 0 l0 -451 l107 0 l0 186 l80 0 l0 80 l107 0 l0 185 l185 0 l0 -638 l-106 0 l0 452 l-79 0 l0 -186 l-107 0 l0 -79 l-80 0 l0 -187 l-186 0 l0 638 Z" /><glyph glyph-name="" unicode="&#x419;" d="M235 593 l79 0 l0 -451 l106 0 l0 186 l81 0 l0 80 l106 0 l0 185 l158 0 l0 -638 l-78 0 l0 452 l-80 0 l0 -79 l-106 0 l0 -186 l-81 0 l0 -81 l-106 0 l0 -106 l-79 0 l0 638 ZM421 699 l186 0 l0 80 l78 0 l0 -80 l-78 0 l0 -105 l-186 0 l0 105 ZM315 779 l105 0 l0 -80 l-105 0 l0 80 Z" /><glyph glyph-name="" unicode="&#x41a;" d="M261 593 l106 0 l0 -265 l79 0 l0 80 l108 0 l0 105 l79 0 l0 80 l106 0 l0 -80 l-106 0 l0 -105 l-79 0 l0 -80 l-108 0 l0 -107 l-79 0 l0 -266 l-106 0 l0 638 ZM633 61 l106 0 l0 -106 l-106 0 l0 106 ZM554 142 l79 0 l0 -80 l-79 0 l0 80 ZM447 221 l106 0 l0 -79 l-106 0 l0 79 Z" /><glyph glyph-name="" unicode="&#x41b;" d="M221 61 l106 0 l0 160 l80 0 l0 372 l372 0 l0 -638 l-79 0 l0 558 l-186 0 l0 -292 l-107 0 l0 -266 l-186 0 l0 106 Z" /><glyph glyph-name="" unicode="&#x41c;" d="M129 592 l185 0 l0 -185 l-106 0 l0 -452 l-79 0 l0 637 ZM393 221 l186 0 l0 186 l107 0 l0 185 l185 0 l0 -637 l-106 0 l0 452 l-79 0 l0 -186 l-107 0 l0 -266 l-186 0 l0 266 ZM315 407 l78 0 l0 -186 l-78 0 l0 186 Z" /><glyph glyph-name="" unicode="&#x41d;" d="M221 593 l79 0 l0 -265 l373 0 l0 265 l106 0 l0 -638 l-106 0 l0 266 l-373 0 l0 -266 l-79 0 l0 638 Z" /><glyph glyph-name="" unicode="&#x41e;" d="M300 61 l373 0 l0 452 l106 0 l0 -452 l-106 0 l0 -106 l-373 0 l0 106 ZM220 515 l79 0 l0 78 l372 0 l0 -78 l-372 0 l0 -453 l-79 0 l0 453 Z" /><glyph glyph-name="" unicode="&#x41f;" d="M220 593 l559 0 l0 -638 l-106 0 l0 558 l-374 0 l0 -558 l-79 0 l0 638 Z" /><glyph glyph-name="" unicode="&#x420;" d="M221 593 l479 0 l0 -80 l79 0 l0 -185 l-79 0 l0 -107 l-373 0 l0 -266 l-106 0 l0 638 ZM328 513 l0 -185 l371 0 l0 80 l-105 0 l0 105 l-266 0 Z" /><glyph glyph-name="" unicode="&#x421;" d="M301 61 l372 0 l0 81 l106 0 l0 -81 l-106 0 l0 -106 l-372 0 l0 106 ZM221 513 l79 0 l0 80 l372 0 l0 -80 l-372 0 l0 -451 l-79 0 l0 451 ZM673 513 l106 0 l0 -105 l-106 0 l0 105 Z" /><glyph glyph-name="" unicode="&#x422;" d="M407 513 l-186 0 l0 79 l558 0 l0 -79 l-292 0 l0 -452 l-80 0 l0 452 Z" /><glyph glyph-name="" unicode="&#x423;" d="M301 61 l186 0 l0 81 l-80 0 l0 186 l187 0 l0 185 l79 0 l0 80 l106 0 l0 -80 l-106 0 l0 -185 l-79 0 l0 -267 l-107 0 l0 -106 l-186 0 l0 106 ZM301 513 l106 0 l0 -185 l-106 0 l0 185 ZM221 593 l79 0 l0 -78 l-79 0 l0 78 Z" /><glyph glyph-name="" unicode="&#x424;" d="M236 140 l183 0 l0 372 l-105 0 l0 -105 l-80 0 l0 -265 l-105 0 l0 370 l185 0 l0 80 l372 0 l0 -80 l-185 0 l0 -370 l264 0 l0 265 l-78 0 l0 105 l184 0 l0 -372 l-104 0 l0 -79 l-531 0 l0 79 Z" /><glyph glyph-name="" unicode="&#x425;" d="M220 61 l106 0 l0 81 l81 0 l0 266 l186 0 l0 185 l186 0 l0 -78 l-80 0 l0 -107 l-106 0 l0 -266 l-186 0 l0 -81 l-81 0 l0 -106 l-106 0 l0 106 ZM699 61 l80 0 l0 -106 l-80 0 l0 106 ZM593 142 l105 0 l0 -80 l-105 0 l0 80 ZM327 513 l80 0 l0 -105 l-80 0 l0 105 ZM220 593 l106 0 l0 -78 l-106 0 l0 78 Z" /><glyph glyph-name="" unicode="&#x426;" d="M699 -45 l-479 0 l0 639 l106 0 l0 -531 l267 0 l0 531 l106 0 l0 -532 l80 0 l0 -185 l-80 0 l0 78 Z" /><glyph glyph-name="" unicode="&#x427;" d="M580 220 l-266 0 l0 292 l80 0 l0 -186 l186 0 l0 186 l105 0 l0 -451 l-105 0 l0 159 Z" /><glyph glyph-name="" unicode="&#x428;" d="M129 592 l105 0 l0 -530 l188 0 l0 451 l79 0 l0 -451 l292 0 l0 530 l78 0 l0 -637 l-742 0 l0 637 Z" /><glyph glyph-name="" unicode="&#x429;" d="M860 -45 l-824 0 l0 639 l79 0 l0 -531 l293 0 l0 531 l80 0 l0 -531 l293 0 l0 531 l79 0 l0 -532 l105 0 l0 -185 l-105 0 l0 78 Z" /><glyph glyph-name="" unicode="&#x42a;" d="M300 515 l-80 0 l0 78 l187 0 l0 -265 l372 0 l0 -373 l-479 0 l0 560 ZM408 221 l0 -159 l265 0 l0 159 l-265 0 Z" /><glyph glyph-name="" unicode="&#x42b;" d="M129 592 l105 0 l0 -264 l372 0 l0 -107 l-370 0 l0 -159 l370 0 l0 158 l81 0 l0 -159 l-81 0 l0 -106 l-477 0 l0 637 ZM767 592 l104 0 l0 -637 l-104 0 l0 637 Z" /><glyph glyph-name="" unicode="&#x42c;" d="M221 593 l106 0 l0 -265 l372 0 l0 -107 l-371 0 l0 -159 l266 0 l0 80 l106 0 l0 79 l79 0 l0 -79 l-79 0 l0 -187 l-479 0 l0 638 Z" /><glyph glyph-name="" unicode="&#x42d;" d="M328 61 l371 0 l0 160 l-292 0 l0 107 l293 0 l0 185 l79 0 l0 -452 l-79 0 l0 -106 l-372 0 l0 106 ZM221 142 l106 0 l0 -80 l-106 0 l0 80 ZM221 513 l106 0 l0 80 l372 0 l0 -80 l-372 0 l0 -105 l-106 0 l0 105 Z" /><glyph glyph-name="" unicode="&#x42e;" d="M129 592 l79 0 l0 -264 l107 0 l0 185 l80 0 l0 79 l370 0 l0 -79 l-370 0 l0 -451 l-80 0 l0 158 l-107 0 l0 -265 l-79 0 l0 637 ZM395 61 l372 0 l0 452 l104 0 l0 -452 l-104 0 l0 -106 l-372 0 l0 106 Z" /><glyph glyph-name="" unicode="&#x42f;" d="M301 142 l106 0 l0 79 l-106 0 l0 107 l371 0 l0 185 l-372 0 l0 -185 l-79 0 l0 185 l79 0 l0 80 l479 0 l0 -638 l-106 0 l0 266 l-187 0 l0 -79 l-79 0 l0 -187 l-106 0 l0 187 Z" /><glyph glyph-name="" unicode="&#x430;" d="M314 221 l264 0 l0 107 l-264 0 l0 79 l371 0 l0 -452 l-371 0 l0 266 ZM395 142 l0 -80 l183 0 l0 80 l-183 0 Z" /><glyph glyph-name="" unicode="&#x431;" d="M314 513 l80 0 l0 79 l291 0 l0 -79 l-290 0 l0 -106 l290 0 l0 -452 l-371 0 l0 558 ZM395 326 l0 -264 l183 0 l0 264 l-183 0 Z" /><glyph glyph-name="" unicode="&#x432;" d="M314 407 l371 0 l0 -452 l-371 0 l0 452 ZM421 142 l0 -80 l184 0 l0 80 l-184 0 ZM421 326 l0 -105 l184 0 l0 105 l-184 0 Z" /><glyph glyph-name="" unicode="&#x433;" d="M314 407 l371 0 l0 -79 l-266 0 l0 -373 l-105 0 l0 452 Z" /><glyph glyph-name="" unicode="&#x434;" d="M220 62 l106 0 l0 346 l373 0 l0 -346 l80 0 l0 -185 l-80 0 l0 78 l-373 0 l0 -78 l-106 0 l0 185 ZM408 328 l0 -265 l184 0 l0 265 l-184 0 Z" /><glyph glyph-name="" unicode="&#x435;" d="M314 407 l371 0 l0 -452 l-371 0 l0 452 ZM395 142 l0 -80 l183 0 l0 80 l-183 0 ZM395 326 l0 -105 l183 0 l0 105 l-183 0 Z" /><glyph glyph-name="" unicode="&#x436;" d="M220 61 l79 0 l0 265 l187 0 l0 -105 l-78 0 l0 -79 l78 0 l0 79 l107 0 l0 107 l80 0 l0 79 l106 0 l0 -79 l-106 0 l0 -107 l-80 0 l0 -79 l-107 0 l0 -81 l-187 0 l0 -106 l-79 0 l0 106 ZM673 61 l106 0 l0 -106 l-106 0 l0 106 ZM593 142 l78 0 l0 -80 l-78 0 l0 80 ZM220 407 l79 0 l0 -79 l-79 0 l0 79 Z" /><glyph glyph-name="" unicode="&#x437;" d="M314 142 l107 0 l0 79 l184 0 l0 107 l-291 0 l0 79 l371 0 l0 -452 l-371 0 l0 187 ZM422 142 l0 -80 l183 0 l0 80 l-183 0 Z" /><glyph glyph-name="" unicode="&#x438;" d="M314 407 l107 0 l0 -186 l79 0 l0 107 l80 0 l0 79 l105 0 l0 -452 l-105 0 l0 265 l-80 0 l0 -159 l-79 0 l0 -106 l-107 0 l0 452 Z" /><glyph glyph-name="" unicode="&#x439;" d="M314 407 l80 0 l0 106 l186 0 l0 80 l106 0 l0 -80 l-106 0 l0 -106 l-185 0 l0 -186 l105 0 l0 107 l80 0 l0 79 l106 0 l0 -452 l-106 0 l0 265 l-80 0 l0 -159 l-106 0 l0 -106 l-80 0 l0 452 ZM314 593 l80 0 l0 -78 l-80 0 l0 78 Z" /><glyph glyph-name="" unicode="&#x43a;" d="M314 407 l79 0 l0 -79 l106 0 l0 79 l79 0 l0 -79 l-79 0 l0 -186 l-106 0 l0 -187 l-79 0 l0 452 ZM578 61 l107 0 l0 -106 l-107 0 l0 106 ZM500 142 l78 0 l0 -80 l-78 0 l0 80 Z" /><glyph glyph-name="" unicode="&#x43b;" d="M314 61 l79 0 l0 346 l292 0 l0 -345 l-107 0 l0 264 l-79 0 l0 -265 l-106 0 l0 -106 l-79 0 l0 106 Z" /><glyph glyph-name="" unicode="&#x43c;" d="M220 407 l187 0 l0 -265 l-107 0 l0 -187 l-80 0 l0 452 ZM408 142 l78 0 l0 79 l107 0 l0 186 l186 0 l0 -452 l-106 0 l0 266 l-80 0 l0 -266 l-185 0 l0 187 Z" /><glyph glyph-name="" unicode="&#x43d;" d="M314 407 l105 0 l0 -186 l186 0 l0 186 l80 0 l0 -452 l-80 0 l0 187 l-186 0 l0 -187 l-105 0 l0 452 Z" /><glyph glyph-name="" unicode="&#x43e;" d="M314 407 l371 0 l0 -452 l-371 0 l0 452 ZM421 326 l0 -264 l184 0 l0 264 l-184 0 Z" /><glyph glyph-name="" unicode="&#x43f;" d="M314 407 l371 0 l0 -452 l-80 0 l0 371 l-186 0 l0 -371 l-105 0 l0 452 Z" /><glyph glyph-name="" unicode="&#x440;" d="M314 408 l371 0 l0 -453 l-292 0 l0 -78 l-79 0 l0 531 ZM394 328 l0 -265 l184 0 l0 265 l-184 0 Z" /><glyph glyph-name="" unicode="&#x441;" d="M314 407 l371 0 l0 -79 l-291 0 l0 -266 l186 0 l0 80 l105 0 l0 -187 l-371 0 l0 452 Z" /><glyph glyph-name="" unicode="&#x442;" d="M393 326 l-79 0 l0 80 l371 0 l0 -80 l-186 0 l0 -265 l-106 0 l0 265 Z" /><glyph glyph-name="" unicode="&#x443;" d="M314 -125 l105 0 l0 80 l81 0 l0 107 l-79 0 l0 159 l79 0 l0 -79 l107 0 l0 265 l78 0 l0 -265 l-78 0 l0 -187 l-107 0 l0 -185 l-186 0 l0 105 ZM314 407 l105 0 l0 -185 l-105 0 l0 185 Z" /><glyph glyph-name="" unicode="&#x444;" d="M420 -45 l-184 0 l0 187 l78 0 l0 -79 l105 0 l0 265 l-185 0 l0 -186 l-105 0 l0 186 l105 0 l0 80 l186 0 l0 105 l81 0 l0 -105 l290 0 l0 -186 l-105 0 l0 106 l-185 0 l0 -265 l185 0 l0 79 l106 0 l0 79 l79 0 l0 -79 l-79 0 l0 -187 l-291 0 l0 -78 l-81 0 l0 78 Z" /><glyph glyph-name="" unicode="&#x445;" d="M314 61 l79 0 l0 267 l187 0 l0 79 l105 0 l0 -79 l-105 0 l0 -267 l-187 0 l0 -106 l-79 0 l0 106 ZM580 61 l105 0 l0 -106 l-105 0 l0 106 ZM314 407 l79 0 l0 -79 l-79 0 l0 79 Z" /><glyph glyph-name="" unicode="&#x446;" d="M700 -45 l-479 0 l0 453 l106 0 l0 -345 l267 0 l0 345 l106 0 l0 -346 l79 0 l0 -185 l-79 0 l0 78 Z" /><glyph glyph-name="" unicode="&#x447;" d="M607 142 l-293 0 l0 265 l105 0 l0 -186 l188 0 l0 186 l78 0 l0 -452 l-78 0 l0 187 Z" /><glyph glyph-name="" unicode="&#x448;" d="M221 326 l79 0 l0 -264 l107 0 l0 264 l80 0 l0 -264 l186 0 l0 264 l106 0 l0 -371 l-558 0 l0 371 Z" /><glyph glyph-name="" unicode="&#x449;" d="M792 -45 l-663 0 l0 453 l105 0 l0 -345 l186 0 l0 345 l81 0 l0 -345 l185 0 l0 345 l106 0 l0 -346 l79 0 l0 -185 l-79 0 l0 78 Z" /><glyph glyph-name="" unicode="&#x44a;" d="M421 61 l266 0 l0 81 l78 0 l0 -81 l-78 0 l0 -106 l-266 0 l0 106 ZM315 142 l105 0 l0 79 l265 0 l0 -79 l-265 0 l0 -80 l-105 0 l0 80 ZM314 328 l-79 0 l0 79 l185 0 l0 -186 l-106 0 l0 107 Z" /><glyph glyph-name="" unicode="&#x44b;" d="M221 407 l106 0 l0 -186 l266 0 l0 -266 l-372 0 l0 452 ZM700 407 l79 0 l0 -452 l-79 0 l0 452 ZM328 142 l0 -80 l186 0 l0 80 l-186 0 Z" /><glyph glyph-name="" unicode="&#x44c;" d="M314 407 l79 0 l0 -186 l292 0 l0 -266 l-371 0 l0 452 ZM394 142 l0 -80 l184 0 l0 80 l-184 0 Z" /><glyph glyph-name="" unicode="&#x44d;" d="M314 142 l79 0 l0 79 l185 0 l0 107 l-264 0 l0 79 l371 0 l0 -452 l-371 0 l0 187 ZM394 142 l0 -80 l184 0 l0 80 l-184 0 Z" /><glyph glyph-name="" unicode="&#x44e;" d="M221 407 l79 0 l0 -79 l107 0 l0 79 l372 0 l0 -346 l-106 0 l0 -106 l-266 0 l0 187 l80 0 l0 -80 l185 0 l0 264 l-265 0 l0 -184 l-107 0 l0 -187 l-79 0 l0 452 Z" /><glyph glyph-name="" unicode="&#x44f;" d="M314 61 l107 0 l0 81 l-107 0 l0 265 l371 0 l0 -452 l-78 0 l0 187 l-107 0 l0 -81 l-79 0 l0 -106 l-107 0 l0 106 ZM422 326 l0 -105 l183 0 l0 105 l-183 0 Z" /><glyph glyph-name="" unicode="&#x451;" d="M314 407 l371 0 l0 -452 l-371 0 l0 452 ZM422 142 l0 -80 l183 0 l0 80 l-183 0 ZM422 326 l0 -105 l183 0 l0 105 l-183 0 ZM314 592 l107 0 l0 -79 l-107 0 l0 79 Z" /><glyph glyph-name="" unicode="&#x2014;" d="M35 329 l931 0 l0 -79 l-931 0 l0 79 Z" /><glyph glyph-name="" unicode="&#x2016;" d="M407 513 l186 0 l0 -635 l-186 0 l0 635 Z" /><glyph glyph-name="" unicode="&#x2018;" d="M461 698 l77 0 l0 -262 l-77 0 l0 262 Z" /><glyph glyph-name="" unicode="&#x2019;" d="M461 698 l77 0 l0 -262 l-77 0 l0 262 Z" /><glyph glyph-name="" unicode="&#x201c;" d="M367 701 l79 0 l0 -265 l-79 0 l0 265 ZM554 701 l78 0 l0 -265 l-78 0 l0 265 Z" /><glyph glyph-name="" unicode="&#x201d;" d="M354 701 l105 0 l0 -265 l-105 0 l0 265 ZM539 701 l106 0 l0 -265 l-106 0 l0 265 Z" /><glyph glyph-name="" unicode="&#x2026;" d="M129 329 l79 0 l0 -79 l-79 0 l0 79 ZM393 329 l186 0 l0 -79 l-186 0 l0 79 ZM765 329 l106 0 l0 -79 l-106 0 l0 79 Z" /><glyph glyph-name="" unicode="&#x2030;" d="M115 142 l105 0 l0 107 l-105 0 l0 80 l105 0 l0 186 l-106 0 l0 -186 l-80 0 l0 186 l80 0 l0 106 l186 0 l0 -185 l106 0 l0 79 l80 0 l0 -79 l-80 0 l0 -107 l-106 0 l0 -187 l-80 0 l0 -184 l-105 0 l0 184 ZM406 63 l80 0 l0 79 l-80 0 l0 -78 l-106 0 l0 78 l106 0 l0 107 l186 0 l0 -105 l80 0 l0 105 l293 0 l0 -291 l-292 0 l0 105 l185 0 l0 79 l-186 0 l0 -79 l-80 0 l0 -105 l-186 0 l0 105 Z" /><glyph glyph-name="" unicode="&#x2032;" d="M460 618 l79 0 l0 -182 l-79 0 l0 182 Z" /><glyph glyph-name="" unicode="&#x2033;" d="M367 621 l265 0 l0 -184 l-78 0 l0 79 l-81 0 l0 -185 l-106 0 l0 290 Z" /><glyph glyph-name="" unicode="&#x203b;" d="M408 63 l185 0 l0 79 l105 0 l0 -79 l-105 0 l0 -105 l-185 0 l0 105 ZM699 63 l80 0 l0 -105 l-80 0 l0 105 ZM220 142 l106 0 l0 107 l81 0 l0 80 l107 0 l0 107 l79 0 l0 79 l186 0 l0 -79 l-186 0 l0 -107 l-79 0 l0 -80 l-107 0 l0 -107 l-81 0 l0 -78 l-106 0 l0 78 ZM514 249 l78 0 l0 -105 l-78 0 l0 105 ZM220 329 l106 0 l0 106 l81 0 l0 -106 l-81 0 l0 -79 l-106 0 l0 79 ZM699 329 l80 0 l0 -79 l-80 0 l0 79 ZM220 515 l106 0 l0 -79 l-106 0 l0 79 ZM408 621 l184 0 l0 -105 l-184 0 l0 105 Z" /><glyph glyph-name="" unicode="&#x2103;" d="M420 63 l372 0 l0 185 l79 0 l0 -185 l-79 0 l0 -105 l-372 0 l0 105 ZM314 435 l-78 0 l0 80 l78 0 l0 105 l477 0 l0 -105 l-371 0 l0 -451 l-106 0 l0 371 ZM792 515 l79 0 l0 -79 l-79 0 l0 79 ZM129 701 l185 0 l0 -80 l-80 0 l0 -105 l-105 0 l0 185 Z" /><glyph glyph-name="" unicode="&#x2116;" d="M129 620 l79 0 l0 -105 l106 0 l0 -186 l-106 0 l0 -371 l-79 0 l0 662 ZM393 142 l-78 0 l0 187 l78 0 l0 291 l108 0 l0 -291 l78 0 l0 106 l292 0 l0 -372 l-106 0 l0 -105 l-78 0 l0 105 l78 0 l0 266 l-186 0 l0 -187 l-78 0 l0 -184 l-108 0 l0 184 ZM581 142 l105 0 l0 -78 l-105 0 l0 78 Z" /><glyph glyph-name="" unicode="&#x2160;" d="M407 802 l186 0 l0 -847 l-186 0 l0 847 Z" /><glyph glyph-name="" unicode="&#x2161;" d="M314 805 l79 0 l0 -850 l-79 0 l0 850 ZM580 805 l105 0 l0 -850 l-105 0 l0 850 Z" /><glyph glyph-name="" unicode="&#x2162;" d="M221 806 l558 0 l0 -851 l-558 0 l0 851 Z" /><glyph glyph-name="" unicode="&#x2163;" d="M129 805 l290 0 l0 -292 l-105 0 l0 185 l-80 0 l0 -743 l-105 0 l0 850 ZM501 140 l105 0 l0 188 l80 0 l0 371 l106 0 l0 106 l79 0 l0 -187 l-79 0 l0 -290 l-106 0 l0 -267 l-80 0 l0 -106 l-105 0 l0 185 ZM420 512 l80 0 l0 -370 l-80 0 l0 370 Z" /><glyph glyph-name="" unicode="&#x2164;" d="M407 247 l187 0 l0 266 l79 0 l0 293 l106 0 l0 -293 l-106 0 l0 -266 l-79 0 l0 -292 l-187 0 l0 292 ZM301 512 l106 0 l0 -264 l-106 0 l0 264 ZM221 806 l79 0 l0 -293 l-79 0 l0 293 Z" /><glyph glyph-name="" unicode="&#x2165;" d="M420 61 l-105 0 l0 265 l105 0 l0 -79 l81 0 l0 265 l105 0 l0 293 l265 0 l0 -850 l-79 0 l0 743 l-106 0 l0 -186 l-80 0 l0 -265 l-105 0 l0 -292 l-81 0 l0 106 ZM236 618 l78 0 l0 -290 l-78 0 l0 290 ZM129 805 l105 0 l0 -187 l-105 0 l0 187 Z" /><glyph glyph-name="" unicode="&#x2166;" d="M327 140 l80 0 l0 292 l107 0 l0 373 l345 0 l0 -850 l-159 0 l0 743 l-106 0 l0 -266 l-80 0 l0 -292 l-107 0 l0 -185 l-80 0 l0 185 ZM222 512 l105 0 l0 -370 l-105 0 l0 370 ZM141 805 l80 0 l0 -292 l-80 0 l0 292 Z" /><glyph glyph-name="" unicode="&#x2167;" d="M260 140 l-78 0 l0 292 l78 0 l0 -185 l107 0 l0 265 l80 0 l0 293 l186 0 l0 -106 l106 0 l0 -638 l-106 0 l0 -106 l-80 0 l0 557 l-106 0 l0 -265 l-80 0 l0 -292 l-107 0 l0 185 ZM820 805 l105 0 l0 -850 l-105 0 l0 850 ZM75 805 l105 0 l0 -371 l-105 0 l0 371 Z" /><glyph glyph-name="" unicode="&#x2168;" d="M129 805 l105 0 l0 -743 l80 0 l0 78 l106 0 l0 188 l81 0 l0 184 l105 0 l0 106 l80 0 l0 187 l185 0 l0 -106 l-79 0 l0 -81 l-106 0 l0 -371 l-80 0 l0 79 l-105 0 l0 -186 l-81 0 l0 -185 l-291 0 l0 850 ZM792 61 l79 0 l0 -106 l-79 0 l0 106 ZM687 245 l104 0 l0 -183 l-104 0 l0 183 ZM420 618 l-105 0 l0 187 l105 0 l0 -106 l80 0 l0 -186 l-80 0 l0 105 Z" /><glyph glyph-name="" unicode="&#x2169;" d="M221 140 l79 0 l0 107 l107 0 l0 266 l-106 0 l0 186 l106 0 l0 -81 l80 0 l0 -105 l107 0 l0 186 l79 0 l0 107 l106 0 l0 -107 l-106 0 l0 -186 l-79 0 l0 -266 l-187 0 l0 -107 l-107 0 l0 -185 l-79 0 l0 185 ZM673 61 l-79 0 l0 186 l79 0 l0 -107 l106 0 l0 -185 l-106 0 l0 106 ZM221 806 l79 0 l0 -105 l-79 0 l0 105 Z" /><glyph glyph-name="" unicode="&#x216a;" d="M129 61 l105 0 l0 186 l80 0 l0 371 l81 0 l0 -105 l106 0 l0 186 l78 0 l0 106 l107 0 l0 -187 l-107 0 l0 -106 l-78 0 l0 -184 l-106 0 l0 -81 l-81 0 l0 -186 l-80 0 l0 -106 l-105 0 l0 106 ZM581 140 l105 0 l0 -78 l81 0 l0 743 l104 0 l0 -850 l-290 0 l0 185 ZM501 326 l78 0 l0 -184 l-78 0 l0 184 ZM234 699 l-105 0 l0 106 l185 0 l0 -187 l-80 0 l0 81 Z" /><glyph glyph-name="" unicode="&#x216b;" d="M129 140 l79 0 l0 188 l106 0 l0 184 l81 0 l0 106 l106 0 l0 187 l370 0 l0 -850 l-290 0 l0 106 l105 0 l0 637 l-107 0 l0 -80 l-78 0 l0 -186 l-106 0 l0 -104 l-81 0 l0 -188 l-106 0 l0 -185 l-79 0 l0 185 ZM501 140 l-106 0 l0 186 l106 0 l0 -79 l78 0 l0 -185 l-78 0 l0 78 ZM208 698 l106 0 l0 -185 l-106 0 l0 185 ZM129 805 l79 0 l0 -106 l-79 0 l0 106 Z" /><glyph glyph-name="" unicode="&#x2170;" d="M408 615 l184 0 l0 -660 l-184 0 l0 660 ZM408 801 l184 0 l0 -104 l-184 0 l0 104 Z" /><glyph glyph-name="" unicode="&#x2171;" d="M314 618 l105 0 l0 -663 l-105 0 l0 663 ZM605 618 l80 0 l0 -663 l-80 0 l0 663 ZM314 805 l105 0 l0 -106 l-105 0 l0 106 ZM605 805 l80 0 l0 -106 l-80 0 l0 106 Z" /><glyph glyph-name="" unicode="&#x2172;" d="M314 618 l371 0 l0 -663 l-371 0 l0 663 ZM314 805 l371 0 l0 -106 l-371 0 l0 106 Z" /><glyph glyph-name="" unicode="&#x2173;" d="M234 618 l186 0 l0 -184 l-106 0 l0 -479 l-80 0 l0 663 ZM500 140 l81 0 l0 188 l106 0 l0 290 l78 0 l0 -290 l-78 0 l0 -188 l-106 0 l0 -185 l-81 0 l0 185 ZM422 432 l78 0 l0 -290 l-78 0 l0 290 ZM234 806 l80 0 l0 -105 l-80 0 l0 105 Z" /><glyph glyph-name="" unicode="&#x2174;" d="M407 247 l187 0 l0 266 l106 0 l0 105 l79 0 l0 -184 l-79 0 l0 -187 l-106 0 l0 -292 l-187 0 l0 292 ZM327 434 l-106 0 l0 184 l106 0 l0 -105 l80 0 l0 -265 l-80 0 l0 186 Z" /><glyph glyph-name="" unicode="&#x2175;" d="M407 61 l-79 0 l0 265 l79 0 l0 -184 l106 0 l0 292 l81 0 l0 184 l185 0 l0 -663 l-79 0 l0 477 l-106 0 l0 -292 l-81 0 l0 -185 l-106 0 l0 106 ZM221 618 l106 0 l0 -290 l-106 0 l0 290 ZM700 806 l79 0 l0 -105 l-79 0 l0 105 Z" /><glyph glyph-name="" unicode="&#x2176;" d="M315 140 l80 0 l0 188 l106 0 l0 290 l80 0 l0 -290 l-80 0 l0 -267 l-106 0 l0 -106 l-80 0 l0 185 ZM687 618 l184 0 l0 -663 l-184 0 l0 663 ZM209 432 l106 0 l0 -290 l-106 0 l0 290 ZM129 618 l79 0 l0 -184 l-79 0 l0 184 ZM687 805 l184 0 l0 -106 l-184 0 l0 106 Z" /><glyph glyph-name="" unicode="&#x2177;" d="M607 618 l264 0 l0 -663 l-264 0 l0 663 ZM236 247 l78 0 l0 81 l106 0 l0 290 l80 0 l0 -290 l-80 0 l0 -266 l-184 0 l0 185 ZM129 618 l105 0 l0 -371 l-105 0 l0 371 ZM607 805 l264 0 l0 -106 l-264 0 l0 106 Z" /><glyph glyph-name="" unicode="&#x2178;" d="M221 618 l186 0 l0 -105 l-106 0 l0 -451 l106 0 l0 185 l80 0 l0 81 l-80 0 l0 184 l80 0 l0 -78 l107 0 l0 79 l79 0 l0 105 l106 0 l0 -184 l-106 0 l0 -106 l-79 0 l0 -81 l79 0 l0 -107 l106 0 l0 -185 l-106 0 l0 106 l-79 0 l0 79 l-107 0 l0 -79 l-80 0 l0 -106 l-186 0 l0 663 ZM221 806 l79 0 l0 -105 l-79 0 l0 105 Z" /><glyph glyph-name="" unicode="&#x2179;" d="M221 61 l79 0 l0 186 l107 0 l0 187 l187 0 l0 79 l79 0 l0 105 l106 0 l0 -105 l-106 0 l0 -79 l-79 0 l0 -187 l78 0 l0 -185 l-78 0 l0 78 l-187 0 l0 -79 l-107 0 l0 -106 l-79 0 l0 106 ZM673 61 l106 0 l0 -106 l-106 0 l0 106 ZM300 513 l-79 0 l0 105 l186 0 l0 -184 l-107 0 l0 79 Z" /><glyph glyph-name="" unicode="&#x2190;" d="M115 249 l-79 0 l0 80 l79 0 l0 106 l106 0 l0 -106 l744 0 l0 -80 l-744 0 l0 -105 l-106 0 l0 105 Z" /><glyph glyph-name="" unicode="&#x2191;" d="M460 515 l-105 0 l0 105 l105 0 l0 79 l185 0 l0 -184 l-105 0 l0 -557 l-80 0 l0 557 Z" /><glyph glyph-name="" unicode="&#x2192;" d="M700 249 l-664 0 l0 80 l664 0 l0 106 l81 0 l0 -106 l184 0 l0 -80 l-184 0 l0 -105 l-81 0 l0 105 Z" /><glyph glyph-name="" unicode="&#x2193;" d="M408 698 l79 0 l0 -635 l105 0 l0 -105 l-184 0 l0 740 Z" /><glyph glyph-name="" unicode="&#x2208;" d="M367 329 l265 0 l0 -80 l-185 0 l0 -107 l185 0 l0 -184 l-265 0 l0 371 Z" /><glyph glyph-name="" unicode="&#x220f;" d="M236 623 l-107 0 l0 79 l742 0 l0 -79 l-78 0 l0 -745 l-106 0 l0 743 l-372 0 l0 -743 l-79 0 l0 745 Z" /><glyph glyph-name="" unicode="&#x2211;" d="M221 -42 l79 0 l0 186 l107 0 l0 106 l79 0 l0 79 l107 0 l0 -79 l-107 0 l0 -106 l-79 0 l0 -186 l372 0 l0 -80 l-558 0 l0 80 ZM407 436 l79 0 l0 -105 l-79 0 l0 105 ZM300 516 l-79 0 l0 107 l558 0 l0 -107 l-372 0 l0 -79 l-107 0 l0 79 Z" /><glyph glyph-name="" unicode="&#x221a;" d="M407 64 l81 0 l0 80 l106 0 l0 187 l79 0 l0 185 l107 0 l0 107 l80 0 l0 79 l106 0 l0 -79 l-106 0 l0 -107 l-80 0 l0 -185 l-107 0 l0 -187 l-79 0 l0 -186 l-106 0 l0 -80 l-81 0 l0 186 ZM301 249 l106 0 l0 -184 l-106 0 l0 184 ZM223 329 l78 0 l0 -79 l-78 0 l0 79 ZM35 436 l80 0 l0 80 l106 0 l0 -185 l-186 0 l0 105 Z" /><glyph glyph-name="" unicode="&#x221d;" d="M300 142 l107 0 l0 107 l79 0 l0 80 l107 0 l0 106 l78 0 l0 -106 l-78 0 l0 -187 l-186 0 l0 -78 l-107 0 l0 78 ZM593 142 l186 0 l0 -78 l-186 0 l0 78 ZM220 435 l266 0 l0 -106 l-187 0 l0 -185 l-79 0 l0 291 Z" /><glyph glyph-name="" unicode="&#x221e;" d="M220 329 l187 0 l0 -80 l-106 0 l0 -105 l106 0 l0 105 l186 0 l0 80 l186 0 l0 -265 l-186 0 l0 78 l80 0 l0 107 l-80 0 l0 -107 l-186 0 l0 -78 l-187 0 l0 265 Z" /><glyph glyph-name="" unicode="&#x2220;" d="M275 142 l79 0 l0 107 l106 0 l0 80 l81 0 l0 186 l105 0 l0 -186 l-105 0 l0 -80 l-81 0 l0 -107 l-105 0 l0 -79 l370 0 l0 -105 l-450 0 l0 184 Z" /><glyph glyph-name="" unicode="&#x2225;" d="M129 64 l105 0 l0 186 l80 0 l0 186 l106 0 l0 187 l81 0 l0 79 l105 0 l0 -79 l-105 0 l0 -187 l-81 0 l0 -186 l-106 0 l0 -186 l-80 0 l0 -186 l-105 0 l0 186 ZM420 64 l81 0 l0 186 l105 0 l0 186 l80 0 l0 187 l106 0 l0 79 l79 0 l0 -79 l-79 0 l0 -187 l-106 0 l0 -186 l-80 0 l0 -186 l-105 0 l0 -186 l-81 0 l0 186 Z" /><glyph glyph-name="" unicode="&#x2227;" d="M220 142 l107 0 l0 294 l80 0 l0 185 l185 0 l0 -292 l-78 0 l0 106 l-107 0 l0 -293 l-80 0 l0 -184 l-107 0 l0 184 ZM701 63 l78 0 l0 -105 l-78 0 l0 105 ZM593 329 l106 0 l0 -265 l-106 0 l0 265 Z" /><glyph glyph-name="" unicode="&#x2228;" d="M408 142 l78 0 l0 107 l107 0 l0 374 l80 0 l0 79 l106 0 l0 -79 l-106 0 l0 -374 l-80 0 l0 -291 l-185 0 l0 184 ZM301 435 l106 0 l0 -291 l-106 0 l0 291 ZM220 702 l80 0 l0 -266 l-80 0 l0 266 Z" /><glyph glyph-name="" unicode="&#x2229;" d="M461 509 l77 0 l0 -445 l-77 0 l0 445 Z" /><glyph glyph-name="" unicode="&#x222a;" d="M314 63 l371 0 l0 -105 l-371 0 l0 105 Z" /><glyph glyph-name="" unicode="&#x222b;" d="M408 618 l184 0 l0 -105 l-78 0 l0 -740 l-106 0 l0 845 Z" /><glyph glyph-name="" unicode="&#x222e;" d="M408 618 l184 0 l0 -105 l-104 0 l0 -184 l104 0 l0 -265 l-105 0 l0 -291 l-79 0 l0 845 Z" /><glyph glyph-name="" unicode="&#x2234;" d="M220 63 l80 0 l0 -105 l-80 0 l0 105 ZM673 63 l106 0 l0 -105 l-106 0 l0 105 ZM408 435 l184 0 l0 -106 l-184 0 l0 106 Z" /><glyph glyph-name="" unicode="&#x2235;" d="M408 63 l184 0 l0 -105 l-184 0 l0 105 ZM220 435 l80 0 l0 -106 l-80 0 l0 106 ZM673 435 l106 0 l0 -106 l-106 0 l0 106 Z" /><glyph glyph-name="" unicode="&#x2236;" d="M407 142 l186 0 l0 -78 l-186 0 l0 78 ZM407 513 l186 0 l0 -78 l-186 0 l0 78 Z" /><glyph glyph-name="" unicode="&#x2237;" d="M314 142 l79 0 l0 -78 l-79 0 l0 78 ZM580 142 l105 0 l0 -78 l-105 0 l0 78 ZM580 435 l105 0 l0 -106 l-105 0 l0 106 Z" /><glyph glyph-name="" unicode="&#x223d;" d="M129 329 l105 0 l0 -79 l267 0 l0 79 l291 0 l0 -80 l-291 0 l0 -105 l-372 0 l0 185 ZM793 249 l78 0 l0 -105 l-78 0 l0 105 Z" /><glyph glyph-name="" unicode="&#x2248;" d="M220 329 l106 0 l0 107 l81 0 l0 -107 l-80 0 l0 -79 l80 0 l0 79 l372 0 l0 -185 l-559 0 l0 185 Z" /><glyph glyph-name="" unicode="&#x224c;" d="M129 63 l79 0 l0 79 l559 0 l0 -79 l104 0 l0 -105 l-742 0 l0 105 ZM208 329 l187 0 l0 106 l184 0 l0 80 l186 0 l0 -80 l-186 0 l0 -106 l-184 0 l0 -80 l-187 0 l0 80 ZM767 435 l104 0 l0 -186 l-104 0 l0 186 ZM129 515 l79 0 l0 -186 l-79 0 l0 186 Z" /><glyph glyph-name="" unicode="&#x2260;" d="M220 63 l79 0 l0 79 l-79 0 l0 107 l79 0 l0 80 l187 0 l0 107 l107 0 l0 80 l80 0 l0 105 l106 0 l0 -105 l-106 0 l0 -80 l-80 0 l0 -107 l-106 0 l0 -79 l106 0 l0 79 l80 0 l0 -80 l106 0 l0 -107 l-372 0 l0 -79 l-108 0 l0 -105 l-79 0 l0 105 Z" /><glyph glyph-name="" unicode="&#x2261;" d="M301 249 l372 0 l0 -105 l-372 0 l0 105 ZM220 436 l559 0 l0 -105 l-559 0 l0 105 Z" /><glyph glyph-name="" unicode="&#x2264;" d="M514 63 l265 0 l0 -105 l-265 0 l0 105 ZM328 142 l79 0 l0 107 l292 0 l0 -107 l-185 0 l0 -78 l-186 0 l0 78 ZM220 329 l107 0 l0 107 l266 0 l0 79 l186 0 l0 -79 l-186 0 l0 -107 l-186 0 l0 -79 l-187 0 l0 79 Z" /><glyph glyph-name="" unicode="&#x2265;" d="M220 63 l294 0 l0 79 l-294 0 l0 107 l372 0 l0 80 l-184 0 l0 106 l293 0 l0 -106 l78 0 l0 -80 l-186 0 l0 -107 l106 0 l0 -79 l-185 0 l0 -105 l-294 0 l0 105 ZM220 515 l187 0 l0 -79 l-187 0 l0 79 Z" /><glyph glyph-name="" unicode="&#x226e;" d="M314 63 l106 0 l0 79 l-107 0 l0 107 l-79 0 l0 80 l186 0 l0 107 l80 0 l0 80 l79 0 l0 105 l105 0 l0 -105 l-105 0 l0 -80 l107 0 l0 79 l79 0 l0 -79 l-79 0 l0 -107 l-186 0 l0 -187 l184 0 l0 -79 l-264 0 l0 -105 l-106 0 l0 105 ZM686 63 l79 0 l0 -105 l-79 0 l0 105 Z" /><glyph glyph-name="" unicode="&#x226f;" d="M220 63 l106 0 l0 79 l81 0 l0 187 l-80 0 l0 107 l187 0 l0 80 l79 0 l0 105 l106 0 l0 -105 l-106 0 l0 -187 l-79 0 l0 -185 l79 0 l0 185 l186 0 l0 -80 l-78 0 l0 -107 l-108 0 l0 -79 l-186 0 l0 -105 l-187 0 l0 105 ZM220 515 l106 0 l0 -79 l-106 0 l0 79 Z" /><glyph glyph-name="" unicode="&#x2299;" d="M315 63 l371 0 l0 186 l81 0 l0 80 l104 0 l0 -80 l-104 0 l0 -186 l-81 0 l0 -105 l-371 0 l0 105 ZM208 142 l106 0 l0 -78 l-106 0 l0 78 ZM129 515 l185 0 l0 105 l372 0 l0 -105 l-372 0 l0 -80 l-106 0 l0 -291 l-79 0 l0 371 ZM395 329 l184 0 l0 -80 l-184 0 l0 80 ZM687 515 l78 0 l0 -186 l-78 0 l0 186 Z" /><glyph glyph-name="" unicode="&#x22a5;" d="M314 63 l105 0 l0 372 l81 0 l0 -372 l185 0 l0 -105 l-371 0 l0 105 Z" /><glyph glyph-name="" unicode="&#x2312;" d="M767 249 l104 0 l0 -105 l-104 0 l0 105 ZM129 329 l185 0 l0 106 l372 0 l0 -106 l-372 0 l0 -79 l-185 0 l0 79 ZM687 329 l78 0 l0 -79 l-78 0 l0 79 Z" /><glyph glyph-name="" unicode="&#x2460;" d="M222 61 l559 0 l0 186 l79 0 l0 265 l105 0 l0 -265 l-105 0 l0 -186 l-79 0 l0 -106 l-559 0 l0 106 ZM116 140 l105 0 l0 -78 l-105 0 l0 78 ZM36 699 l79 0 l0 106 l664 0 l0 -106 l-664 0 l0 -557 l-79 0 l0 557 ZM408 512 l-106 0 l0 106 l184 0 l0 -476 l-78 0 l0 370 ZM781 698 l78 0 l0 -185 l-78 0 l0 185 Z" /><glyph glyph-name="" unicode="&#x2461;" d="M235 61 l78 0 l0 186 l108 0 l0 81 l80 0 l0 104 l78 0 l0 186 l-158 0 l0 -105 l-108 0 l0 105 l107 0 l0 80 l-292 0 l0 -556 l-79 0 l0 557 l79 0 l0 106 l637 0 l0 -106 l-80 0 l0 -371 l-184 0 l0 -81 l-80 0 l0 -107 l264 0 l0 -78 l81 0 l0 185 l107 0 l0 265 l78 0 l0 -265 l-78 0 l0 -186 l-107 0 l0 -106 l-531 0 l0 106 ZM129 140 l105 0 l0 -78 l-105 0 l0 78 ZM766 698 l105 0 l0 -185 l-105 0 l0 185 Z" /><glyph glyph-name="" unicode="&#x2462;" d="M222 61 l186 0 l0 79 l186 0 l0 188 l-186 0 l0 106 l186 0 l0 184 l-186 0 l0 -105 l-81 0 l0 185 l-186 0 l0 -556 l-105 0 l0 557 l105 0 l0 106 l638 0 l0 -106 l-78 0 l0 -559 l-107 0 l0 -78 l187 0 l0 185 l106 0 l0 265 l78 0 l0 -265 l-78 0 l0 -186 l-106 0 l0 -106 l-559 0 l0 106 ZM143 140 l78 0 l0 -78 l-78 0 l0 78 ZM327 247 l80 0 l0 -105 l-80 0 l0 105 ZM781 698 l105 0 l0 -185 l-105 0 l0 185 Z" /><glyph glyph-name="" unicode="&#x2463;" d="M222 61 l559 0 l0 186 l106 0 l0 265 l78 0 l0 -265 l-78 0 l0 -186 l-106 0 l0 -106 l-559 0 l0 106 ZM143 140 l78 0 l0 -78 l-78 0 l0 78 ZM36 699 l105 0 l0 106 l638 0 l0 -106 l-185 0 l0 -371 l107 0 l0 -81 l-107 0 l0 -105 l-80 0 l0 105 l-185 0 l0 187 l79 0 l0 184 l106 0 l0 80 l-373 0 l0 -556 l-105 0 l0 557 ZM408 432 l0 -104 l106 0 l0 104 l-106 0 ZM781 698 l105 0 l0 -185 l-105 0 l0 185 Z" /><glyph glyph-name="" unicode="&#x2464;" d="M222 61 l186 0 l0 79 l186 0 l0 292 l107 0 l0 -292 l-107 0 l0 -78 l187 0 l0 185 l106 0 l0 265 l78 0 l0 -265 l-78 0 l0 -186 l-106 0 l0 -106 l-559 0 l0 106 ZM143 140 l78 0 l0 -78 l-78 0 l0 78 ZM36 699 l105 0 l0 106 l638 0 l0 -106 l-78 0 l0 -81 l-293 0 l0 -106 l186 0 l0 -78 l-186 0 l0 -106 l-79 0 l0 370 l-188 0 l0 -556 l-105 0 l0 557 ZM329 247 l78 0 l0 -105 l-78 0 l0 105 ZM781 698 l105 0 l0 -185 l-105 0 l0 185 Z" /><glyph glyph-name="" unicode="&#x2465;" d="M222 61 l186 0 l0 79 l186 0 l0 292 l80 0 l0 -292 l-80 0 l0 -78 l187 0 l0 185 l79 0 l0 265 l105 0 l0 -265 l-105 0 l0 -186 l-79 0 l0 -106 l-559 0 l0 106 ZM116 140 l105 0 l0 -78 l-105 0 l0 78 ZM36 699 l79 0 l0 106 l664 0 l0 -106 l-105 0 l0 -187 l-80 0 l0 -78 l-186 0 l0 -292 l-106 0 l0 476 l105 0 l0 80 l-292 0 l0 -556 l-79 0 l0 557 ZM408 618 l0 -105 l186 0 l0 105 l-186 0 ZM781 698 l78 0 l0 -185 l-78 0 l0 185 Z" /><glyph glyph-name="" unicode="&#x2466;" d="M222 61 l186 0 l0 267 l80 0 l0 184 l106 0 l0 106 l-292 0 l0 80 l-187 0 l0 -556 l-79 0 l0 557 l79 0 l0 106 l664 0 l0 -106 l-105 0 l0 -187 l-80 0 l0 -184 l-106 0 l0 -266 l293 0 l0 185 l79 0 l0 265 l105 0 l0 -265 l-105 0 l0 -186 l-79 0 l0 -106 l-559 0 l0 106 ZM116 140 l105 0 l0 -78 l-105 0 l0 78 ZM781 698 l78 0 l0 -185 l-78 0 l0 185 Z" /><glyph glyph-name="" unicode="&#x2467;" d="M222 61 l186 0 l0 79 l186 0 l0 186 l-186 0 l0 -184 l-106 0 l0 556 l-187 0 l0 -556 l-79 0 l0 557 l79 0 l0 106 l664 0 l0 -106 l-105 0 l0 -559 l-80 0 l0 -78 l187 0 l0 185 l79 0 l0 265 l105 0 l0 -265 l-105 0 l0 -186 l-79 0 l0 -106 l-559 0 l0 106 ZM116 140 l105 0 l0 -78 l-105 0 l0 78 ZM408 618 l0 -184 l186 0 l0 184 l-186 0 ZM781 698 l78 0 l0 -185 l-78 0 l0 185 Z" /><glyph glyph-name="" unicode="&#x2468;" d="M235 61 l186 0 l0 79 l185 0 l0 107 l-185 0 l0 -105 l-106 0 l0 105 l106 0 l0 81 l185 0 l0 290 l81 0 l0 -478 l-80 0 l0 -78 l159 0 l0 185 l107 0 l0 265 l79 0 l0 -265 l-79 0 l0 -186 l-107 0 l0 -106 l-531 0 l0 106 ZM129 140 l105 0 l0 -78 l-105 0 l0 78 ZM49 699 l79 0 l0 106 l638 0 l0 -106 l-160 0 l0 -81 l-185 0 l0 -290 l-106 0 l0 371 l-187 0 l0 -557 l-79 0 l0 557 ZM766 699 l105 0 l0 -186 l-105 0 l0 186 Z" /><glyph glyph-name="" unicode="&#x2469;" d="M223 61 l104 0 l0 451 l-187 0 l0 -370 l-105 0 l0 370 l105 0 l0 106 l187 0 l0 81 l-187 0 l0 -79 l-105 0 l0 79 l105 0 l0 106 l640 0 l0 -106 l106 0 l0 -187 l80 0 l0 -265 l-80 0 l0 -186 l-106 0 l0 -106 l-557 0 l0 106 ZM142 140 l79 0 l0 -78 l-79 0 l0 78 ZM407 140 l0 -78 l107 0 l0 78 l186 0 l0 107 l80 0 l0 265 l-80 0 l0 106 l-186 0 l0 -478 l-107 0 ZM701 140 l0 -78 l79 0 l0 78 l-79 0 ZM407 699 l0 -79 l106 0 l0 79 l-106 0 Z" /><glyph glyph-name="" unicode="&#x2474;" d="M115 140 l105 0 l0 -185 l-105 0 l0 185 ZM780 140 l80 0 l0 478 l106 0 l0 -478 l-106 0 l0 -185 l-80 0 l0 185 ZM35 699 l79 0 l0 106 l106 0 l0 -106 l-106 0 l0 -557 l-79 0 l0 557 ZM407 512 l-106 0 l0 106 l185 0 l0 -476 l-79 0 l0 370 ZM780 805 l78 0 l0 -185 l-78 0 l0 185 Z" /><glyph glyph-name="" unicode="&#x2475;" d="M115 140 l106 0 l0 -185 l-106 0 l0 185 ZM780 140 l80 0 l0 478 l106 0 l0 -478 l-106 0 l0 -185 l-80 0 l0 185 ZM301 247 l106 0 l0 81 l80 0 l0 106 l107 0 l0 184 l-187 0 l0 -105 l-106 0 l0 186 l372 0 l0 -371 l-186 0 l0 -81 l-80 0 l0 -107 l266 0 l0 -78 l-372 0 l0 185 ZM35 699 l79 0 l0 106 l107 0 l0 -106 l-107 0 l0 -557 l-79 0 l0 557 ZM780 805 l78 0 l0 -185 l-78 0 l0 185 Z" /><glyph glyph-name="" unicode="&#x2476;" d="M115 140 l106 0 l0 -185 l-106 0 l0 185 ZM780 140 l80 0 l0 478 l106 0 l0 -478 l-106 0 l0 -185 l-80 0 l0 185 ZM301 247 l106 0 l0 -105 l187 0 l0 186 l-187 0 l0 106 l187 0 l0 184 l-187 0 l0 -105 l-106 0 l0 186 l372 0 l0 -637 l-372 0 l0 185 ZM35 699 l79 0 l0 106 l107 0 l0 -106 l-107 0 l0 -557 l-79 0 l0 557 ZM780 805 l78 0 l0 -185 l-78 0 l0 185 Z" /><glyph glyph-name="" unicode="&#x2477;" d="M129 140 l106 0 l0 -185 l-106 0 l0 185 ZM766 140 l107 0 l0 478 l79 0 l0 -478 l-79 0 l0 -185 l-107 0 l0 185 ZM49 699 l79 0 l0 106 l107 0 l0 -106 l-107 0 l0 -557 l-79 0 l0 557 ZM501 247 l-264 0 l0 81 l78 0 l0 106 l106 0 l0 184 l80 0 l0 81 l79 0 l0 -371 l107 0 l0 -81 l-107 0 l0 -105 l-79 0 l0 105 ZM421 432 l0 -104 l78 0 l0 104 l-78 0 ZM766 805 l105 0 l0 -185 l-105 0 l0 185 Z" /><glyph glyph-name="" unicode="&#x2478;" d="M142 140 l79 0 l0 -185 l-79 0 l0 185 ZM780 140 l106 0 l0 478 l80 0 l0 -478 l-80 0 l0 -185 l-106 0 l0 185 ZM328 247 l79 0 l0 -105 l187 0 l0 290 l106 0 l0 -292 l-106 0 l0 -78 l-266 0 l0 185 ZM35 699 l105 0 l0 106 l81 0 l0 -106 l-81 0 l0 -557 l-105 0 l0 557 ZM328 699 l372 0 l0 -81 l-293 0 l0 -106 l187 0 l0 -78 l-187 0 l0 -106 l-79 0 l0 371 ZM780 805 l105 0 l0 -185 l-105 0 l0 185 Z" /><glyph glyph-name="" unicode="&#x2479;" d="M142 140 l79 0 l0 -185 l-79 0 l0 185 ZM780 140 l106 0 l0 478 l80 0 l0 -478 l-80 0 l0 -185 l-106 0 l0 185 ZM407 140 l187 0 l0 292 l106 0 l0 -370 l-293 0 l0 78 ZM35 699 l105 0 l0 106 l81 0 l0 -106 l-81 0 l0 -557 l-105 0 l0 557 ZM328 699 l372 0 l0 -187 l-106 0 l0 -78 l-187 0 l0 -292 l-79 0 l0 557 ZM407 618 l0 -105 l187 0 l0 105 l-187 0 ZM780 805 l105 0 l0 -185 l-105 0 l0 185 Z" /><glyph glyph-name="" unicode="&#x247a;" d="M142 140 l79 0 l0 -185 l-79 0 l0 185 ZM780 140 l106 0 l0 478 l80 0 l0 -478 l-80 0 l0 -185 l-106 0 l0 185 ZM407 328 l107 0 l0 184 l80 0 l0 106 l-266 0 l0 81 l372 0 l0 -187 l-106 0 l0 -184 l-80 0 l0 -266 l-107 0 l0 266 ZM35 699 l105 0 l0 106 l81 0 l0 -106 l-81 0 l0 -557 l-105 0 l0 557 ZM780 805 l105 0 l0 -185 l-105 0 l0 185 Z" /><glyph glyph-name="" unicode="&#x247b;" d="M116 140 l105 0 l0 -185 l-105 0 l0 185 ZM780 140 l80 0 l0 478 l106 0 l0 -478 l-106 0 l0 -185 l-80 0 l0 185 ZM301 699 l372 0 l0 -637 l-372 0 l0 637 ZM35 699 l80 0 l0 106 l106 0 l0 -106 l-106 0 l0 -557 l-80 0 l0 557 ZM407 326 l0 -184 l187 0 l0 184 l-187 0 ZM407 618 l0 -184 l187 0 l0 184 l-187 0 ZM780 805 l80 0 l0 -185 l-80 0 l0 185 Z" /><glyph glyph-name="" unicode="&#x247c;" d="M116 140 l105 0 l0 -185 l-105 0 l0 185 ZM780 140 l80 0 l0 478 l106 0 l0 -478 l-106 0 l0 -185 l-80 0 l0 185 ZM301 247 l106 0 l0 81 l187 0 l0 290 l-187 0 l0 -290 l-106 0 l0 371 l372 0 l0 -559 l-79 0 l0 -78 l-293 0 l0 185 ZM35 699 l80 0 l0 106 l106 0 l0 -106 l-106 0 l0 -557 l-80 0 l0 557 ZM407 247 l0 -105 l187 0 l0 105 l-187 0 ZM780 805 l80 0 l0 -185 l-80 0 l0 185 Z" /><glyph glyph-name="" unicode="&#x247d;" d="M116 140 l105 0 l0 -185 l-105 0 l0 185 ZM780 61 l-292 0 l0 79 l185 0 l0 107 l107 0 l0 265 l80 0 l0 106 l106 0 l0 -478 l-106 0 l0 -185 l-80 0 l0 106 ZM301 512 l-186 0 l0 -370 l-80 0 l0 557 l80 0 l0 106 l106 0 l0 -106 l-105 0 l0 -79 l185 0 l0 79 l106 0 l0 -79 l81 0 l0 79 l292 0 l0 106 l80 0 l0 -187 l-80 0 l0 -105 l-107 0 l0 105 l-185 0 l0 -478 l-81 0 l0 -78 l-106 0 l0 450 ZM780 247 l0 -105 l80 0 l0 105 l-80 0 Z" /><glyph glyph-name="" unicode="&#x247e;" d="M129 140 l106 0 l0 -185 l-106 0 l0 185 ZM768 61 l-81 0 l0 451 l-185 0 l0 106 l185 0 l0 81 l81 0 l0 106 l105 0 l0 -187 l-105 0 l0 -476 l106 0 l0 476 l78 0 l0 -478 l-78 0 l0 -185 l-106 0 l0 106 ZM315 512 l-78 0 l0 106 l78 0 l0 81 l105 0 l0 -637 l-105 0 l0 450 ZM49 699 l80 0 l0 106 l106 0 l0 -106 l-106 0 l0 -557 l-80 0 l0 557 Z" /><glyph glyph-name="" unicode="&#x247f;" d="M143 140 l78 0 l0 -185 l-78 0 l0 185 ZM781 61 l-454 0 l0 451 l-186 0 l0 -370 l-105 0 l0 557 l105 0 l0 106 l80 0 l0 -106 l-78 0 l0 -79 l184 0 l0 78 l81 0 l0 -78 l106 0 l0 79 l267 0 l0 106 l105 0 l0 -187 l-105 0 l0 -290 l-187 0 l0 -81 l-80 0 l0 -105 l373 0 l0 476 l78 0 l0 -478 l-78 0 l0 -185 l-106 0 l0 106 ZM408 512 l0 -265 l106 0 l0 81 l80 0 l0 106 l106 0 l0 184 l-186 0 l0 -106 l-106 0 Z" /><glyph glyph-name="" unicode="&#x2480;" d="M143 140 l78 0 l0 -185 l-78 0 l0 185 ZM781 61 l-267 0 l0 79 l186 0 l0 107 l81 0 l0 81 l106 0 l0 290 l78 0 l0 -478 l-78 0 l0 -185 l-106 0 l0 106 ZM327 512 l-186 0 l0 -370 l-105 0 l0 557 l105 0 l0 106 l80 0 l0 -106 l-78 0 l0 -79 l184 0 l0 78 l81 0 l0 -78 l106 0 l0 79 l267 0 l0 106 l105 0 l0 -187 l-105 0 l0 -290 l-187 0 l0 106 l106 0 l0 184 l-186 0 l0 -106 l-106 0 l0 -265 l106 0 l0 -107 l-106 0 l0 -78 l-81 0 l0 450 ZM781 247 l0 -105 l105 0 l0 105 l-105 0 Z" /><glyph glyph-name="" unicode="&#x2481;" d="M143 140 l78 0 l0 -185 l-78 0 l0 185 ZM781 61 l-81 0 l0 186 l-292 0 l0 -185 l-81 0 l0 450 l-186 0 l0 -370 l-105 0 l0 557 l105 0 l0 106 l80 0 l0 -106 l-78 0 l0 -79 l184 0 l0 78 l81 0 l0 -264 l106 0 l0 78 l80 0 l0 106 l106 0 l0 81 l81 0 l0 106 l105 0 l0 -187 l-105 0 l0 -290 l106 0 l0 290 l78 0 l0 -478 l-78 0 l0 -185 l-106 0 l0 106 ZM781 247 l0 -105 l105 0 l0 105 l-105 0 ZM514 434 l0 -106 l186 0 l0 184 l-106 0 l0 -78 l-80 0 Z" /><glyph glyph-name="" unicode="&#x2482;" d="M143 140 l78 0 l0 -185 l-78 0 l0 185 ZM781 61 l-293 0 l0 79 l186 0 l0 107 l107 0 l0 81 l79 0 l0 290 l105 0 l0 -478 l-105 0 l0 -185 l-79 0 l0 106 ZM302 512 l-161 0 l0 -370 l-105 0 l0 557 l105 0 l0 106 l80 0 l0 -106 l-78 0 l0 -79 l159 0 l0 78 l106 0 l0 -78 l80 0 l0 79 l293 0 l0 106 l78 0 l0 -187 l-371 0 l0 -106 l186 0 l0 -78 l-186 0 l0 -106 l-80 0 l0 -81 l78 0 l0 -107 l-78 0 l0 -78 l-106 0 l0 450 ZM781 247 l0 -105 l78 0 l0 105 l-78 0 ZM675 432 l104 0 l0 -104 l-104 0 l0 104 Z" /><glyph glyph-name="" unicode="&#x2483;" d="M116 140 l105 0 l0 -185 l-105 0 l0 185 ZM781 61 l-293 0 l0 79 l186 0 l0 107 l107 0 l0 81 l79 0 l0 290 l105 0 l0 -478 l-105 0 l0 -185 l-79 0 l0 106 ZM302 512 l-187 0 l0 -370 l-79 0 l0 557 l79 0 l0 106 l106 0 l0 -106 l-105 0 l0 -79 l186 0 l0 78 l106 0 l0 -78 l80 0 l0 79 l293 0 l0 106 l78 0 l0 -187 l-371 0 l0 -184 l106 0 l0 78 l80 0 l0 -78 l-80 0 l0 -106 l-106 0 l0 -188 l-80 0 l0 -78 l-106 0 l0 450 ZM781 247 l0 -105 l78 0 l0 105 l-78 0 ZM675 432 l104 0 l0 -104 l-104 0 l0 104 Z" /><glyph glyph-name="" unicode="&#x2484;" d="M143 140 l78 0 l0 -185 l-78 0 l0 185 ZM781 140 l106 0 l0 478 l78 0 l0 -478 l-78 0 l0 -185 l-106 0 l0 185 ZM327 512 l-186 0 l0 -370 l-105 0 l0 557 l105 0 l0 106 l80 0 l0 -106 l-78 0 l0 -79 l184 0 l0 79 l454 0 l0 106 l105 0 l0 -187 l-105 0 l0 -106 l-81 0 l0 -184 l-106 0 l0 -266 l-80 0 l0 266 l80 0 l0 184 l106 0 l0 106 l-292 0 l0 -556 l-81 0 l0 450 Z" /><glyph glyph-name="" unicode="&#x2485;" d="M143 140 l78 0 l0 -185 l-78 0 l0 185 ZM781 61 l-267 0 l0 79 l186 0 l0 107 l81 0 l0 81 l106 0 l0 290 l78 0 l0 -478 l-78 0 l0 -185 l-106 0 l0 106 ZM327 512 l-186 0 l0 -370 l-105 0 l0 557 l105 0 l0 106 l80 0 l0 -106 l-78 0 l0 -79 l184 0 l0 78 l81 0 l0 -78 l106 0 l0 79 l267 0 l0 106 l105 0 l0 -187 l-105 0 l0 -290 l-267 0 l0 -188 l-106 0 l0 -78 l-81 0 l0 450 ZM781 247 l0 -105 l105 0 l0 105 l-105 0 ZM594 512 l0 -78 l106 0 l0 184 l-186 0 l0 -106 l80 0 Z" /><glyph glyph-name="" unicode="&#x2486;" d="M116 140 l105 0 l0 -185 l-105 0 l0 185 ZM781 140 l78 0 l0 186 l-78 0 l0 -186 ZM781 140 l-108 0 l0 -78 l-185 0 l0 78 l185 0 l0 107 l-79 0 l0 81 l79 0 l0 106 l108 0 l0 78 l79 0 l0 106 l105 0 l0 -478 l-105 0 l0 -185 l-79 0 l0 185 ZM300 512 l-185 0 l0 -370 l-79 0 l0 557 l79 0 l0 106 l106 0 l0 -106 l-105 0 l0 -79 l184 0 l0 78 l108 0 l0 -78 l80 0 l0 79 l293 0 l0 106 l78 0 l0 -187 l-78 0 l0 -105 l-108 0 l0 105 l-185 0 l0 -184 l106 0 l0 -106 l-186 0 l0 -81 l78 0 l0 -107 l-78 0 l0 -78 l-108 0 l0 450 Z" /><glyph glyph-name="" unicode="&#x2487;" d="M116 140 l105 0 l0 107 l79 0 l0 81 l108 0 l0 106 l78 0 l0 78 l-78 0 l0 106 l-108 0 l0 -105 l-78 0 l0 185 l266 0 l0 -78 l106 0 l0 79 l187 0 l0 106 l79 0 l0 -187 l105 0 l0 -478 l-105 0 l0 -185 l-79 0 l0 106 l-187 0 l0 79 l185 0 l0 478 l-185 0 l0 -478 l-106 0 l0 -79 l-267 0 l0 -106 l-105 0 l0 185 ZM36 699 l79 0 l0 106 l106 0 l0 -106 l-106 0 l0 -557 l-79 0 l0 557 ZM302 247 l0 -105 l184 0 l0 184 l-78 0 l0 -79 l-106 0 Z" /><glyph glyph-name="" unicode="&#x2488;" d="M407 512 l-187 0 l0 106 l187 0 l0 80 l79 0 l0 -637 l-79 0 l0 451 ZM673 139 l106 0 l0 -78 l-106 0 l0 78 Z" /><glyph glyph-name="" unicode="&#x2489;" d="M129 139 l79 0 l0 106 l106 0 l0 81 l79 0 l0 106 l107 0 l0 186 l-186 0 l0 -106 l-106 0 l0 185 l371 0 l0 -371 l-186 0 l0 -81 l-78 0 l0 -106 l264 0 l0 -78 l-450 0 l0 78 ZM765 139 l106 0 l0 -78 l-106 0 l0 78 Z" /><glyph glyph-name="" unicode="&#x248a;" d="M181 245 l79 0 l0 -105 l186 0 l0 186 l-185 0 l0 105 l185 0 l0 185 l-186 0 l0 -104 l-79 0 l0 185 l372 0 l0 -558 l-106 0 l0 -78 l-266 0 l0 184 ZM739 139 l79 0 l0 -78 l-79 0 l0 78 Z" /><glyph glyph-name="" unicode="&#x248b;" d="M420 245 l-291 0 l0 81 l105 0 l0 106 l80 0 l0 186 l106 0 l0 79 l81 0 l0 -371 l105 0 l0 -81 l-105 0 l0 -184 l-81 0 l0 184 ZM792 139 l79 0 l0 -78 l-79 0 l0 78 ZM315 431 l0 -105 l104 0 l0 105 l-104 0 Z" /><glyph glyph-name="" unicode="&#x248c;" d="M181 245 l79 0 l0 -105 l187 0 l0 291 l106 0 l0 -292 l-106 0 l0 -78 l-266 0 l0 184 ZM739 139 l79 0 l0 -78 l-79 0 l0 78 ZM181 697 l372 0 l0 -79 l-292 0 l0 -107 l185 0 l0 -80 l-186 0 l0 -105 l-79 0 l0 371 Z" /><glyph glyph-name="" unicode="&#x248d;" d="M234 326 l-105 0 l0 185 l105 0 l0 186 l345 0 l0 -186 l-78 0 l0 -79 l-186 0 l0 -292 l186 0 l0 291 l78 0 l0 -292 l-78 0 l0 -78 l-267 0 l0 265 ZM767 139 l104 0 l0 -78 l-104 0 l0 78 ZM236 511 l0 -79 l78 0 l0 79 l186 0 l0 107 l-186 0 l0 -107 l-78 0 Z" /><glyph glyph-name="" unicode="&#x248e;" d="M208 139 l106 0 l0 293 l81 0 l0 79 l105 0 l0 107 l-371 0 l0 79 l450 0 l0 -186 l-78 0 l0 -79 l-106 0 l0 -293 l-81 0 l0 -78 l-106 0 l0 78 ZM767 139 l104 0 l0 -78 l-104 0 l0 78 Z" /><glyph glyph-name="" unicode="&#x248f;" d="M208 245 l106 0 l0 -105 l186 0 l0 185 l-292 0 l0 -78 l-79 0 l0 79 l79 0 l0 371 l371 0 l0 -558 l-78 0 l0 -78 l-293 0 l0 184 ZM767 139 l104 0 l0 -78 l-104 0 l0 78 ZM315 618 l0 -186 l185 0 l0 186 l-185 0 Z" /><glyph glyph-name="" unicode="&#x2490;" d="M355 245 l105 0 l0 81 l81 0 l0 106 l106 0 l0 186 l78 0 l0 -479 l-78 0 l0 -78 l-292 0 l0 184 ZM461 245 l0 -105 l185 0 l0 185 l-105 0 l0 -80 l-80 0 ZM355 431 l105 0 l0 -105 l-105 0 l0 105 ZM275 618 l79 0 l0 80 l292 0 l0 -80 l-292 0 l0 -186 l-79 0 l0 186 Z" /><glyph glyph-name="" unicode="&#x2491;" d="M234 511 l-105 0 l0 107 l105 0 l0 79 l81 0 l0 -636 l-81 0 l0 450 ZM501 139 l186 0 l0 187 l106 0 l0 105 l78 0 l0 -105 l-78 0 l0 -187 l-106 0 l0 -78 l-186 0 l0 78 ZM422 618 l79 0 l0 79 l291 0 l0 -265 l-105 0 l0 186 l-186 0 l0 -478 l-79 0 l0 478 Z" /><glyph glyph-name="" unicode="&#x2492;" d="M234 511 l-105 0 l0 107 l105 0 l0 79 l81 0 l0 -636 l-81 0 l0 450 ZM606 511 l-105 0 l0 107 l105 0 l0 79 l81 0 l0 -636 l-81 0 l0 450 ZM793 139 l78 0 l0 -78 l-78 0 l0 78 Z" /><glyph glyph-name="" unicode="&#x2493;" d="M273 511 l-105 0 l0 107 l105 0 l0 79 l81 0 l0 -636 l-81 0 l0 450 ZM461 326 l184 0 l0 105 l81 0 l0 187 l106 0 l0 -187 l-106 0 l0 -105 l-81 0 l0 -81 l-105 0 l0 -106 l292 0 l0 -78 l-371 0 l0 265 ZM461 697 l264 0 l0 -79 l-186 0 l0 -106 l-78 0 l0 185 Z" /><glyph glyph-name="" unicode="&#x2494;" d="M234 511 l-105 0 l0 107 l105 0 l0 79 l81 0 l0 -636 l-81 0 l0 450 ZM422 245 l79 0 l0 -105 l186 0 l0 186 l-186 0 l0 106 l186 0 l0 186 l-186 0 l0 -106 l-79 0 l0 185 l343 0 l0 -558 l-78 0 l0 -78 l-265 0 l0 184 ZM767 139 l104 0 l0 -78 l-104 0 l0 78 Z" /><glyph glyph-name="" unicode="&#x2495;" d="M261 511 l-80 0 l0 107 l80 0 l0 79 l106 0 l0 -636 l-106 0 l0 450 ZM633 245 l-186 0 l0 186 l106 0 l0 187 l80 0 l0 79 l107 0 l0 -371 l78 0 l0 -81 l-78 0 l0 -105 l-107 0 l0 105 ZM554 431 l0 -105 l79 0 l0 105 l-79 0 Z" /><glyph glyph-name="" unicode="&#x2496;" d="M261 511 l-80 0 l0 107 l80 0 l0 79 l106 0 l0 -636 l-106 0 l0 450 ZM447 245 l106 0 l0 -105 l187 0 l0 291 l78 0 l0 -292 l-78 0 l0 -78 l-293 0 l0 184 ZM447 697 l371 0 l0 -79 l-264 0 l0 -107 l185 0 l0 -80 l-186 0 l0 -105 l-106 0 l0 371 Z" /><glyph glyph-name="" unicode="&#x2497;" d="M208 511 l-79 0 l0 107 l79 0 l0 79 l107 0 l0 -636 l-107 0 l0 450 ZM501 139 l186 0 l0 292 l78 0 l0 -292 l-78 0 l0 -78 l-186 0 l0 78 ZM767 139 l104 0 l0 -78 l-104 0 l0 78 ZM395 618 l106 0 l0 79 l264 0 l0 -186 l-78 0 l0 -79 l-186 0 l0 -292 l-106 0 l0 478 ZM501 618 l0 -106 l186 0 l0 106 l-186 0 Z" /><glyph glyph-name="" unicode="&#x2498;" d="M261 511 l-80 0 l0 107 l80 0 l0 79 l80 0 l0 -636 l-80 0 l0 450 ZM447 139 l79 0 l0 292 l107 0 l0 187 l-186 0 l0 79 l371 0 l0 -79 l-105 0 l0 -187 l-80 0 l0 -292 l-107 0 l0 -78 l-79 0 l0 78 Z" /><glyph glyph-name="" unicode="&#x2499;" d="M275 511 l-107 0 l0 107 l107 0 l0 79 l79 0 l0 -636 l-79 0 l0 450 ZM461 697 l371 0 l0 -636 l-371 0 l0 636 ZM540 325 l0 -185 l185 0 l0 185 l-185 0 ZM540 618 l0 -186 l185 0 l0 186 l-185 0 Z" /><glyph glyph-name="" unicode="&#x249a;" d="M236 511 l-107 0 l0 107 l107 0 l0 79 l79 0 l0 -636 l-79 0 l0 450 ZM422 245 l79 0 l0 81 l186 0 l0 292 l-186 0 l0 -292 l-79 0 l0 371 l370 0 l0 -558 l-105 0 l0 -78 l-265 0 l0 184 ZM793 139 l78 0 l0 -78 l-78 0 l0 78 ZM501 245 l0 -105 l186 0 l0 105 l-186 0 Z" /><glyph glyph-name="" unicode="&#x249b;" d="M36 245 l105 0 l0 81 l188 0 l0 106 l79 0 l0 186 l106 0 l0 80 l265 0 l0 -80 l-185 0 l0 -479 l-80 0 l0 -78 l-478 0 l0 184 ZM594 139 l187 0 l0 479 l105 0 l0 -479 l-105 0 l0 -78 l-187 0 l0 78 ZM887 139 l78 0 l0 -78 l-78 0 l0 78 ZM143 245 l0 -105 l371 0 l0 291 l-106 0 l0 -105 l-79 0 l0 -81 l-186 0 ZM36 618 l105 0 l0 80 l266 0 l0 -80 l-266 0 l0 -106 l-105 0 l0 106 Z" /><glyph glyph-name="" unicode="&#x2500;" d="M0 375 l1000 0 l0 -51 l-1000 0 l0 51 Z" /><glyph glyph-name="" unicode="&#x2501;" d="M0 406 l1000 0 l0 -113 l-1000 0 l0 113 Z" /><glyph glyph-name="" unicode="&#x2502;" d="M523 852 l0 -993 l-50 0 l0 993 l50 0 Z" /><glyph glyph-name="" unicode="&#x2503;" d="M551 852 l0 -993 l-114 0 l0 993 l114 0 Z" /><glyph glyph-name="" unicode="&#x2504;" d="M55 375 l218 0 l0 -51 l-218 0 l0 51 ZM391 375 l218 0 l0 -51 l-218 0 l0 51 ZM727 375 l218 0 l0 -51 l-218 0 l0 51 Z" /><glyph glyph-name="" unicode="&#x2505;" d="M55 406 l218 0 l0 -113 l-218 0 l0 113 ZM391 406 l218 0 l0 -113 l-218 0 l0 113 ZM727 406 l218 0 l0 -113 l-218 0 l0 113 Z" /><glyph glyph-name="" unicode="&#x2506;" d="M469 797 l51 0 l0 -223 l-51 0 l0 223 ZM520 461 l0 -223 l-51 0 l0 223 l51 0 ZM520 125 l0 -215 l-51 0 l0 215 l51 0 Z" /><glyph glyph-name="" unicode="&#x2507;" d="M551 797 l0 -223 l-114 0 l0 223 l114 0 ZM551 461 l0 -223 l-114 0 l0 223 l114 0 ZM551 125 l0 -215 l-114 0 l0 215 l114 0 Z" /><glyph glyph-name="" unicode="&#x2508;" d="M47 375 l156 0 l0 -51 l-156 0 l0 51 ZM297 375 l156 0 l0 -51 l-156 0 l0 51 ZM547 375 l156 0 l0 -51 l-156 0 l0 51 ZM797 375 l156 0 l0 -51 l-156 0 l0 51 Z" /><glyph glyph-name="" unicode="&#x2509;" d="M47 406 l156 0 l0 -113 l-156 0 l0 113 ZM297 406 l156 0 l0 -113 l-156 0 l0 113 ZM547 406 l156 0 l0 -113 l-156 0 l0 113 ZM797 406 l156 0 l0 -113 l-156 0 l0 113 Z" /><glyph glyph-name="" unicode="&#x250a;" d="M520 805 l0 -157 l-51 0 l0 157 l51 0 ZM520 555 l0 -157 l-51 0 l0 157 l51 0 ZM520 305 l0 -157 l-51 0 l0 157 l51 0 ZM520 55 l0 -149 l-51 0 l0 149 l51 0 Z" /><glyph glyph-name="" unicode="&#x250b;" d="M551 805 l0 -157 l-114 0 l0 157 l114 0 ZM551 555 l0 -157 l-114 0 l0 157 l114 0 ZM551 305 l0 -157 l-114 0 l0 157 l114 0 ZM551 55 l0 -149 l-114 0 l0 149 l114 0 Z" /><glyph glyph-name="" unicode="&#x250c;" d="M1000 375 l0 -51 l-477 0 l0 -465 l-50 0 l0 516 l527 0 Z" /><glyph glyph-name="" unicode="&#x250d;" d="M1000 406 l0 -113 l-477 0 l0 -434 l-50 0 l0 547 l527 0 Z" /><glyph glyph-name="" unicode="&#x250e;" d="M1000 375 l0 -51 l-445 0 l0 -465 l-114 0 l0 516 l559 0 Z" /><glyph glyph-name="" unicode="&#x250f;" d="M1000 406 l0 -113 l-445 0 l0 -434 l-114 0 l0 547 l559 0 Z" /><glyph glyph-name="" unicode="&#x2510;" d="M0 324 l0 51 l523 0 l0 -516 l-50 0 l0 465 l-473 0 Z" /><glyph glyph-name="" unicode="&#x2511;" d="M0 406 l523 0 l0 -547 l-50 0 l0 434 l-473 0 l0 113 Z" /><glyph glyph-name="" unicode="&#x2512;" d="M0 375 l555 0 l0 -516 l-114 0 l0 465 l-441 0 l0 51 Z" /><glyph glyph-name="" unicode="&#x2513;" d="M0 406 l555 0 l0 -547 l-114 0 l0 434 l-441 0 l0 113 Z" /><glyph glyph-name="" unicode="&#x2514;" d="M523 852 l0 -477 l477 0 l0 -51 l-527 0 l0 528 l50 0 Z" /><glyph glyph-name="" unicode="&#x2515;" d="M523 852 l0 -446 l477 0 l0 -113 l-527 0 l0 559 l50 0 Z" /><glyph glyph-name="" unicode="&#x2516;" d="M555 852 l0 -477 l445 0 l0 -51 l-559 0 l0 528 l114 0 Z" /><glyph glyph-name="" unicode="&#x2517;" d="M555 852 l0 -446 l445 0 l0 -113 l-559 0 l0 559 l114 0 Z" /><glyph glyph-name="" unicode="&#x2518;" d="M0 375 l473 0 l0 477 l50 0 l0 -528 l-523 0 l0 51 Z" /><glyph glyph-name="" unicode="&#x2519;" d="M0 406 l473 0 l0 446 l50 0 l0 -559 l-523 0 l0 113 Z" /><glyph glyph-name="" unicode="&#x251a;" d="M0 375 l441 0 l0 477 l114 0 l0 -528 l-555 0 l0 51 Z" /><glyph glyph-name="" unicode="&#x251b;" d="M0 406 l441 0 l0 446 l114 0 l0 -559 l-555 0 l0 113 Z" /><glyph glyph-name="" unicode="&#x251c;" d="M523 852 l0 -477 l477 0 l0 -51 l-477 0 l0 -465 l-50 0 l0 993 l50 0 Z" /><glyph glyph-name="" unicode="&#x251d;" d="M523 852 l0 -446 l477 0 l0 -113 l-477 0 l0 -434 l-50 0 l0 993 l50 0 Z" /><glyph glyph-name="" unicode="&#x251e;" d="M555 852 l0 -477 l445 0 l0 -51 l-477 0 l0 -465 l-50 0 l0 496 l-32 0 l0 497 l114 0 Z" /><glyph glyph-name="" unicode="&#x251f;" d="M523 852 l0 -477 l477 0 l0 -51 l-445 0 l0 -465 l-114 0 l0 485 l32 0 l0 508 l50 0 Z" /><glyph glyph-name="" unicode="&#x2520;" d="M555 852 l0 -477 l445 0 l0 -51 l-445 0 l0 -465 l-114 0 l0 993 l114 0 Z" /><glyph glyph-name="" unicode="&#x2521;" d="M555 852 l0 -446 l445 0 l0 -113 l-477 0 l0 -434 l-50 0 l0 434 l-32 0 l0 559 l114 0 Z" /><glyph glyph-name="" unicode="&#x2522;" d="M523 852 l0 -446 l477 0 l0 -113 l-445 0 l0 -434 l-114 0 l0 547 l32 0 l0 446 l50 0 Z" /><glyph glyph-name="" unicode="&#x2523;" d="M555 852 l0 -446 l445 0 l0 -113 l-445 0 l0 -434 l-114 0 l0 993 l114 0 Z" /><glyph glyph-name="" unicode="&#x2524;" d="M523 852 l0 -993 l-50 0 l0 465 l-473 0 l0 51 l473 0 l0 477 l50 0 Z" /><glyph glyph-name="" unicode="&#x2525;" d="M523 852 l0 -993 l-50 0 l0 434 l-473 0 l0 113 l473 0 l0 446 l50 0 Z" /><glyph glyph-name="" unicode="&#x2526;" d="M555 852 l0 -497 l-32 0 l0 -496 l-50 0 l0 465 l-473 0 l0 51 l441 0 l0 477 l114 0 Z" /><glyph glyph-name="" unicode="&#x2527;" d="M523 852 l0 -508 l32 0 l0 -485 l-114 0 l0 465 l-441 0 l0 51 l473 0 l0 477 l50 0 Z" /><glyph glyph-name="" unicode="&#x2528;" d="M555 852 l0 -993 l-114 0 l0 465 l-441 0 l0 51 l441 0 l0 477 l114 0 Z" /><glyph glyph-name="" unicode="&#x2529;" d="M555 852 l0 -559 l-32 0 l0 -434 l-50 0 l0 434 l-473 0 l0 113 l441 0 l0 446 l114 0 Z" /><glyph glyph-name="" unicode="&#x252a;" d="M523 852 l0 -446 l32 0 l0 -547 l-114 0 l0 434 l-441 0 l0 113 l473 0 l0 446 l50 0 Z" /><glyph glyph-name="" unicode="&#x252b;" d="M555 852 l0 -993 l-114 0 l0 434 l-441 0 l0 113 l441 0 l0 446 l114 0 Z" /><glyph glyph-name="" unicode="&#x252c;" d="M0 375 l1000 0 l0 -51 l-477 0 l0 -465 l-50 0 l0 465 l-473 0 l0 51 Z" /><glyph glyph-name="" unicode="&#x252d;" d="M0 406 l523 0 l0 -31 l477 0 l0 -51 l-477 0 l0 -469 l-50 0 l0 438 l-473 0 l0 113 Z" /><glyph glyph-name="" unicode="&#x252e;" d="M0 375 l473 0 l0 31 l527 0 l0 -113 l-477 0 l0 -434 l-50 0 l0 465 l-473 0 l0 51 Z" /><glyph glyph-name="" unicode="&#x252f;" d="M0 406 l1000 0 l0 -113 l-477 0 l0 -434 l-50 0 l0 434 l-473 0 l0 113 Z" /><glyph glyph-name="" unicode="&#x2530;" d="M0 375 l1000 0 l0 -51 l-445 0 l0 -465 l-114 0 l0 465 l-441 0 l0 51 Z" /><glyph glyph-name="" unicode="&#x2531;" d="M0 406 l555 0 l0 -31 l445 0 l0 -51 l-445 0 l0 -465 l-114 0 l0 434 l-441 0 l0 113 Z" /><glyph glyph-name="" unicode="&#x2532;" d="M0 375 l441 0 l0 31 l559 0 l0 -113 l-445 0 l0 -434 l-114 0 l0 465 l-441 0 l0 51 Z" /><glyph glyph-name="" unicode="&#x2533;" d="M0 406 l1000 0 l0 -113 l-445 0 l0 -434 l-114 0 l0 434 l-441 0 l0 113 Z" /><glyph glyph-name="" unicode="&#x2534;" d="M0 375 l473 0 l0 477 l50 0 l0 -477 l477 0 l0 -51 l-1000 0 l0 51 Z" /><glyph glyph-name="" unicode="&#x2535;" d="M523 852 l0 -477 l477 0 l0 -51 l-477 0 l0 -31 l-523 0 l0 113 l473 0 l0 446 l50 0 Z" /><glyph glyph-name="" unicode="&#x2536;" d="M523 852 l0 -446 l477 0 l0 -113 l-527 0 l0 31 l-473 0 l0 51 l473 0 l0 477 l50 0 Z" /><glyph glyph-name="" unicode="&#x2537;" d="M523 852 l0 -446 l477 0 l0 -113 l-1000 0 l0 113 l473 0 l0 446 l50 0 Z" /><glyph glyph-name="" unicode="&#x2538;" d="M555 852 l0 -477 l445 0 l0 -51 l-1000 0 l0 51 l441 0 l0 477 l114 0 Z" /><glyph glyph-name="" unicode="&#x2539;" d="M555 852 l0 -477 l445 0 l0 -51 l-445 0 l0 -31 l-555 0 l0 113 l441 0 l0 446 l114 0 Z" /><glyph glyph-name="" unicode="&#x253a;" d="M555 852 l0 -446 l445 0 l0 -113 l-559 0 l0 31 l-441 0 l0 51 l441 0 l0 477 l114 0 Z" /><glyph glyph-name="" unicode="&#x253b;" d="M555 852 l0 -446 l445 0 l0 -113 l-1000 0 l0 113 l441 0 l0 446 l114 0 Z" /><glyph glyph-name="" unicode="&#x253c;" d="M523 852 l0 -477 l477 0 l0 -51 l-477 0 l0 -465 l-50 0 l0 465 l-473 0 l0 51 l473 0 l0 477 l50 0 Z" /><glyph glyph-name="" unicode="&#x253d;" d="M523 852 l0 -477 l477 0 l0 -51 l-477 0 l0 -465 l-50 0 l0 434 l-473 0 l0 113 l473 0 l0 446 l50 0 Z" /><glyph glyph-name="" unicode="&#x253e;" d="M523 852 l0 -446 l477 0 l0 -113 l-477 0 l0 -434 l-50 0 l0 465 l-473 0 l0 51 l473 0 l0 477 l50 0 Z" /><glyph glyph-name="" unicode="&#x253f;" d="M523 852 l0 -446 l477 0 l0 -113 l-477 0 l0 -434 l-50 0 l0 434 l-473 0 l0 113 l473 0 l0 446 l50 0 Z" /><glyph glyph-name="" unicode="&#x2540;" d="M555 852 l0 -477 l445 0 l0 -51 l-477 0 l0 -465 l-50 0 l0 465 l-473 0 l0 51 l441 0 l0 477 l114 0 Z" /><glyph glyph-name="" unicode="&#x2541;" d="M523 852 l0 -477 l477 0 l0 -51 l-445 0 l0 -465 l-114 0 l0 465 l-441 0 l0 51 l473 0 l0 477 l50 0 Z" /><glyph glyph-name="" unicode="&#x2542;" d="M555 852 l0 -477 l445 0 l0 -51 l-445 0 l0 -465 l-114 0 l0 465 l-441 0 l0 51 l441 0 l0 477 l114 0 Z" /><glyph glyph-name="" unicode="&#x2543;" d="M555 852 l0 -477 l445 0 l0 -51 l-477 0 l0 -465 l-50 0 l0 434 l-473 0 l0 113 l441 0 l0 446 l114 0 Z" /><glyph glyph-name="" unicode="&#x2544;" d="M555 852 l0 -446 l445 0 l0 -113 l-477 0 l0 -434 l-50 0 l0 465 l-473 0 l0 51 l441 0 l0 477 l114 0 Z" /><glyph glyph-name="" unicode="&#x2545;" d="M523 852 l0 -477 l477 0 l0 -51 l-445 0 l0 -465 l-114 0 l0 434 l-441 0 l0 113 l473 0 l0 446 l50 0 Z" /><glyph glyph-name="" unicode="&#x2546;" d="M523 852 l0 -446 l477 0 l0 -113 l-445 0 l0 -434 l-114 0 l0 465 l-441 0 l0 51 l473 0 l0 477 l50 0 Z" /><glyph glyph-name="" unicode="&#x2547;" d="M555 852 l0 -446 l445 0 l0 -113 l-477 0 l0 -434 l-50 0 l0 434 l-473 0 l0 113 l441 0 l0 446 l114 0 Z" /><glyph glyph-name="" unicode="&#x2548;" d="M523 852 l0 -446 l477 0 l0 -113 l-445 0 l0 -434 l-114 0 l0 434 l-441 0 l0 113 l473 0 l0 446 l50 0 Z" /><glyph glyph-name="" unicode="&#x2549;" d="M555 852 l0 -477 l445 0 l0 -51 l-445 0 l0 -465 l-114 0 l0 434 l-441 0 l0 113 l441 0 l0 446 l114 0 Z" /><glyph glyph-name="" unicode="&#x254a;" d="M555 852 l0 -446 l445 0 l0 -113 l-445 0 l0 -434 l-114 0 l0 465 l-441 0 l0 51 l441 0 l0 477 l114 0 Z" /><glyph glyph-name="" unicode="&#x254b;" d="M555 852 l0 -446 l445 0 l0 -113 l-445 0 l0 -434 l-114 0 l0 434 l-441 0 l0 113 l441 0 l0 446 l114 0 Z" /><glyph glyph-name="" unicode="&#x25a0;" d="M129 621 l742 0 l0 -743 l-742 0 l0 743 Z" /><glyph glyph-name="" unicode="&#x25a1;" d="M129 621 l742 0 l0 -743 l-742 0 l0 743 ZM208 515 l0 -556 l557 0 l0 556 l-557 0 Z" /><glyph glyph-name="" unicode="&#x25b2;" d="M220 142 l80 0 l0 187 l107 0 l0 186 l186 0 l0 -186 l80 0 l0 -187 l106 0 l0 -184 l-559 0 l0 184 Z" /><glyph glyph-name="" unicode="&#x25b3;" d="M181 63 l79 0 l0 186 l81 0 l0 186 l106 0 l0 78 l185 0 l0 -184 l-106 0 l0 106 l-79 0 l0 -186 l-106 0 l0 -185 l372 0 l0 78 l105 0 l0 -184 l-637 0 l0 105 ZM633 329 l79 0 l0 -187 l-79 0 l0 187 Z" /><glyph glyph-name="" unicode="&#x25c6;" d="M395 63 l-81 0 l0 79 l-106 0 l0 107 l-79 0 l0 80 l79 0 l0 106 l106 0 l0 80 l81 0 l0 105 l184 0 l0 -105 l107 0 l0 -80 l81 0 l0 -106 l104 0 l0 -80 l-104 0 l0 -107 l-81 0 l0 -79 l-107 0 l0 -105 l-184 0 l0 105 Z" /><glyph glyph-name="" unicode="&#x25c7;" d="M422 63 l184 0 l0 79 l80 0 l0 107 l81 0 l0 80 l104 0 l0 -80 l-104 0 l0 -107 l-81 0 l0 -79 l-80 0 l0 -105 l-184 0 l0 105 ZM315 142 l105 0 l0 -78 l-105 0 l0 78 ZM236 248 l78 0 l0 -104 l-78 0 l0 104 ZM129 329 l105 0 l0 106 l80 0 l0 80 l108 0 l0 105 l184 0 l0 -105 l-184 0 l0 -80 l-108 0 l0 -106 l-80 0 l0 -80 l-105 0 l0 80 ZM687 435 l78 0 l0 -106 l-78 0 l0 106 ZM607 515 l79 0 l0 -79 l-79 0 l0 79 Z" /><glyph glyph-name="" unicode="&#x25cb;" d="M315 63 l371 0 l0 186 l106 0 l0 80 l79 0 l0 -80 l-79 0 l0 -186 l-106 0 l0 -105 l-371 0 l0 105 ZM236 142 l78 0 l0 -78 l-78 0 l0 78 ZM129 515 l185 0 l0 105 l372 0 l0 -105 l-372 0 l0 -80 l-80 0 l0 -291 l-105 0 l0 371 ZM687 515 l104 0 l0 -186 l-104 0 l0 186 Z" /><glyph glyph-name="" unicode="&#x25ce;" d="M236 63 l78 0 l0 79 l108 0 l0 -78 l79 0 l0 78 l105 0 l0 107 l80 0 l0 80 l-80 0 l0 186 l-184 0 l0 -80 l-108 0 l0 -293 l-80 0 l0 -78 l-105 0 l0 451 l105 0 l0 105 l452 0 l0 -105 l107 0 l0 -186 l78 0 l0 -80 l-78 0 l0 -186 l-107 0 l0 -105 l-450 0 l0 105 ZM607 142 l0 -78 l79 0 l0 78 l-79 0 ZM236 515 l0 -79 l78 0 l0 79 l-78 0 Z" /><glyph glyph-name="" unicode="&#x25cf;" d="M314 63 l-80 0 l0 186 l-105 0 l0 80 l105 0 l0 186 l80 0 l0 105 l372 0 l0 -105 l107 0 l0 -186 l78 0 l0 -80 l-78 0 l0 -186 l-107 0 l0 -105 l-372 0 l0 105 Z" /><glyph glyph-name="" unicode="&#x2605;" d="M328 142 l79 0 l0 107 l-186 0 l0 80 l186 0 l0 186 l107 0 l0 -79 l80 0 l0 -107 l185 0 l0 -80 l-185 0 l0 -107 l105 0 l0 -184 l-105 0 l0 105 l-187 0 l0 -105 l-79 0 l0 184 Z" /><glyph glyph-name="" unicode="&#x2606;" d="M328 249 l79 0 l0 -185 l187 0 l0 78 l105 0 l0 -184 l-371 0 l0 291 ZM514 249 l80 0 l0 80 l185 0 l0 -80 l-185 0 l0 -105 l-80 0 l0 105 ZM221 329 l106 0 l0 107 l80 0 l0 79 l107 0 l0 -79 l-107 0 l0 -107 l-80 0 l0 -79 l-106 0 l0 79 ZM514 435 l79 0 l0 -106 l-79 0 l0 106 Z" /><glyph glyph-name="" unicode="&#x2640;" d="M500 63 l78 0 l0 -105 l-78 0 l0 105 ZM394 249 l184 0 l0 266 l-185 0 l0 -266 l-79 0 l0 371 l371 0 l0 -371 l-105 0 l0 -107 l-81 0 l0 -78 l-105 0 l0 185 Z" /><glyph glyph-name="" unicode="&#x2642;" d="M314 249 l105 0 l0 186 l-105 0 l0 80 l105 0 l0 105 l186 0 l0 -105 l-105 0 l0 -186 l105 0 l0 -80 l-184 0 l0 -185 l184 0 l0 184 l80 0 l0 -290 l-371 0 l0 291 ZM605 515 l80 0 l0 -79 l-80 0 l0 79 Z" /><glyph glyph-name="" unicode="&#x3000;" d="M540 -42 l105 0 l0 -80 l-105 0 l0 80 ZM461 63 l78 0 l0 -104 l-78 0 l0 104 ZM354 142 l105 0 l0 -78 l-105 0 l0 78 Z" /><glyph glyph-name="" unicode="&#x3001;" d="M354 142 l291 0 l0 -264 l-291 0 l0 264 ZM461 63 l0 -104 l78 0 l0 104 l-78 0 Z" /><glyph glyph-name="" unicode="&#x3002;" d="M421 329 l158 0 l0 -79 l-158 0 l0 79 Z" /><glyph glyph-name="" unicode="&#x3003;" d="M314 329 l105 0 l0 106 l81 0 l0 -106 l-81 0 l0 -185 l-105 0 l0 185 ZM500 329 l107 0 l0 106 l78 0 l0 -106 l-78 0 l0 -79 l-107 0 l0 79 Z" /><glyph glyph-name="" unicode="&#x3005;" d="M447 63 l-79 0 l0 79 l79 0 l0 107 l106 0 l0 80 l-292 0 l0 186 l106 0 l0 106 l80 0 l0 -106 l-79 0 l0 -79 l371 0 l0 -107 l-106 0 l0 -80 l-79 0 l0 -291 l-107 0 l0 105 Z" /><glyph glyph-name="" unicode="&#x3008;" d="M514 63 l78 0 l0 -185 l-78 0 l0 185 ZM408 513 l106 0 l0 185 l78 0 l0 -185 l-78 0 l0 -449 l-106 0 l0 449 Z" /><glyph glyph-name="" unicode="&#x3009;" d="M367 -42 l79 0 l0 186 l107 0 l0 291 l79 0 l0 -291 l-79 0 l0 -186 l-107 0 l0 -80 l-79 0 l0 80 ZM447 620 l106 0 l0 -184 l-106 0 l0 184 ZM367 701 l79 0 l0 -80 l-79 0 l0 80 Z" /><glyph glyph-name="" unicode="&#x300a;" d="M488 -42 l106 0 l0 106 l79 0 l0 -186 l-185 0 l0 80 ZM408 144 l79 0 l0 105 l105 0 l0 -185 l-105 0 l0 -105 l-79 0 l0 185 ZM327 436 l80 0 l0 187 l80 0 l0 79 l186 0 l0 -186 l-79 0 l0 -187 l-107 0 l0 -79 l-80 0 l0 -106 l-80 0 l0 292 ZM408 436 l0 -105 l79 0 l0 105 l-79 0 ZM488 621 l0 -105 l104 0 l0 105 l-104 0 Z" /><glyph glyph-name="" unicode="&#x300b;" d="M314 64 l105 0 l0 186 l81 0 l0 79 l107 0 l0 107 l78 0 l0 -292 l-78 0 l0 -80 l-107 0 l0 -186 l-186 0 l0 186 ZM500 249 l0 -105 l105 0 l0 105 l-105 0 ZM419 516 l-105 0 l0 186 l186 0 l0 -186 l105 0 l0 -80 l-105 0 l0 -105 l-81 0 l0 185 Z" /><glyph glyph-name="" unicode="&#x300c;" d="M367 699 l265 0 l0 -79 l-186 0 l0 -662 l-79 0 l0 741 Z" /><glyph glyph-name="" unicode="&#x300d;" d="M354 -42 l186 0 l0 663 l105 0 l0 -743 l-291 0 l0 80 Z" /><glyph glyph-name="" unicode="&#x300e;" d="M367 701 l265 0 l0 -80 l-79 0 l0 -743 l-186 0 l0 823 Z" /><glyph glyph-name="" unicode="&#x300f;" d="M355 -42 l105 0 l0 743 l185 0 l0 -823 l-290 0 l0 80 Z" /><glyph glyph-name="" unicode="&#x3010;" d="M407 699 l80 0 l0 -741 l106 0 l0 -80 l-186 0 l0 821 Z" /><glyph glyph-name="" unicode="&#x3011;" d="M408 -42 l79 0 l0 740 l105 0 l0 -820 l-184 0 l0 80 Z" /><glyph glyph-name="" unicode="&#x3013;" d="M234 249 l531 0 l0 -185 l-531 0 l0 185 ZM234 515 l531 0 l0 -79 l-531 0 l0 79 Z" /><glyph glyph-name="" unicode="&#x3014;" d="M488 -42 l104 0 l0 -80 l-104 0 l0 80 ZM408 698 l184 0 l0 -80 l-105 0 l0 -660 l-79 0 l0 740 Z" /><glyph glyph-name="" unicode="&#x3015;" d="M407 -42 l106 0 l0 662 l-106 0 l0 79 l186 0 l0 -741 l-80 0 l0 -80 l-106 0 l0 80 Z" /><glyph glyph-name="" unicode="&#x3016;" d="M447 695 l105 0 l0 -817 l-105 0 l0 817 Z" /><glyph glyph-name="" unicode="&#x3017;" d="M408 142 l106 0 l0 292 l-106 0 l0 264 l184 0 l0 -820 l-184 0 l0 264 Z" /><glyph glyph-name="" unicode="&#x3041;" d="M220 326 l80 0 l0 106 l107 0 l0 80 l-187 0 l0 106 l187 0 l0 80 l79 0 l0 -80 l187 0 l0 -186 l-80 0 l0 -106 l-107 0 l0 -187 l-186 0 l0 -78 l-80 0 l0 265 ZM593 139 l80 0 l0 292 l106 0 l0 -292 l-106 0 l0 -78 l-80 0 l0 78 ZM301 326 l0 -79 l106 0 l0 79 l79 0 l0 105 l-79 0 l0 -105 l-106 0 Z" /><glyph glyph-name="" unicode="&#x3042;" d="M129 247 l105 0 l0 185 l81 0 l0 80 l-186 0 l0 106 l293 0 l0 187 l79 0 l0 -187 l105 0 l0 80 l81 0 l0 -80 l-80 0 l0 -106 l80 0 l0 -80 l-81 0 l0 -185 l-105 0 l0 -186 l-186 0 l0 -106 l-186 0 l0 292 ZM607 61 l80 0 l0 79 l105 0 l0 188 l-105 0 l0 104 l184 0 l0 -371 l-78 0 l0 -106 l-186 0 l0 106 ZM236 247 l0 -185 l79 0 l0 78 l107 0 l0 107 l78 0 l0 79 l-78 0 l0 -79 l-186 0 ZM422 512 l0 -78 l78 0 l0 78 l-78 0 Z" /><glyph glyph-name="" unicode="&#x3043;" d="M354 245 l107 0 l0 81 l78 0 l0 -186 l-185 0 l0 105 ZM275 431 l79 0 l0 -184 l-79 0 l0 184 ZM726 511 l106 0 l0 -185 l-106 0 l0 185 ZM168 618 l105 0 l0 -186 l-105 0 l0 186 Z" /><glyph glyph-name="" unicode="&#x3044;" d="M236 245 l79 0 l0 -105 l107 0 l0 105 l78 0 l0 -106 l-78 0 l0 -78 l-186 0 l0 184 ZM129 618 l105 0 l0 -371 l-105 0 l0 371 ZM767 431 l104 0 l0 -184 l-104 0 l0 184 ZM687 618 l78 0 l0 -186 l-78 0 l0 186 Z" /><glyph glyph-name="" unicode="&#x3045;" d="M500 139 l78 0 l0 293 l-264 0 l0 79 l371 0 l0 -372 l-105 0 l0 -78 l-80 0 l0 78 ZM500 697 l185 0 l0 -79 l-185 0 l0 79 Z" /><glyph glyph-name="" unicode="&#x3046;" d="M514 61 l80 0 l0 186 l106 0 l0 185 l79 0 l0 -185 l-79 0 l0 -186 l-106 0 l0 -106 l-80 0 l0 106 ZM221 512 l478 0 l0 -78 l-478 0 l0 78 ZM594 699 l105 0 l0 -79 l-105 0 l0 79 ZM407 806 l186 0 l0 -105 l-186 0 l0 105 Z" /><glyph glyph-name="" unicode="&#x3047;" d="M221 139 l106 0 l0 106 l80 0 l0 187 l-79 0 l0 79 l265 0 l0 -79 l-79 0 l0 -106 l79 0 l0 -186 l-80 0 l0 105 l-106 0 l0 -106 l-80 0 l0 -78 l-106 0 l0 78 ZM594 139 l185 0 l0 -78 l-185 0 l0 78 ZM407 698 l186 0 l0 -80 l-186 0 l0 80 Z" /><glyph glyph-name="" unicode="&#x3048;" d="M553 61 l-106 0 l0 184 l-80 0 l0 -105 l-107 0 l0 -78 l-79 0 l0 78 l79 0 l0 186 l107 0 l0 106 l-186 0 l0 79 l372 0 l0 -79 l-106 0 l0 -106 l106 0 l0 -186 l79 0 l0 -79 l186 0 l0 -106 l-265 0 l0 106 ZM447 698 l106 0 l0 -80 l-106 0 l0 80 ZM367 804 l79 0 l0 -105 l-79 0 l0 105 Z" /><glyph glyph-name="" unicode="&#x3049;" d="M300 139 l-79 0 l0 187 l79 0 l0 372 l107 0 l0 -80 l80 0 l0 -106 l-80 0 l0 -80 l265 0 l0 -106 l-265 0 l0 -265 l-107 0 l0 78 ZM487 139 l107 0 l0 106 l79 0 l0 81 l106 0 l0 -187 l-185 0 l0 -78 l-107 0 l0 78 ZM594 618 l185 0 l0 -106 l-185 0 l0 106 Z" /><glyph glyph-name="" unicode="&#x304a;" d="M236 61 l78 0 l0 184 l-80 0 l0 -183 l-105 0 l0 185 l105 0 l0 81 l80 0 l0 104 l-185 0 l0 80 l185 0 l0 293 l106 0 l0 -187 l80 0 l0 -106 l-80 0 l0 -78 l266 0 l0 184 l185 0 l0 -106 l-79 0 l0 -450 l-291 0 l0 78 l185 0 l0 186 l-266 0 l0 -371 l-184 0 l0 106 Z" /><glyph glyph-name="" unicode="&#x304b;" d="M88 139 l80 0 l0 106 l106 0 l0 187 l-105 0 l0 80 l185 0 l0 186 l106 0 l0 -186 l186 0 l0 -373 l-106 0 l0 -78 l-186 0 l0 78 l186 0 l0 292 l-186 0 l0 -186 l-80 0 l0 -184 l-186 0 l0 78 ZM805 511 l107 0 l0 -185 l-107 0 l0 185 ZM726 618 l78 0 l0 -106 l-78 0 l0 106 Z" /><glyph glyph-name="" unicode="&#x304c;" d="M35 139 l107 0 l0 106 l79 0 l0 187 l-186 0 l0 80 l293 0 l0 186 l79 0 l0 -186 l187 0 l0 106 l106 0 l0 -106 l-106 0 l0 -373 l-80 0 l0 -78 l-186 0 l0 78 l186 0 l0 292 l-186 0 l0 -186 l-107 0 l0 -184 l-186 0 l0 78 ZM780 431 l106 0 l0 -105 l-106 0 l0 105 ZM701 511 l79 0 l0 -79 l-79 0 l0 79 ZM780 698 l108 0 l0 107 l78 0 l0 -107 l-78 0 l0 -80 l-108 0 l0 80 Z" /><glyph glyph-name="" unicode="&#x304d;" d="M328 61 l265 0 l0 -106 l-265 0 l0 106 ZM221 247 l106 0 l0 187 l187 0 l0 184 l-107 0 l0 -105 l-79 0 l0 105 l79 0 l0 188 l107 0 l0 -107 l185 0 l0 -81 l-105 0 l0 -105 l185 0 l0 -79 l-79 0 l0 -106 l-106 0 l0 -81 l-267 0 l0 -185 l-106 0 l0 185 ZM594 247 l106 0 l0 79 l79 0 l0 -184 l-185 0 l0 105 ZM514 432 l0 -104 l79 0 l0 104 l-79 0 Z" /><glyph glyph-name="" unicode="&#x304e;" d="M208 61 l292 0 l0 -106 l-292 0 l0 106 ZM129 247 l185 0 l0 81 l-185 0 l0 104 l264 0 l0 80 l-185 0 l0 106 l106 0 l0 81 l-106 0 l0 106 l185 0 l0 -106 l186 0 l0 106 l292 0 l0 -106 l-106 0 l0 -81 l-79 0 l0 80 l-107 0 l0 -80 l-78 0 l0 -106 l185 0 l0 -80 l-105 0 l0 -104 l105 0 l0 -186 l-185 0 l0 103 l-187 0 l0 -105 l-106 0 l0 -78 l-79 0 l0 185 ZM393 432 l0 -104 l107 0 l0 104 l-107 0 Z" /><glyph glyph-name="" unicode="&#x304f;" d="M500 140 l107 0 l0 -79 l78 0 l0 -106 l-185 0 l0 185 ZM419 247 l-105 0 l0 265 l105 0 l0 106 l81 0 l0 187 l105 0 l0 -187 l-105 0 l0 -186 l-79 0 l0 -104 l79 0 l0 -186 l-81 0 l0 105 Z" /><glyph glyph-name="" unicode="&#x3050;" d="M408 140 l78 0 l0 -79 l106 0 l0 -106 l-184 0 l0 185 ZM299 247 l-79 0 l0 266 l79 0 l0 107 l108 0 l0 186 l79 0 l0 -186 l-79 0 l0 -186 l-107 0 l0 -106 l107 0 l0 -186 l-108 0 l0 105 ZM593 620 l80 0 l0 79 l106 0 l0 -79 l-106 0 l0 -107 l-80 0 l0 107 Z" /><glyph glyph-name="" unicode="&#x3051;" d="M501 61 l105 0 l0 186 l80 0 l0 185 l-264 0 l0 80 l184 0 l0 186 l80 0 l0 -186 l185 0 l0 -80 l-78 0 l0 -185 l-107 0 l0 -186 l-80 0 l0 -106 l-105 0 l0 106 ZM129 698 l105 0 l0 -451 l80 0 l0 -185 l-185 0 l0 636 Z" /><glyph glyph-name="" unicode="&#x3052;" d="M407 61 l107 0 l0 79 l80 0 l0 294 l-187 0 l0 78 l187 0 l0 187 l106 0 l0 106 l266 0 l0 -106 l-78 0 l0 -81 l-108 0 l0 -184 l-80 0 l0 -294 l-106 0 l0 -79 l-80 0 l0 -106 l-107 0 l0 106 ZM142 140 l-107 0 l0 478 l107 0 l0 81 l79 0 l0 -81 l-78 0 l0 -371 l78 0 l0 -185 l-79 0 l0 78 ZM701 699 l0 -79 l79 0 l0 79 l-79 0 Z" /><glyph glyph-name="" unicode="&#x3053;" d="M301 139 l478 0 l0 -78 l-478 0 l0 78 ZM221 245 l79 0 l0 -105 l-79 0 l0 105 ZM301 698 l371 0 l0 -80 l-371 0 l0 80 Z" /><glyph glyph-name="" unicode="&#x3054;" d="M236 139 l450 0 l0 -78 l-450 0 l0 78 ZM129 245 l105 0 l0 -105 l-105 0 l0 105 ZM687 618 l105 0 l0 79 l79 0 l0 -185 l-184 0 l0 106 ZM236 697 l370 0 l0 -79 l-370 0 l0 79 Z" /><glyph glyph-name="" unicode="&#x3055;" d="M407 61 l186 0 l0 -106 l-186 0 l0 106 ZM221 328 l372 0 l0 106 l-372 0 l0 79 l266 0 l0 105 l292 0 l0 -105 l-106 0 l0 -185 l106 0 l0 -81 l-478 0 l0 -107 l106 0 l0 -78 l-186 0 l0 266 ZM407 806 l80 0 l0 -186 l-80 0 l0 186 Z" /><glyph glyph-name="" unicode="&#x3056;" d="M315 61 l185 0 l0 -106 l-185 0 l0 106 ZM129 328 l371 0 l0 184 l-80 0 l0 -78 l-291 0 l0 78 l291 0 l0 186 l81 0 l0 -80 l185 0 l0 81 l-105 0 l0 106 l290 0 l0 -106 l-104 0 l0 -81 l-81 0 l0 -106 l-105 0 l0 -184 l105 0 l0 -81 l-450 0 l0 -107 l78 0 l0 -78 l-185 0 l0 266 Z" /><glyph glyph-name="" unicode="&#x3057;" d="M326 61 l-106 0 l0 745 l106 0 l0 -666 l81 0 l0 -78 l186 0 l0 78 l106 0 l0 107 l80 0 l0 -186 l-186 0 l0 -106 l-267 0 l0 106 Z" /><glyph glyph-name="" unicode="&#x3058;" d="M327 61 l266 0 l0 79 l105 0 l0 -79 l-105 0 l0 -106 l-266 0 l0 106 ZM220 806 l106 0 l0 -744 l-106 0 l0 744 ZM593 620 l106 0 l0 79 l80 0 l0 -79 l-80 0 l0 -107 l-106 0 l0 107 Z" /><glyph glyph-name="" unicode="&#x3059;" d="M315 61 l185 0 l0 79 l-185 0 l0 292 l78 0 l0 80 l-264 0 l0 106 l372 0 l0 187 l78 0 l0 -106 l292 0 l0 -186 l-104 0 l0 105 l-188 0 l0 -557 l-78 0 l0 -106 l-186 0 l0 106 ZM395 432 l0 -185 l105 0 l0 185 l-105 0 Z" /><glyph glyph-name="" unicode="&#x305a;" d="M315 61 l185 0 l0 79 l-185 0 l0 292 l105 0 l0 80 l-291 0 l0 106 l372 0 l0 187 l105 0 l0 -187 l265 0 l0 -106 l-265 0 l0 -451 l-105 0 l0 -106 l-186 0 l0 106 ZM422 432 l0 -185 l78 0 l0 185 l-78 0 ZM687 805 l184 0 l0 -106 l-184 0 l0 106 Z" /><glyph glyph-name="" unicode="&#x305b;" d="M302 432 l-266 0 l0 80 l266 0 l0 186 l106 0 l0 -186 l186 0 l0 186 l80 0 l0 -186 l291 0 l0 -80 l-291 0 l0 -185 l-80 0 l0 184 l-186 0 l0 -292 l371 0 l0 -78 l-477 0 l0 371 Z" /><glyph glyph-name="" unicode="&#x305c;" d="M355 139 l477 0 l0 -78 l-477 0 l0 78 ZM274 432 l-185 0 l0 79 l185 0 l0 187 l81 0 l0 -186 l291 0 l0 186 l187 0 l0 106 l78 0 l0 -186 l-184 0 l0 -107 l184 0 l0 -79 l-184 0 l0 -106 l-81 0 l0 -79 l-105 0 l0 79 l105 0 l0 105 l-291 0 l0 -291 l-81 0 l0 292 Z" /><glyph glyph-name="" unicode="&#x305d;" d="M607 61 l158 0 l0 -106 l-158 0 l0 106 ZM422 247 l78 0 l0 81 l-371 0 l0 104 l372 0 l0 186 l105 0 l0 80 l81 0 l0 -186 l184 0 l0 -80 l-184 0 l0 -104 l-81 0 l0 -81 l-105 0 l0 -107 l105 0 l0 -78 l-184 0 l0 185 ZM315 698 l105 0 l0 -185 l-105 0 l0 185 Z" /><glyph glyph-name="" unicode="&#x305e;" d="M514 61 l186 0 l0 -106 l-186 0 l0 106 ZM328 247 l79 0 l0 81 l-372 0 l0 106 l372 0 l0 184 l107 0 l0 81 l186 0 l0 106 l266 0 l0 -106 l-80 0 l0 -79 l-106 0 l0 79 l-80 0 l0 -81 l-106 0 l0 -106 l186 0 l0 -78 l-186 0 l0 -106 l-80 0 l0 -81 l-107 0 l0 -107 l106 0 l0 -78 l-185 0 l0 185 ZM223 699 l104 0 l0 -186 l-104 0 l0 186 Z" /><glyph glyph-name="" unicode="&#x305f;" d="M129 140 l79 0 l0 188 l107 0 l0 184 l-186 0 l0 106 l266 0 l0 187 l106 0 l0 -187 l80 0 l0 -106 l-186 0 l0 -184 l-80 0 l0 -267 l-107 0 l0 -106 l-79 0 l0 185 ZM687 61 l80 0 l0 79 l104 0 l0 -79 l-104 0 l0 -106 l-80 0 l0 106 ZM501 140 l186 0 l0 -78 l-186 0 l0 78 ZM767 432 l104 0 l0 -104 l-104 0 l0 104 ZM582 512 l183 0 l0 -78 l-183 0 l0 78 Z" /><glyph glyph-name="" unicode="&#x3060;" d="M88 247 l80 0 l0 185 l106 0 l0 80 l-186 0 l0 106 l186 0 l0 187 l80 0 l0 -187 l186 0 l0 -106 l-186 0 l0 -80 l-80 0 l0 -292 l-106 0 l0 -185 l-80 0 l0 292 ZM460 61 l266 0 l0 79 l105 0 l0 -79 l-105 0 l0 -106 l-266 0 l0 106 ZM460 432 l266 0 l0 -104 l-266 0 l0 104 ZM726 618 l106 0 l0 80 l80 0 l0 -80 l-80 0 l0 -105 l-106 0 l0 105 ZM647 699 l79 0 l0 106 l105 0 l0 -106 l-105 0 l0 -79 l-79 0 l0 79 Z" /><glyph glyph-name="" unicode="&#x3061;" d="M486 61 l187 0 l0 79 l107 0 l0 186 l78 0 l0 -265 l-185 0 l0 -106 l-187 0 l0 106 ZM301 512 l-160 0 l0 106 l160 0 l0 187 l106 0 l0 -187 l187 0 l0 80 l79 0 l0 -186 l-266 0 l0 -184 l79 0 l0 104 l292 0 l0 -104 l-292 0 l0 -81 l-79 0 l0 -105 l-106 0 l0 370 Z" /><glyph glyph-name="" unicode="&#x3062;" d="M422 61 l185 0 l0 79 l80 0 l0 186 l-265 0 l0 -79 l-107 0 l0 -105 l-79 0 l0 370 l-107 0 l0 106 l186 0 l0 187 l107 0 l0 -187 l185 0 l0 -106 l-292 0 l0 -184 l107 0 l0 104 l371 0 l0 -104 l78 0 l0 -188 l-78 0 l0 -79 l-106 0 l0 -106 l-265 0 l0 106 ZM793 805 l78 0 l0 -187 l-78 0 l0 187 Z" /><glyph glyph-name="" unicode="&#x3063;" d="M501 245 l186 0 l0 81 l106 0 l0 185 l78 0 l0 -185 l-78 0 l0 -81 l-106 0 l0 -105 l-186 0 l0 105 ZM129 512 l293 0 l0 106 l370 0 l0 -106 l-370 0 l0 -80 l-293 0 l0 80 Z" /><glyph glyph-name="" unicode="&#x3064;" d="M355 139 l292 0 l0 106 l80 0 l0 81 l106 0 l0 105 l78 0 l0 -186 l-78 0 l0 -106 l-106 0 l0 -78 l-372 0 l0 78 ZM89 511 l186 0 l0 107 l557 0 l0 -186 l-105 0 l0 79 l-452 0 l0 -79 l-186 0 l0 79 Z" /><glyph glyph-name="" unicode="&#x3065;" d="M407 139 l266 0 l0 106 l107 0 l0 266 l78 0 l0 -372 l-185 0 l0 -78 l-266 0 l0 78 ZM35 512 l185 0 l0 106 l560 0 l0 80 l-106 0 l0 107 l292 0 l0 -107 l-106 0 l0 -80 l-80 0 l0 -106 l-560 0 l0 -80 l-185 0 l0 80 Z" /><glyph glyph-name="" unicode="&#x3066;" d="M607 61 l-106 0 l0 79 l186 0 l0 -79 l105 0 l0 -106 l-185 0 l0 106 ZM422 432 l78 0 l0 186 l-78 0 l0 -105 l-293 0 l0 105 l293 0 l0 80 l449 0 l0 -80 l-264 0 l0 -186 l-106 0 l0 -290 l-79 0 l0 290 Z" /><glyph glyph-name="" unicode="&#x3067;" d="M594 61 l79 0 l0 -106 l-79 0 l0 106 ZM407 618 l-106 0 l0 -105 l-266 0 l0 105 l266 0 l0 81 l479 0 l0 -81 l186 0 l0 -106 l-106 0 l0 -78 l-80 0 l0 78 l-107 0 l0 106 l-79 0 l0 -106 l-107 0 l0 -372 l107 0 l0 -78 l-187 0 l0 556 Z" /><glyph glyph-name="" unicode="&#x3068;" d="M314 61 l-79 0 l0 267 l79 0 l0 106 l106 0 l0 78 l160 0 l0 106 l185 0 l0 -106 l-185 0 l0 -78 l-160 0 l0 -106 l-105 0 l0 -188 l105 0 l0 -79 l345 0 l0 -106 l-451 0 l0 106 ZM315 805 l105 0 l0 -292 l-105 0 l0 292 Z" /><glyph glyph-name="" unicode="&#x3069;" d="M315 61 l372 0 l0 -106 l-372 0 l0 106 ZM129 328 l79 0 l0 104 l107 0 l0 80 l186 0 l0 106 l186 0 l0 80 l184 0 l0 -80 l-184 0 l0 -106 l-186 0 l0 -80 l-186 0 l0 -104 l-106 0 l0 -188 l106 0 l0 -78 l-186 0 l0 266 ZM209 805 l106 0 l0 -292 l-106 0 l0 292 Z" /><glyph glyph-name="" unicode="&#x306a;" d="M395 61 l186 0 l0 79 l-186 0 l0 -78 l-80 0 l0 78 l80 0 l0 107 l186 0 l0 265 l106 0 l0 106 l78 0 l0 -106 l-78 0 l0 -372 l184 0 l0 -79 l-290 0 l0 -106 l-186 0 l0 106 ZM129 247 l79 0 l0 185 l107 0 l0 80 l-106 0 l0 106 l106 0 l0 187 l185 0 l0 -106 l-105 0 l0 -81 l186 0 l0 -106 l-186 0 l0 -80 l-80 0 l0 -185 l-107 0 l0 -105 l-79 0 l0 105 ZM767 512 l104 0 l0 -78 l-104 0 l0 78 Z" /><glyph glyph-name="" unicode="&#x306b;" d="M129 697 l186 0 l0 -79 l-106 0 l0 -479 l106 0 l0 -78 l-186 0 l0 636 ZM501 139 l370 0 l0 -78 l-370 0 l0 78 ZM395 245 l105 0 l0 -105 l-105 0 l0 105 ZM395 618 l106 0 l0 79 l264 0 l0 -79 l-184 0 l0 -106 l-186 0 l0 106 Z" /><glyph glyph-name="" unicode="&#x306c;" d="M541 61 l185 0 l0 79 l106 0 l0 372 l80 0 l0 -451 l-186 0 l0 -106 l-185 0 l0 106 ZM169 140 l185 0 l0 188 l105 0 l0 184 l-105 0 l0 -184 l-80 0 l0 -81 l-106 0 l0 -105 l-80 0 l0 105 l80 0 l0 371 l106 0 l0 -105 l80 0 l0 105 l186 0 l0 187 l106 0 l0 -187 l185 0 l0 -106 l-291 0 l0 -265 l-80 0 l0 -107 l-106 0 l0 -78 l-185 0 l0 78 ZM460 140 l80 0 l0 107 l186 0 l0 -107 l-186 0 l0 -78 l-80 0 l0 78 Z" /><glyph glyph-name="" unicode="&#x306d;" d="M221 140 l-105 0 l0 107 l105 0 l0 187 l-186 0 l0 78 l186 0 l0 293 l186 0 l0 -106 l-106 0 l0 -81 l106 0 l0 -105 l81 0 l0 105 l292 0 l0 -106 l-292 0 l0 -78 l-81 0 l0 -106 l-106 0 l0 -373 l-80 0 l0 185 ZM594 61 l79 0 l0 79 l-79 0 l0 -78 l-187 0 l0 78 l81 0 l0 107 l292 0 l0 265 l80 0 l0 -372 l106 0 l0 -79 l-293 0 l0 -106 l-79 0 l0 106 Z" /><glyph glyph-name="" unicode="&#x306e;" d="M116 245 l105 0 l0 -105 l80 0 l0 105 l106 0 l0 187 l80 0 l0 186 l-186 0 l0 -106 l-80 0 l0 -80 l-106 0 l0 -185 l-80 0 l0 185 l80 0 l0 80 l106 0 l0 106 l80 0 l0 80 l479 0 l0 -80 l-186 0 l0 -186 l-106 0 l0 -187 l-81 0 l0 -184 l-291 0 l0 184 ZM594 139 l186 0 l0 479 l80 0 l0 -186 l106 0 l0 -106 l-106 0 l0 -187 l-80 0 l0 -78 l-186 0 l0 78 Z" /><glyph glyph-name="" unicode="&#x306f;" d="M129 698 l105 0 l0 -451 l80 0 l0 -105 l106 0 l0 105 l186 0 l0 185 l-186 0 l0 80 l186 0 l0 186 l80 0 l0 -185 l81 0 l0 105 l104 0 l0 -106 l-104 0 l0 -80 l-80 0 l0 -185 l80 0 l0 -107 l104 0 l0 -79 l-265 0 l0 -106 l-186 0 l0 106 l186 0 l0 79 l-186 0 l0 -79 l-186 0 l0 -106 l-105 0 l0 743 ZM315 618 l104 0 l0 -105 l-104 0 l0 105 Z" /><glyph glyph-name="" unicode="&#x3070;" d="M182 140 l78 0 l0 -185 l-78 0 l0 185 ZM447 61 l186 0 l0 79 l-186 0 l0 -78 l-80 0 l0 185 l266 0 l0 185 l-266 0 l0 80 l266 0 l0 187 l187 0 l0 106 l105 0 l0 -187 l-105 0 l0 -106 l-80 0 l0 -372 l185 0 l0 -79 l-292 0 l0 -106 l-186 0 l0 106 ZM75 512 l105 0 l0 293 l80 0 l0 -293 l-80 0 l0 -370 l-105 0 l0 370 Z" /><glyph glyph-name="" unicode="&#x3071;" d="M143 140 l78 0 l0 -185 l-78 0 l0 185 ZM408 61 l106 0 l0 79 l-106 0 l0 -78 l-81 0 l0 185 l267 0 l0 187 l-267 0 l0 78 l267 0 l0 106 l-80 0 l0 81 l186 0 l0 106 l265 0 l0 -106 l-78 0 l0 -81 l-106 0 l0 -106 l-80 0 l0 -372 l185 0 l0 -79 l-292 0 l0 -106 l-186 0 l0 106 ZM36 512 l105 0 l0 293 l80 0 l0 -293 l-80 0 l0 -370 l-105 0 l0 370 ZM701 698 l0 -78 l78 0 l0 78 l-78 0 Z" /><glyph glyph-name="" unicode="&#x3072;" d="M315 61 l186 0 l0 79 l78 0 l0 558 l107 0 l0 -80 l81 0 l0 -106 l104 0 l0 -184 l-104 0 l0 104 l-81 0 l0 -292 l-107 0 l0 -79 l-78 0 l0 -106 l-186 0 l0 106 ZM129 432 l79 0 l0 186 l-79 0 l0 80 l264 0 l0 -80 l-79 0 l0 -186 l-106 0 l0 -292 l106 0 l0 -78 l-185 0 l0 370 Z" /><glyph glyph-name="" unicode="&#x3073;" d="M222 61 l186 0 l0 79 l80 0 l0 107 l106 0 l0 452 l266 0 l0 106 l105 0 l0 -106 l-105 0 l0 -81 l-185 0 l0 -106 l104 0 l0 -184 l-105 0 l0 -81 l-80 0 l0 -186 l-186 0 l0 -106 l-186 0 l0 106 ZM143 140 l78 0 l0 -78 l-78 0 l0 78 ZM36 328 l105 0 l0 184 l80 0 l0 106 l-80 0 l0 -105 l-105 0 l0 185 l371 0 l0 -80 l-105 0 l0 -106 l-81 0 l0 -184 l-80 0 l0 -186 l-105 0 l0 186 Z" /><glyph glyph-name="" unicode="&#x3074;" d="M221 61 l-106 0 l0 79 l-79 0 l0 107 l79 0 l0 265 l106 0 l0 106 l-106 0 l0 -105 l-79 0 l0 185 l371 0 l0 -80 l-105 0 l0 -106 l-80 0 l0 -372 l80 0 l0 -78 l106 0 l0 78 l80 0 l0 107 l106 0 l0 452 l187 0 l0 106 l184 0 l0 -187 l-105 0 l0 -106 l-79 0 l0 -78 l-107 0 l0 -187 l-80 0 l0 -186 l-186 0 l0 -106 l-187 0 l0 106 ZM675 618 l0 -105 l106 0 l0 105 l78 0 l0 80 l-78 0 l0 -80 l-106 0 Z" /><glyph glyph-name="" unicode="&#x3075;" d="M141 139 l-105 0 l0 106 l291 0 l0 -106 l-106 0 l0 -78 l-80 0 l0 78 ZM408 139 l106 0 l0 106 l-106 0 l0 453 l186 0 l0 -80 l-80 0 l0 -292 l80 0 l0 -265 l-186 0 l0 78 ZM781 245 l-80 0 l0 81 l186 0 l0 -81 l78 0 l0 -105 l-184 0 l0 105 Z" /><glyph glyph-name="" unicode="&#x3076;" d="M141 139 l-105 0 l0 106 l291 0 l0 -106 l-106 0 l0 -78 l-80 0 l0 78 ZM408 139 l106 0 l0 106 l-106 0 l0 267 l106 0 l0 106 l-106 0 l0 80 l186 0 l0 -186 l-80 0 l0 -186 l80 0 l0 -265 l-186 0 l0 78 ZM781 245 l-80 0 l0 81 l186 0 l0 -81 l78 0 l0 -105 l-184 0 l0 105 ZM781 618 l-80 0 l0 80 l264 0 l0 -80 l-78 0 l0 -106 l-106 0 l0 106 Z" /><glyph glyph-name="" unicode="&#x3077;" d="M116 139 l105 0 l0 106 l79 0 l0 -184 l-184 0 l0 78 ZM408 139 l80 0 l0 106 l106 0 l0 -184 l-186 0 l0 78 ZM36 245 l79 0 l0 -105 l-79 0 l0 105 ZM781 245 l-107 0 l0 81 l185 0 l0 -186 l-78 0 l0 105 ZM408 698 l186 0 l0 -80 l-106 0 l0 -371 l-80 0 l0 451 ZM781 512 l78 0 l0 106 l-78 0 l0 -106 ZM781 512 l-107 0 l0 106 l107 0 l0 80 l184 0 l0 -186 l-105 0 l0 -80 l-79 0 l0 80 Z" /><glyph glyph-name="" unicode="&#x3078;" d="M725 326 l-78 0 l0 106 l186 0 l0 -106 l78 0 l0 -79 l-186 0 l0 79 ZM89 432 l185 0 l0 80 l79 0 l0 106 l186 0 l0 -106 l107 0 l0 -80 l-185 0 l0 79 l-108 0 l0 -79 l-79 0 l0 -104 l-185 0 l0 104 Z" /><glyph glyph-name="" unicode="&#x3079;" d="M793 245 l78 0 l0 -105 l-78 0 l0 105 ZM129 432 l105 0 l0 79 l266 0 l0 -79 l-186 0 l0 -106 l-80 0 l0 -79 l-105 0 l0 185 ZM606 326 l-105 0 l0 105 l185 0 l0 -105 l106 0 l0 -79 l-186 0 l0 79 ZM687 618 l106 0 l0 80 l78 0 l0 -80 l-78 0 l0 -106 l-106 0 l0 106 Z" /><glyph glyph-name="" unicode="&#x307a;" d="M767 245 l104 0 l0 -105 l-104 0 l0 105 ZM129 432 l105 0 l0 79 l266 0 l0 -79 l-186 0 l0 -106 l-80 0 l0 -79 l-105 0 l0 185 ZM579 326 l-78 0 l0 105 l185 0 l0 -105 l79 0 l0 -79 l-186 0 l0 79 ZM686 618 l-105 0 l0 80 l290 0 l0 -186 l-185 0 l0 106 Z" /><glyph glyph-name="" unicode="&#x307b;" d="M129 805 l79 0 l0 -558 l106 0 l0 -292 l-185 0 l0 850 ZM501 61 l78 0 l0 79 l-78 0 l0 -78 l-106 0 l0 185 l184 0 l0 185 l-184 0 l0 80 l184 0 l0 106 l-184 0 l0 80 l370 0 l0 -80 l-78 0 l0 -106 l184 0 l0 -80 l-184 0 l0 -185 l78 0 l0 -107 l-78 0 l0 -79 l-108 0 l0 -106 l-78 0 l0 106 ZM767 140 l104 0 l0 -78 l-104 0 l0 78 Z" /><glyph glyph-name="" unicode="&#x307c;" d="M141 61 l-105 0 l0 557 l105 0 l0 187 l80 0 l0 -187 l-78 0 l0 -371 l78 0 l0 -292 l-80 0 l0 106 ZM408 61 l106 0 l0 79 l-106 0 l0 -78 l-79 0 l0 185 l265 0 l0 79 l107 0 l0 -186 l78 0 l0 -79 l-265 0 l0 -106 l-106 0 l0 106 ZM514 434 l-185 0 l0 78 l185 0 l0 106 l-185 0 l0 80 l636 0 l0 -80 l-78 0 l0 -106 l-106 0 l0 -78 l-187 0 l0 -106 l-80 0 l0 106 ZM594 618 l0 -105 l185 0 l0 105 l-185 0 Z" /><glyph glyph-name="" unicode="&#x307d;" d="M141 61 l-105 0 l0 557 l105 0 l0 80 l80 0 l0 -80 l-78 0 l0 -371 l78 0 l0 -292 l-80 0 l0 106 ZM408 61 l106 0 l0 79 l-106 0 l0 -78 l-79 0 l0 185 l185 0 l0 187 l-185 0 l0 78 l185 0 l0 106 l-185 0 l0 80 l636 0 l0 -186 l-184 0 l0 -78 l-187 0 l0 -187 l107 0 l0 -107 l-107 0 l0 -185 l-186 0 l0 106 ZM701 140 l78 0 l0 -78 l-78 0 l0 78 ZM594 618 l0 -105 l185 0 l0 105 l-185 0 Z" /><glyph glyph-name="" unicode="&#x307e;" d="M220 140 l80 0 l0 107 l186 0 l0 81 l-185 0 l0 106 l185 0 l0 79 l-185 0 l0 107 l185 0 l0 186 l107 0 l0 -186 l80 0 l0 -107 l-80 0 l0 -79 l80 0 l0 78 l106 0 l0 -78 l-106 0 l0 -106 l-80 0 l0 -188 l186 0 l0 -79 l-186 0 l0 -106 l-373 0 l0 185 ZM301 140 l0 -78 l185 0 l0 78 l-185 0 ZM220 699 l80 0 l0 -79 l-80 0 l0 79 Z" /><glyph glyph-name="" unicode="&#x307f;" d="M488 140 l106 0 l0 107 l80 0 l0 79 l-266 0 l0 -79 l-106 0 l0 -107 l-81 0 l0 -78 l-105 0 l0 78 l105 0 l0 107 l81 0 l0 79 l-81 0 l0 -79 l-106 0 l0 -105 l-79 0 l0 105 l79 0 l0 81 l106 0 l0 106 l186 0 l0 184 l-105 0 l0 81 l186 0 l0 106 l106 0 l0 -106 l80 0 l0 -81 l-80 0 l0 -106 l-106 0 l0 -78 l186 0 l0 78 l105 0 l0 -265 l-105 0 l0 -186 l-80 0 l0 -106 l-106 0 l0 185 ZM781 247 l184 0 l0 -105 l-184 0 l0 105 Z" /><glyph glyph-name="" unicode="&#x3080;" d="M315 61 l372 0 l0 184 l105 0 l0 -184 l-105 0 l0 -106 l-372 0 l0 106 ZM234 140 l-105 0 l0 292 l105 0 l0 80 l-105 0 l0 106 l105 0 l0 187 l186 0 l0 -106 l-105 0 l0 -81 l185 0 l0 -106 l-185 0 l0 -450 l-81 0 l0 78 ZM687 618 l184 0 l0 -105 l-184 0 l0 105 Z" /><glyph glyph-name="" unicode="&#x3081;" d="M607 61 l80 0 l0 79 l80 0 l0 372 l104 0 l0 -451 l-184 0 l0 -106 l-80 0 l0 106 ZM129 432 l105 0 l0 80 l188 0 l0 106 l79 0 l0 187 l105 0 l0 -187 l159 0 l0 -106 l-159 0 l0 -184 l-105 0 l0 -81 l105 0 l0 -107 l-291 0 l0 -78 l-186 0 l0 370 ZM236 432 l0 -290 l79 0 l0 290 l-79 0 ZM422 512 l0 -184 l78 0 l0 184 l-78 0 ZM129 618 l105 0 l0 -105 l-105 0 l0 105 Z" /><glyph glyph-name="" unicode="&#x3082;" d="M407 61 l293 0 l0 265 l79 0 l0 -265 l-79 0 l0 -106 l-293 0 l0 106 ZM327 328 l-106 0 l0 106 l106 0 l0 79 l-106 0 l0 105 l186 0 l0 188 l106 0 l0 -188 l80 0 l0 -105 l-186 0 l0 -185 l187 0 l0 104 l105 0 l0 -104 l-105 0 l0 -81 l-187 0 l0 -185 l-80 0 l0 266 Z" /><glyph glyph-name="" unicode="&#x3083;" d="M395 326 l292 0 l0 106 l80 0 l0 79 l104 0 l0 -79 l-104 0 l0 -106 l-80 0 l0 -81 l-186 0 l0 -105 l-106 0 l0 186 ZM129 432 l186 0 l0 80 l186 0 l0 106 l264 0 l0 -106 l-264 0 l0 -80 l-106 0 l0 -106 l-266 0 l0 106 ZM209 618 l106 0 l0 -106 l-106 0 l0 106 ZM395 698 l105 0 l0 -80 l-105 0 l0 80 Z" /><glyph glyph-name="" unicode="&#x3084;" d="M407 245 l-79 0 l0 81 l-293 0 l0 106 l186 0 l0 266 l107 0 l0 -186 l185 0 l0 106 l-106 0 l0 187 l107 0 l0 -107 l80 0 l0 -80 l291 0 l0 -106 l-371 0 l0 -80 l-107 0 l0 -106 l107 0 l0 -187 l80 0 l0 -78 l-187 0 l0 184 ZM594 326 l186 0 l0 106 l106 0 l0 79 l80 0 l0 -185 l-186 0 l0 -79 l-186 0 l0 79 Z" /><glyph glyph-name="" unicode="&#x3085;" d="M407 139 l80 0 l0 106 l-80 0 l0 81 l80 0 l0 185 l-80 0 l0 -79 l-107 0 l0 -292 l-79 0 l0 558 l79 0 l0 -186 l107 0 l0 106 l80 0 l0 80 l107 0 l0 -80 l185 0 l0 -373 l-106 0 l0 -106 l-186 0 l0 -78 l-80 0 l0 78 ZM594 511 l0 -264 l78 0 l0 264 l-78 0 Z" /><glyph glyph-name="" unicode="&#x3086;" d="M420 61 l80 0 l0 79 l-80 0 l0 107 l80 0 l0 265 l-80 0 l0 -80 l-106 0 l0 -104 l-80 0 l0 -266 l-105 0 l0 636 l105 0 l0 -185 l186 0 l0 105 l81 0 l0 187 l105 0 l0 -187 l185 0 l0 -106 l-184 0 l0 -370 l79 0 l0 105 l106 0 l0 265 l79 0 l0 -372 l-185 0 l0 -79 l-185 0 l0 -106 l-81 0 l0 106 Z" /><glyph glyph-name="" unicode="&#x3087;" d="M328 139 l185 0 l0 106 l-186 0 l0 -105 l-106 0 l0 105 l106 0 l0 81 l186 0 l0 372 l81 0 l0 -80 l185 0 l0 -106 l-185 0 l0 -267 l105 0 l0 -106 l-186 0 l0 -78 l-185 0 l0 78 Z" /><glyph glyph-name="" unicode="&#x3088;" d="M262 61 l291 0 l0 79 l-292 0 l0 -78 l-80 0 l0 78 l80 0 l0 107 l292 0 l0 557 l80 0 l0 -186 l185 0 l0 -106 l-184 0 l0 -265 l106 0 l0 -107 l78 0 l0 -79 l-265 0 l0 -106 l-291 0 l0 106 Z" /><glyph glyph-name="" unicode="&#x3089;" d="M487 61 l107 0 l0 79 l78 0 l0 186 l-265 0 l0 -78 l-186 0 l0 370 l79 0 l0 -290 l107 0 l0 104 l372 0 l0 -371 l-185 0 l0 -106 l-107 0 l0 106 ZM407 699 l-106 0 l0 107 l186 0 l0 -186 l-80 0 l0 79 Z" /><glyph glyph-name="" unicode="&#x308a;" d="M487 140 l107 0 l0 188 l79 0 l0 290 l106 0 l0 -371 l-106 0 l0 -186 l-79 0 l0 -106 l-107 0 l0 185 ZM300 328 l-79 0 l0 371 l186 0 l0 -81 l-106 0 l0 -184 l106 0 l0 -186 l-107 0 l0 80 ZM594 806 l78 0 l0 -186 l-78 0 l0 186 Z" /><glyph glyph-name="" unicode="&#x308b;" d="M407 61 l80 0 l0 79 l-80 0 l0 -78 l-106 0 l0 185 l293 0 l0 -105 l78 0 l0 184 l-372 0 l0 -78 l-79 0 l0 80 l79 0 l0 106 l107 0 l0 79 l80 0 l0 105 l-266 0 l0 81 l451 0 l0 -81 l-78 0 l0 -105 l-107 0 l0 -79 l292 0 l0 -373 l-185 0 l0 -106 l-187 0 l0 106 Z" /><glyph glyph-name="" unicode="&#x308c;" d="M235 140 l-106 0 l0 -78 l-80 0 l0 78 l80 0 l0 107 l106 0 l0 187 l-186 0 l0 78 l266 0 l0 293 l106 0 l0 -292 l81 0 l0 105 l264 0 l0 -290 l-78 0 l0 -186 l186 0 l0 105 l78 0 l0 -107 l-78 0 l0 -78 l-292 0 l0 266 l105 0 l0 184 l-185 0 l0 -78 l-81 0 l0 -106 l-106 0 l0 -373 l-80 0 l0 185 Z" /><glyph glyph-name="" unicode="&#x308d;" d="M501 61 l185 0 l0 79 l79 0 l0 186 l-372 0 l0 -79 l-79 0 l0 -105 l-185 0 l0 105 l79 0 l0 81 l106 0 l0 104 l79 0 l0 80 l107 0 l0 106 l-185 0 l0 81 l264 0 l0 106 l107 0 l0 -187 l-107 0 l0 -106 l-78 0 l0 -80 l370 0 l0 -371 l-185 0 l0 -106 l-185 0 l0 106 Z" /><glyph glyph-name="" unicode="&#x308e;" d="M327 245 l-106 0 l0 81 l106 0 l0 106 l-106 0 l0 80 l106 0 l0 186 l80 0 l0 -80 l107 0 l0 -106 l265 0 l0 -372 l-185 0 l0 105 l105 0 l0 186 l-292 0 l0 -370 l-80 0 l0 184 Z" /><glyph glyph-name="" unicode="&#x308f;" d="M314 245 l-106 0 l0 -183 l-79 0 l0 185 l79 0 l0 81 l106 0 l0 184 l-106 0 l0 -78 l-79 0 l0 78 l79 0 l0 106 l106 0 l0 187 l79 0 l0 -187 l108 0 l0 -106 l370 0 l0 -372 l-106 0 l0 -78 l-184 0 l0 78 l184 0 l0 292 l-372 0 l0 -477 l-79 0 l0 290 Z" /><glyph glyph-name="" unicode="&#x3090;" d="M234 61 l-105 0 l0 267 l105 0 l0 104 l80 0 l0 80 l186 0 l0 106 l-264 0 l0 81 l265 0 l0 106 l105 0 l0 -293 l185 0 l0 -80 l-290 0 l0 -185 l-81 0 l0 -105 l81 0 l0 103 l185 0 l0 -103 l106 0 l0 290 l79 0 l0 -371 l-185 0 l0 -106 l-185 0 l0 106 l105 0 l0 79 l-105 0 l0 -79 l-187 0 l0 -106 l-80 0 l0 106 ZM236 328 l0 -186 l78 0 l0 186 l105 0 l0 104 l-105 0 l0 -104 l-78 0 Z" /><glyph glyph-name="" unicode="&#x3091;" d="M129 140 l105 0 l0 107 l186 0 l0 185 l-106 0 l0 -104 l-78 0 l0 104 l78 0 l0 80 l106 0 l0 106 l-105 0 l0 81 l186 0 l0 106 l105 0 l0 -187 l80 0 l0 -106 l-185 0 l0 -80 l105 0 l0 -104 l80 0 l0 184 l106 0 l0 -184 l-105 0 l0 -81 l105 0 l0 -107 l-186 0 l0 -79 l-105 0 l0 -106 l-79 0 l0 106 l79 0 l0 79 l105 0 l0 105 l-184 0 l0 -184 l-188 0 l0 -106 l-105 0 l0 185 ZM793 140 l78 0 l0 -185 l-78 0 l0 185 Z" /><glyph glyph-name="" unicode="&#x3092;" d="M315 247 l107 0 l0 81 l79 0 l0 104 l370 0 l0 -104 l-265 0 l0 -186 l-105 0 l0 103 l-79 0 l0 -184 l264 0 l0 -106 l-371 0 l0 292 ZM129 328 l105 0 l0 104 l80 0 l0 80 l-78 0 l0 106 l186 0 l0 187 l79 0 l0 -106 l105 0 l0 -81 l-184 0 l0 -106 l78 0 l0 -80 l-78 0 l0 -104 l-108 0 l0 -81 l-185 0 l0 81 Z" /><glyph glyph-name="" unicode="&#x3093;" d="M129 247 l105 0 l0 185 l80 0 l0 80 l108 0 l0 293 l78 0 l0 -293 l-78 0 l0 -80 l-107 0 l0 -104 l107 0 l0 104 l184 0 l0 -370 l-105 0 l0 264 l-79 0 l0 -79 l-108 0 l0 -107 l-80 0 l0 -185 l-105 0 l0 292 ZM607 61 l160 0 l0 79 l104 0 l0 -79 l-104 0 l0 -106 l-160 0 l0 106 Z" /><glyph glyph-name="" unicode="&#x30a1;" d="M220 139 l80 0 l0 81 l107 0 l0 291 l79 0 l0 -105 l107 0 l0 106 l80 0 l0 81 l-453 0 l0 105 l559 0 l0 -186 l-106 0 l0 -106 l-80 0 l0 -80 l-107 0 l0 -106 l-79 0 l0 -81 l-107 0 l0 -105 l-80 0 l0 105 Z" /><glyph glyph-name="" unicode="&#x30a2;" d="M236 140 l79 0 l0 81 l107 0 l0 291 l265 0 l0 81 l-558 0 l0 105 l742 0 l0 -186 l-78 0 l0 -106 l-106 0 l0 -78 l-186 0 l0 -188 l-79 0 l0 -106 l-107 0 l0 -79 l-79 0 l0 185 Z" /><glyph glyph-name="" unicode="&#x30a3;" d="M446 404 l-79 0 l0 -78 l-106 0 l0 80 l106 0 l0 106 l186 0 l0 186 l186 0 l0 -106 l-106 0 l0 -80 l-80 0 l0 -478 l-107 0 l0 370 Z" /><glyph glyph-name="" unicode="&#x30a4;" d="M500 326 l-186 0 l0 -105 l-80 0 l0 107 l80 0 l0 79 l106 0 l0 106 l80 0 l0 80 l81 0 l0 106 l106 0 l0 80 l78 0 l0 -186 l-78 0 l0 -638 l-187 0 l0 371 Z" /><glyph glyph-name="" unicode="&#x30a5;" d="M407 139 l106 0 l0 81 l81 0 l0 186 l105 0 l0 105 l-372 0 l0 -185 l-106 0 l0 266 l186 0 l0 106 l106 0 l0 -106 l266 0 l0 -186 l-79 0 l0 -186 l-106 0 l0 -81 l-81 0 l0 -105 l-106 0 l0 105 Z" /><glyph glyph-name="" unicode="&#x30a6;" d="M395 34 l106 0 l0 106 l80 0 l0 188 l106 0 l0 184 l-479 0 l0 -184 l-79 0 l0 265 l266 0 l0 184 l186 0 l0 -184 l290 0 l0 -187 l-104 0 l0 -185 l-80 0 l0 -81 l-106 0 l0 -106 l-80 0 l0 -79 l-106 0 l0 79 Z" /><glyph glyph-name="" unicode="&#x30a7;" d="M221 220 l186 0 l0 292 l-186 0 l0 80 l558 0 l0 -80 l-265 0 l0 -292 l265 0 l0 -80 l-558 0 l0 80 Z" /><glyph glyph-name="" unicode="&#x30a8;" d="M129 220 l290 0 l0 291 l-183 0 l0 81 l555 0 l0 -81 l-184 0 l0 -291 l264 0 l0 -186 l-79 0 l0 105 l-558 0 l0 -105 l-105 0 l0 186 Z" /><glyph glyph-name="" unicode="&#x30a9;" d="M407 139 l80 0 l0 187 l-80 0 l0 -106 l-107 0 l0 -80 l-79 0 l0 80 l79 0 l0 106 l107 0 l0 80 l-186 0 l0 106 l266 0 l0 186 l107 0 l0 -186 l79 0 l0 80 l106 0 l0 -80 l-106 0 l0 -106 l-79 0 l0 -372 l-187 0 l0 105 Z" /><glyph glyph-name="" unicode="&#x30aa;" d="M420 34 l81 0 l0 106 l105 0 l0 186 l-186 0 l0 -105 l-106 0 l0 -79 l-185 0 l0 79 l185 0 l0 107 l105 0 l0 78 l-290 0 l0 186 l105 0 l0 -79 l267 0 l0 264 l185 0 l0 -264 l106 0 l0 79 l79 0 l0 -186 l-185 0 l0 -372 l-80 0 l0 -79 l-186 0 l0 79 Z" /><glyph glyph-name="" unicode="&#x30ab;" d="M236 139 l78 0 l0 187 l105 0 l0 185 l-185 0 l0 -105 l-105 0 l0 186 l291 0 l0 105 l186 0 l0 -105 l265 0 l0 -453 l-106 0 l0 -105 l-158 0 l0 105 l79 0 l0 81 l79 0 l0 291 l-264 0 l0 -291 l-81 0 l0 -81 l-106 0 l0 -105 l-78 0 l0 105 Z" /><glyph glyph-name="" unicode="&#x30ac;" d="M501 34 l78 0 l0 106 l107 0 l0 266 l-293 0 l0 -266 l-79 0 l0 -106 l-185 0 l0 106 l79 0 l0 81 l106 0 l0 185 l-185 0 l0 186 l79 0 l0 -79 l185 0 l0 264 l108 0 l0 -264 l185 0 l0 80 l79 0 l0 184 l106 0 l0 -184 l-106 0 l0 -559 l-186 0 l0 -79 l-78 0 l0 79 Z" /><glyph glyph-name="" unicode="&#x30ad;" d="M501 221 l-372 0 l0 107 l264 0 l0 184 l-264 0 l0 81 l264 0 l0 184 l108 0 l0 -184 l264 0 l0 -81 l-264 0 l0 -184 l78 0 l0 78 l292 0 l0 -78 l-185 0 l0 -107 l-107 0 l0 -266 l-78 0 l0 266 Z" /><glyph glyph-name="" unicode="&#x30ae;" d="M501 220 l-293 0 l0 -78 l-79 0 l0 186 l264 0 l0 78 l-185 0 l0 106 l185 0 l0 265 l108 0 l0 -184 l185 0 l0 106 l79 0 l0 78 l106 0 l0 -78 l-106 0 l0 -106 l-79 0 l0 -81 l-185 0 l0 -184 l264 0 l0 78 l106 0 l0 -78 l-106 0 l0 -107 l-186 0 l0 -266 l-78 0 l0 265 Z" /><glyph glyph-name="" unicode="&#x30af;" d="M221 34 l78 0 l0 106 l107 0 l0 81 l80 0 l0 107 l106 0 l0 78 l80 0 l0 106 l-266 0 l0 -106 l-107 0 l0 -78 l-158 0 l0 78 l79 0 l0 106 l79 0 l0 81 l107 0 l0 105 l80 0 l0 79 l106 0 l0 -79 l-106 0 l0 -105 l372 0 l0 -81 l-80 0 l0 -184 l-106 0 l0 -107 l-80 0 l0 -81 l-106 0 l0 -106 l-80 0 l0 -79 l-185 0 l0 79 Z" /><glyph glyph-name="" unicode="&#x30b0;" d="M129 34 l185 0 l0 106 l108 0 l0 81 l79 0 l0 107 l105 0 l0 184 l-292 0 l0 -106 l-80 0 l0 -78 l-105 0 l0 78 l105 0 l0 106 l80 0 l0 187 l108 0 l0 78 l79 0 l0 -184 l185 0 l0 184 l185 0 l0 -78 l-78 0 l0 -187 l-107 0 l0 -184 l-80 0 l0 -188 l-105 0 l0 -106 l-187 0 l0 -79 l-185 0 l0 79 Z" /><glyph glyph-name="" unicode="&#x30b1;" d="M261 34 l107 0 l0 106 l79 0 l0 188 l106 0 l0 78 l-293 0 l0 -78 l-80 0 l0 -107 l-105 0 l0 186 l105 0 l0 105 l80 0 l0 186 l108 0 l0 -186 l557 0 l0 -105 l-292 0 l0 -186 l-80 0 l0 -81 l-106 0 l0 -106 l-79 0 l0 -79 l-107 0 l0 79 Z" /><glyph glyph-name="" unicode="&#x30b2;" d="M315 34 l78 0 l0 106 l107 0 l0 266 l-186 0 l0 -78 l-106 0 l0 -107 l-79 0 l0 185 l79 0 l0 106 l106 0 l0 265 l79 0 l0 -265 l478 0 l0 -106 l-185 0 l0 -78 l-107 0 l0 -188 l-78 0 l0 -106 l-108 0 l0 -79 l-78 0 l0 79 ZM687 777 l184 0 l0 -78 l-184 0 l0 78 Z" /><glyph glyph-name="" unicode="&#x30b3;" d="M221 220 l451 0 l0 292 l-451 0 l0 80 l558 0 l0 -558 l-558 0 l0 186 Z" /><glyph glyph-name="" unicode="&#x30b4;" d="M129 139 l477 0 l0 372 l-477 0 l0 81 l557 0 l0 106 l106 0 l0 78 l79 0 l0 -78 l-79 0 l0 -106 l-106 0 l0 -558 l-557 0 l0 105 Z" /><glyph glyph-name="" unicode="&#x30b5;" d="M407 34 l81 0 l0 187 l106 0 l0 185 l-187 0 l0 -185 l-106 0 l0 186 l-266 0 l0 105 l266 0 l0 265 l106 0 l0 -264 l187 0 l0 264 l79 0 l0 -265 l293 0 l0 -105 l-293 0 l0 -267 l-79 0 l0 -106 l-106 0 l0 -79 l-81 0 l0 79 Z" /><glyph glyph-name="" unicode="&#x30b6;" d="M315 34 l106 0 l0 106 l81 0 l0 81 l78 0 l0 185 l-159 0 l0 -185 l-106 0 l0 186 l-266 0 l0 105 l266 0 l0 265 l106 0 l0 -264 l159 0 l0 264 l107 0 l0 -78 l187 0 l0 78 l78 0 l0 -78 l-78 0 l0 -106 l-186 0 l0 -81 l185 0 l0 -105 l-186 0 l0 -186 l-107 0 l0 -187 l-78 0 l0 -79 l-187 0 l0 79 Z" /><glyph glyph-name="" unicode="&#x30b7;" d="M208 34 l-79 0 l0 106 l266 0 l0 81 l106 0 l0 107 l185 0 l0 78 l81 0 l0 106 l104 0 l0 -106 l-104 0 l0 -78 l-81 0 l0 -107 l-107 0 l0 -81 l-184 0 l0 -106 l-81 0 l0 -79 l-106 0 l0 79 ZM208 406 l-79 0 l0 106 l185 0 l0 -184 l-106 0 l0 78 ZM208 698 l185 0 l0 -105 l-185 0 l0 105 Z" /><glyph glyph-name="" unicode="&#x30b8;" d="M129 139 l266 0 l0 81 l184 0 l0 106 l188 0 l0 78 l104 0 l0 -78 l-104 0 l0 -106 l-81 0 l0 -81 l-185 0 l0 -105 l-372 0 l0 105 ZM208 404 l106 0 l0 -78 l-106 0 l0 78 ZM129 511 l79 0 l0 -105 l-79 0 l0 105 ZM581 592 l105 0 l0 105 l185 0 l0 -105 l-104 0 l0 -80 l-186 0 l0 80 ZM208 697 l185 0 l0 -105 l-185 0 l0 105 Z" /><glyph glyph-name="" unicode="&#x30b9;" d="M129 139 l185 0 l0 81 l81 0 l0 106 l106 0 l0 80 l78 0 l0 186 l-371 0 l0 105 l557 0 l0 -186 l-79 0 l0 -105 l-105 0 l0 -80 l105 0 l0 -106 l-185 0 l0 -81 l-187 0 l0 -105 l-185 0 l0 105 ZM767 139 l104 0 l0 -105 l-104 0 l0 105 ZM687 220 l78 0 l0 -80 l-78 0 l0 80 Z" /><glyph glyph-name="" unicode="&#x30ba;" d="M36 139 l185 0 l0 81 l187 0 l0 106 l78 0 l0 186 l-264 0 l0 80 l372 0 l0 106 l80 0 l0 78 l291 0 l0 -78 l-105 0 l0 -106 l-79 0 l0 -80 l-107 0 l0 -106 l-80 0 l0 -186 l-186 0 l0 -81 l-106 0 l0 -105 l-266 0 l0 105 ZM674 139 l-80 0 l0 81 l187 0 l0 -81 l78 0 l0 -105 l-185 0 l0 105 ZM675 698 l0 -105 l104 0 l0 105 l-104 0 Z" /><glyph glyph-name="" unicode="&#x30bb;" d="M422 139 l-107 0 l0 265 l-81 0 l0 -78 l-105 0 l0 185 l186 0 l0 265 l186 0 l0 -264 l186 0 l0 80 l184 0 l0 -186 l-78 0 l0 -80 l-106 0 l0 -106 l-80 0 l0 106 l80 0 l0 78 l-265 0 l0 -184 l79 0 l0 -81 l370 0 l0 -105 l-449 0 l0 105 Z" /><glyph glyph-name="" unicode="&#x30bc;" d="M355 404 l-81 0 l0 -78 l-185 0 l0 80 l185 0 l0 105 l81 0 l0 186 l106 0 l0 -186 l450 0 l0 -105 l-78 0 l0 -80 l-106 0 l0 -106 l-80 0 l0 106 l80 0 l0 78 l-266 0 l0 -265 l450 0 l0 -105 l-556 0 l0 370 ZM833 776 l78 0 l0 -183 l-78 0 l0 183 Z" /><glyph glyph-name="" unicode="&#x30bd;" d="M262 139 l105 0 l0 81 l80 0 l0 106 l106 0 l0 78 l80 0 l0 293 l185 0 l0 -105 l-105 0 l0 -188 l-80 0 l0 -184 l-80 0 l0 -81 l-106 0 l0 -105 l-185 0 l0 105 ZM181 590 l80 0 l0 -79 l106 0 l0 -105 l-186 0 l0 184 Z" /><glyph glyph-name="" unicode="&#x30be;" d="M209 34 l106 0 l0 106 l80 0 l0 81 l106 0 l0 107 l80 0 l0 371 l186 0 l0 78 l104 0 l0 -184 l-104 0 l0 -81 l-80 0 l0 -184 l-106 0 l0 -107 l-80 0 l0 -81 l-106 0 l0 -106 l-80 0 l0 -79 l-106 0 l0 79 ZM209 512 l106 0 l0 -105 l-106 0 l0 105 ZM129 592 l79 0 l0 -79 l-79 0 l0 79 Z" /><glyph glyph-name="" unicode="&#x30bf;" d="M221 34 l106 0 l0 106 l80 0 l0 81 l106 0 l0 107 l-106 0 l0 79 l292 0 l0 186 l-186 0 l0 -80 l-106 0 l0 -106 l-80 0 l0 -79 l-106 0 l0 185 l106 0 l0 80 l80 0 l0 186 l187 0 l0 -80 l185 0 l0 -292 l-79 0 l0 -186 l-106 0 l0 -81 l-81 0 l0 -106 l-106 0 l0 -79 l-186 0 l0 79 Z" /><glyph glyph-name="" unicode="&#x30c0;" d="M129 34 l186 0 l0 106 l78 0 l0 188 l-78 0 l0 78 l186 0 l0 -78 l80 0 l0 184 l-266 0 l0 -106 l-107 0 l0 -78 l-79 0 l0 184 l79 0 l0 81 l107 0 l0 184 l80 0 l0 -184 l370 0 l0 106 l-78 0 l0 78 l184 0 l0 -184 l-104 0 l0 -81 l-80 0 l0 -184 l-106 0 l0 -107 l-80 0 l0 -81 l-106 0 l0 -106 l-80 0 l0 -79 l-186 0 l0 79 Z" /><glyph glyph-name="" unicode="&#x30c1;" d="M222 34 l79 0 l0 106 l106 0 l0 81 l79 0 l0 107 l-345 0 l0 184 l345 0 l0 81 l-264 0 l0 105 l451 0 l0 79 l105 0 l0 -79 l-105 0 l0 -105 l-79 0 l0 -81 l264 0 l0 -184 l-264 0 l0 -107 l-108 0 l0 -187 l-79 0 l0 -79 l-185 0 l0 79 Z" /><glyph glyph-name="" unicode="&#x30c2;" d="M223 140 l184 0 l0 266 l-186 0 l0 -78 l-186 0 l0 184 l372 0 l0 81 l-292 0 l0 106 l558 0 l0 -106 l-79 0 l0 -80 l186 0 l0 186 l186 0 l0 -106 l-106 0 l0 -265 l-80 0 l0 78 l-186 0 l0 -78 l-107 0 l0 -188 l-80 0 l0 -106 l-106 0 l0 -79 l-78 0 l0 185 Z" /><glyph glyph-name="" unicode="&#x30c3;" d="M407 220 l79 0 l0 106 l108 0 l0 80 l79 0 l0 186 l106 0 l0 -186 l-106 0 l0 -80 l-79 0 l0 -106 l-108 0 l0 -80 l-79 0 l0 80 ZM221 592 l79 0 l0 -186 l-79 0 l0 186 ZM407 592 l79 0 l0 -80 l-79 0 l0 80 Z" /><glyph glyph-name="" unicode="&#x30c4;" d="M315 140 l186 0 l0 81 l78 0 l0 107 l108 0 l0 264 l184 0 l0 -80 l-104 0 l0 -184 l-80 0 l0 -107 l-108 0 l0 -81 l-78 0 l0 -106 l-106 0 l0 -79 l-80 0 l0 185 ZM129 592 l79 0 l0 -80 l107 0 l0 -105 l-186 0 l0 185 ZM395 698 l105 0 l0 -291 l-105 0 l0 291 Z" /><glyph glyph-name="" unicode="&#x30c5;" d="M221 34 l80 0 l0 106 l106 0 l0 81 l80 0 l0 107 l106 0 l0 184 l80 0 l0 81 l107 0 l0 106 l80 0 l0 78 l106 0 l0 -78 l-106 0 l0 -106 l-80 0 l0 -186 l-107 0 l0 -79 l-80 0 l0 -188 l-186 0 l0 -106 l-106 0 l0 -79 l-80 0 l0 79 ZM115 512 l105 0 l0 -105 l-105 0 l0 105 ZM35 593 l79 0 l0 -80 l-79 0 l0 80 ZM301 699 l106 0 l0 -186 l-106 0 l0 186 Z" /><glyph glyph-name="" unicode="&#x30c6;" d="M237 34 l78 0 l0 106 l107 0 l0 81 l78 0 l0 185 l-371 0 l0 106 l742 0 l0 -106 l-264 0 l0 -185 l-106 0 l0 -187 l-79 0 l0 -79 l-185 0 l0 79 ZM237 698 l555 0 l0 -105 l-555 0 l0 105 Z" /><glyph glyph-name="" unicode="&#x30c7;" d="M275 34 l80 0 l0 106 l105 0 l0 266 l-371 0 l0 106 l822 0 l0 -106 l-372 0 l0 -266 l-78 0 l0 -106 l-106 0 l0 -79 l-80 0 l0 79 ZM275 699 l558 0 l0 78 l78 0 l0 -184 l-636 0 l0 106 Z" /><glyph glyph-name="" unicode="&#x30c8;" d="M314 777 l105 0 l0 -265 l161 0 l0 -106 l105 0 l0 -78 l-186 0 l0 78 l-80 0 l0 -451 l-105 0 l0 822 Z" /><glyph glyph-name="" unicode="&#x30c9;" d="M261 777 l185 0 l0 -78 l-78 0 l0 -187 l185 0 l0 -105 l80 0 l0 -186 l-80 0 l0 107 l-107 0 l0 78 l-79 0 l0 -451 l-106 0 l0 822 ZM633 777 l106 0 l0 -183 l-106 0 l0 183 Z" /><glyph glyph-name="" unicode="&#x30ca;" d="M209 34 l106 0 l0 106 l80 0 l0 188 l105 0 l0 78 l-371 0 l0 106 l372 0 l0 186 l80 0 l0 -186 l290 0 l0 -106 l-290 0 l0 -185 l-80 0 l0 -81 l-106 0 l0 -185 l-186 0 l0 79 ZM395 777 l105 0 l0 -78 l-105 0 l0 78 Z" /><glyph glyph-name="" unicode="&#x30cb;" d="M129 220 l742 0 l0 -186 l-104 0 l0 105 l-559 0 l0 -105 l-79 0 l0 186 ZM209 592 l556 0 l0 -80 l-556 0 l0 80 Z" /><glyph glyph-name="" unicode="&#x30cc;" d="M221 139 l186 0 l0 81 l80 0 l0 106 l-80 0 l0 80 l187 0 l0 106 l78 0 l0 80 l-371 0 l0 106 l478 0 l0 -292 l-106 0 l0 -186 l-186 0 l0 -81 l-80 0 l0 -105 l-186 0 l0 105 ZM673 220 l106 0 l0 -80 l-106 0 l0 80 ZM301 511 l106 0 l0 -105 l-106 0 l0 105 Z" /><glyph glyph-name="" unicode="&#x30cd;" d="M501 220 l-187 0 l0 -78 l-185 0 l0 79 l185 0 l0 107 l187 0 l0 78 l105 0 l0 106 l-370 0 l0 81 l265 0 l0 105 l105 0 l0 -105 l185 0 l0 -81 l-105 0 l0 -106 l-80 0 l0 -451 l-105 0 l0 265 ZM687 406 l105 0 l0 -78 l79 0 l0 -107 l-184 0 l0 185 Z" /><glyph glyph-name="" unicode="&#x30ce;" d="M221 139 l79 0 l0 81 l107 0 l0 106 l80 0 l0 80 l107 0 l0 186 l79 0 l0 106 l106 0 l0 -186 l-106 0 l0 -186 l-79 0 l0 -106 l-107 0 l0 -81 l-80 0 l0 -105 l-186 0 l0 105 Z" /><glyph glyph-name="" unicode="&#x30cf;" d="M49 220 l80 0 l0 106 l106 0 l0 186 l80 0 l0 80 l105 0 l0 -186 l-105 0 l0 -80 l-80 0 l0 -186 l-186 0 l0 80 ZM768 406 l106 0 l0 -80 l78 0 l0 -105 l-184 0 l0 185 ZM687 512 l-79 0 l0 80 l158 0 l0 -186 l-79 0 l0 106 Z" /><glyph glyph-name="" unicode="&#x30d0;" d="M89 326 l79 0 l0 185 l185 0 l0 -105 l-79 0 l0 -80 l-106 0 l0 -186 l-79 0 l0 186 ZM727 326 l-80 0 l0 185 l80 0 l0 -105 l106 0 l0 -80 l78 0 l0 -105 l-184 0 l0 105 ZM541 592 l105 0 l0 106 l81 0 l0 79 l105 0 l0 -185 l-186 0 l0 -80 l-105 0 l0 80 Z" /><glyph glyph-name="" unicode="&#x30d1;" d="M89 326 l79 0 l0 186 l106 0 l0 80 l79 0 l0 -186 l-79 0 l0 -80 l-106 0 l0 -105 l-79 0 l0 105 ZM727 326 l-80 0 l0 185 l80 0 l0 -105 l106 0 l0 -80 l78 0 l0 -105 l-184 0 l0 105 ZM541 592 l105 0 l0 -80 l-105 0 l0 80 ZM727 698 l-80 0 l0 79 l264 0 l0 -184 l-184 0 l0 105 Z" /><glyph glyph-name="" unicode="&#x30d2;" d="M220 698 l106 0 l0 -292 l81 0 l0 106 l186 0 l0 80 l105 0 l0 -186 l-291 0 l0 -80 l-80 0 l0 -187 l452 0 l0 -105 l-559 0 l0 664 Z" /><glyph glyph-name="" unicode="&#x30d3;" d="M260 139 l-79 0 l0 558 l79 0 l0 -291 l187 0 l0 105 l265 0 l0 -107 l-265 0 l0 -78 l-186 0 l0 -106 l80 0 l0 -81 l477 0 l0 -105 l-558 0 l0 105 ZM713 776 l105 0 l0 -184 l-105 0 l0 184 Z" /><glyph glyph-name="" unicode="&#x30d4;" d="M236 139 l556 0 l0 -105 l-556 0 l0 105 ZM129 697 l105 0 l0 -291 l188 0 l0 105 l265 0 l0 81 l106 0 l0 105 l78 0 l0 -105 l-78 0 l0 -81 l-106 0 l0 -105 l-265 0 l0 -80 l-188 0 l0 -186 l-105 0 l0 557 ZM607 698 l80 0 l0 78 l105 0 l0 -78 l-105 0 l0 -106 l-80 0 l0 106 Z" /><glyph glyph-name="" unicode="&#x30d5;" d="M261 139 l186 0 l0 81 l106 0 l0 106 l79 0 l0 78 l105 0 l0 107 l-556 0 l0 81 l558 0 l0 105 l79 0 l0 -293 l-79 0 l0 -184 l-107 0 l0 -81 l-79 0 l0 -105 l-292 0 l0 105 Z" /><glyph glyph-name="" unicode="&#x30d6;" d="M208 140 l187 0 l0 81 l106 0 l0 107 l78 0 l0 184 l-450 0 l0 81 l638 0 l0 184 l104 0 l0 -184 l-104 0 l0 -81 l-81 0 l0 -184 l-107 0 l0 -188 l-184 0 l0 -106 l-81 0 l0 -79 l-106 0 l0 185 Z" /><glyph glyph-name="" unicode="&#x30d7;" d="M236 140 l186 0 l0 81 l79 0 l0 185 l105 0 l0 106 l-477 0 l0 81 l557 0 l0 184 l185 0 l0 -184 l-78 0 l0 -81 l-107 0 l0 -184 l-80 0 l0 -107 l-105 0 l0 -81 l-79 0 l0 -106 l-108 0 l0 -79 l-78 0 l0 185 Z" /><glyph glyph-name="" unicode="&#x30d8;" d="M793 220 l-106 0 l0 106 l184 0 l0 -186 l-78 0 l0 80 ZM129 406 l105 0 l0 106 l80 0 l0 80 l106 0 l0 -80 l-106 0 l0 -106 l-80 0 l0 -80 l-105 0 l0 80 ZM501 406 l-79 0 l0 105 l184 0 l0 -105 l80 0 l0 -80 l-185 0 l0 80 Z" /><glyph glyph-name="" unicode="&#x30d9;" d="M833 220 l-106 0 l0 106 l184 0 l0 -186 l-78 0 l0 80 ZM89 406 l185 0 l0 106 l79 0 l0 80 l108 0 l0 -80 l185 0 l0 -106 l79 0 l0 -80 l-186 0 l0 78 l-265 0 l0 -78 l-185 0 l0 80 ZM727 592 l106 0 l0 106 l78 0 l0 -106 l-78 0 l0 -80 l-106 0 l0 80 Z" /><glyph glyph-name="" unicode="&#x30da;" d="M767 220 l-80 0 l0 106 l184 0 l0 -186 l-104 0 l0 80 ZM129 406 l105 0 l0 106 l80 0 l0 80 l108 0 l0 -80 l157 0 l0 -106 l107 0 l0 -80 l-185 0 l0 78 l-187 0 l0 -78 l-185 0 l0 80 ZM687 592 l80 0 l0 106 l104 0 l0 -186 l-184 0 l0 80 ZM581 698 l105 0 l0 78 l79 0 l0 -78 l-79 0 l0 -105 l-105 0 l0 105 Z" /><glyph glyph-name="" unicode="&#x30db;" d="M275 34 l80 0 l0 106 l105 0 l0 266 l-371 0 l0 106 l266 0 l0 186 l184 0 l0 -186 l293 0 l0 -106 l-105 0 l0 -78 l106 0 l0 -107 l78 0 l0 -79 l-184 0 l0 79 l-80 0 l0 185 l-108 0 l0 -372 l-78 0 l0 -79 l-186 0 l0 79 ZM89 221 l79 0 l0 105 l106 0 l0 -105 l-106 0 l0 -79 l-79 0 l0 79 Z" /><glyph glyph-name="" unicode="&#x30dc;" d="M315 139 l185 0 l0 265 l-185 0 l0 -184 l-107 0 l0 -80 l-79 0 l0 80 l79 0 l0 186 l-79 0 l0 105 l372 0 l0 186 l78 0 l0 -186 l292 0 l0 -105 l-184 0 l0 -80 l-108 0 l0 -292 l-264 0 l0 105 ZM767 220 l104 0 l0 -80 l-104 0 l0 80 ZM687 325 l78 0 l0 -105 l-78 0 l0 105 ZM687 698 l80 0 l0 78 l104 0 l0 -78 l-104 0 l0 -106 l-80 0 l0 106 Z" /><glyph glyph-name="" unicode="&#x30dd;" d="M355 406 l-266 0 l0 106 l266 0 l0 186 l184 0 l0 -186 l293 0 l0 -106 l-185 0 l0 -78 l-108 0 l0 -294 l-78 0 l0 -79 l-106 0 l0 451 ZM89 221 l79 0 l0 105 l107 0 l0 -105 l-107 0 l0 -79 l-79 0 l0 79 ZM727 220 l105 0 l0 -78 l-105 0 l0 78 ZM648 326 l79 0 l0 -105 l-79 0 l0 105 ZM727 699 l-79 0 l0 78 l263 0 l0 -78 l-78 0 l0 -106 l-106 0 l0 106 Z" /><glyph glyph-name="" unicode="&#x30de;" d="M501 139 l-79 0 l0 81 l-107 0 l0 106 l291 0 l0 80 l81 0 l0 105 l-558 0 l0 81 l742 0 l0 -81 l-78 0 l0 -105 l-106 0 l0 -80 l-81 0 l0 -292 l-105 0 l0 105 Z" /><glyph glyph-name="" unicode="&#x30df;" d="M605 34 l-186 0 l0 106 l-105 0 l0 80 l185 0 l0 -80 l186 0 l0 -185 l-80 0 l0 79 ZM419 406 l-105 0 l0 106 l185 0 l0 -106 l106 0 l0 -78 l-186 0 l0 78 ZM421 698 l264 0 l0 -105 l-264 0 l0 105 Z" /><glyph glyph-name="" unicode="&#x30e0;" d="M129 139 l105 0 l0 81 l81 0 l0 291 l107 0 l0 186 l184 0 l0 -105 l-105 0 l0 -186 l-79 0 l0 -186 l265 0 l0 105 l106 0 l0 -105 l78 0 l0 -186 l-78 0 l0 105 l-371 0 l0 -105 l-293 0 l0 105 ZM607 404 l80 0 l0 -78 l-80 0 l0 78 Z" /><glyph glyph-name="" unicode="&#x30e1;" d="M234 139 l186 0 l0 81 l80 0 l0 186 l-78 0 l0 106 l265 0 l0 186 l78 0 l0 -186 l-78 0 l0 -186 l78 0 l0 -106 l-265 0 l0 -81 l-80 0 l0 -105 l-186 0 l0 105 Z" /><glyph glyph-name="" unicode="&#x30e2;" d="M395 326 l-266 0 l0 80 l264 0 l0 186 l-184 0 l0 105 l556 0 l0 -105 l-264 0 l0 -186 l370 0 l0 -80 l-370 0 l0 -187 l264 0 l0 -105 l-370 0 l0 292 Z" /><glyph glyph-name="" unicode="&#x30e3;" d="M395 406 l-266 0 l0 105 l266 0 l0 81 l106 0 l0 -80 l80 0 l0 80 l290 0 l0 -81 l-104 0 l0 -185 l-80 0 l0 185 l-106 0 l0 -105 l-80 0 l0 -372 l-106 0 l0 372 ZM315 697 l78 0 l0 -105 l-78 0 l0 105 Z" /><glyph glyph-name="" unicode="&#x30e4;" d="M514 34 l-107 0 l0 373 l-372 0 l0 105 l293 0 l0 187 l79 0 l0 -106 l107 0 l0 -80 l80 0 l0 80 l372 0 l0 -81 l-80 0 l0 -105 l-106 0 l0 -186 l-186 0 l0 107 l106 0 l0 79 l80 0 l0 105 l-186 0 l0 -105 l-80 0 l0 -267 l80 0 l0 -185 l-80 0 l0 79 Z" /><glyph glyph-name="" unicode="&#x30e5;" d="M141 220 l453 0 l0 292 l-292 0 l0 80 l371 0 l0 -372 l186 0 l0 -80 l-718 0 l0 80 Z" /><glyph glyph-name="" unicode="&#x30e6;" d="M792 139 l-663 0 l0 81 l477 0 l0 291 l-370 0 l0 81 l450 0 l0 -372 l185 0 l0 -186 l-79 0 l0 105 Z" /><glyph glyph-name="" unicode="&#x30e7;" d="M368 220 l265 0 l0 106 l-265 0 l0 80 l265 0 l0 106 l-372 0 l0 80 l478 0 l0 -452 l-371 0 l0 80 Z" /><glyph glyph-name="" unicode="&#x30e8;" d="M221 139 l478 0 l0 187 l-478 0 l0 80 l478 0 l0 186 l-478 0 l0 106 l558 0 l0 -664 l-558 0 l0 105 Z" /><glyph glyph-name="" unicode="&#x30e9;" d="M315 34 l105 0 l0 106 l81 0 l0 81 l105 0 l0 107 l80 0 l0 78 l-557 0 l0 106 l742 0 l0 -106 l-79 0 l0 -185 l-106 0 l0 -81 l-80 0 l0 -106 l-105 0 l0 -79 l-186 0 l0 79 ZM236 698 l555 0 l0 -105 l-555 0 l0 105 Z" /><glyph glyph-name="" unicode="&#x30ea;" d="M421 34 l79 0 l0 106 l107 0 l0 637 l78 0 l0 -637 l-78 0 l0 -185 l-186 0 l0 79 ZM314 698 l105 0 l0 -477 l-105 0 l0 477 Z" /><glyph glyph-name="" unicode="&#x30eb;" d="M35 139 l80 0 l0 81 l106 0 l0 478 l186 0 l0 -186 l-106 0 l0 -373 l-80 0 l0 -105 l-186 0 l0 105 ZM488 698 l106 0 l0 -477 l79 0 l0 105 l187 0 l0 78 l106 0 l0 -78 l-106 0 l0 -106 l-80 0 l0 -81 l-186 0 l0 -105 l-106 0 l0 664 Z" /><glyph glyph-name="" unicode="&#x30ec;" d="M287 593 l-106 0 l0 105 l186 0 l0 -477 l187 0 l0 105 l186 0 l0 78 l78 0 l0 -78 l-78 0 l0 -106 l-186 0 l0 -81 l-187 0 l0 -105 l-80 0 l0 559 Z" /><glyph glyph-name="" unicode="&#x30ed;" d="M221 592 l558 0 l0 -558 l-79 0 l0 105 l-373 0 l0 -105 l-106 0 l0 558 ZM328 511 l0 -290 l371 0 l0 290 l-371 0 Z" /><glyph glyph-name="" unicode="&#x30ee;" d="M407 139 l107 0 l0 81 l80 0 l0 186 l105 0 l0 186 l-372 0 l0 -266 l-106 0 l0 372 l558 0 l0 -292 l-79 0 l0 -186 l-106 0 l0 -81 l-80 0 l0 -105 l-107 0 l0 105 Z" /><glyph glyph-name="" unicode="&#x30ef;" d="M393 34 l108 0 l0 106 l78 0 l0 188 l107 0 l0 264 l-478 0 l0 -264 l-79 0 l0 370 l742 0 l0 -105 l-106 0 l0 -372 l-79 0 l0 -81 l-107 0 l0 -106 l-78 0 l0 -79 l-108 0 l0 79 Z" /><glyph glyph-name="" unicode="&#x30f0;" d="M488 140 l106 0 l0 81 l-559 0 l0 107 l186 0 l0 184 l-105 0 l0 81 l372 0 l0 184 l185 0 l0 -184 l187 0 l0 -81 l-186 0 l0 -184 l292 0 l0 -107 l-293 0 l0 -266 l-185 0 l0 185 ZM301 512 l0 -184 l293 0 l0 184 l-293 0 Z" /><glyph glyph-name="" unicode="&#x30f1;" d="M129 139 l293 0 l0 267 l184 0 l0 105 l80 0 l0 81 l-450 0 l0 105 l556 0 l0 -186 l-106 0 l0 -105 l-80 0 l0 -80 l-105 0 l0 -187 l370 0 l0 -105 l-742 0 l0 105 Z" /><glyph glyph-name="" unicode="&#x30f2;" d="M275 34 l78 0 l0 106 l186 0 l0 81 l106 0 l0 105 l-477 0 l0 80 l557 0 l0 187 l-450 0 l0 105 l557 0 l0 -372 l-107 0 l0 -186 l-186 0 l0 -106 l-186 0 l0 -79 l-78 0 l0 79 Z" /><glyph glyph-name="" unicode="&#x30f3;" d="M129 139 l105 0 l0 81 l267 0 l0 106 l105 0 l0 80 l80 0 l0 105 l185 0 l0 -105 l-104 0 l0 -80 l-81 0 l0 -106 l-185 0 l0 -81 l-187 0 l0 -105 l-185 0 l0 105 ZM236 592 l184 0 l0 -80 l-184 0 l0 80 Z" /><glyph glyph-name="" unicode="&#x30f4;" d="M367 34 l80 0 l0 106 l106 0 l0 81 l80 0 l0 186 l106 0 l0 105 l-479 0 l0 -184 l-185 0 l0 184 l105 0 l0 81 l267 0 l0 184 l106 0 l0 -184 l265 0 l0 106 l-78 0 l0 78 l185 0 l0 -184 l-105 0 l0 -265 l-81 0 l0 -188 l-106 0 l0 -106 l-80 0 l0 -79 l-186 0 l0 79 Z" /><glyph glyph-name="" unicode="&#x30f5;" d="M220 220 l106 0 l0 106 l81 0 l0 80 l-187 0 l0 106 l294 0 l0 186 l78 0 l0 -186 l-78 0 l0 -292 l-107 0 l0 -81 l-81 0 l0 -105 l-106 0 l0 186 ZM593 139 l105 0 l0 267 l-105 0 l0 105 l186 0 l0 -372 l-80 0 l0 -105 l-106 0 l0 105 Z" /><glyph glyph-name="" unicode="&#x30f6;" d="M275 139 l79 0 l0 81 l105 0 l0 184 l-186 0 l0 -78 l-105 0 l0 78 l105 0 l0 188 l81 0 l0 105 l105 0 l0 -105 l-105 0 l0 -81 l478 0 l0 -107 l-293 0 l0 -265 l-78 0 l0 -105 l-186 0 l0 105 Z" /><glyph glyph-name="" unicode="&#x3105;" d="M408 61 l185 0 l0 187 l80 0 l0 80 l-453 0 l0 106 l80 0 l0 186 l107 0 l0 79 l79 0 l0 -79 l-78 0 l0 -186 l371 0 l0 -186 l-106 0 l0 -187 l-80 0 l0 -106 l-185 0 l0 106 Z" /><glyph glyph-name="" unicode="&#x3106;" d="M261 61 l185 0 l0 81 l-78 0 l0 106 l185 0 l0 78 l-186 0 l0 -78 l-106 0 l0 265 l106 0 l0 107 l79 0 l0 -107 l-78 0 l0 -79 l371 0 l0 -106 l-106 0 l0 -267 l-187 0 l0 -106 l-185 0 l0 106 ZM633 61 l106 0 l0 -106 l-106 0 l0 106 Z" /><glyph glyph-name="" unicode="&#x3107;" d="M221 620 l558 0 l0 -665 l-106 0 l0 558 l-373 0 l0 -558 l-79 0 l0 665 Z" /><glyph glyph-name="" unicode="&#x3108;" d="M235 620 l345 0 l0 79 l105 0 l0 -79 l-105 0 l0 -107 l-265 0 l0 -452 l450 0 l0 -106 l-530 0 l0 665 Z" /><glyph glyph-name="" unicode="&#x3109;" d="M168 61 l105 0 l0 81 l80 0 l0 186 l-185 0 l0 106 l105 0 l0 81 l80 0 l0 184 l106 0 l0 -184 l-105 0 l0 -81 l292 0 l0 79 l80 0 l0 -79 l106 0 l0 -106 l-106 0 l0 -186 l-80 0 l0 -187 l-292 0 l0 106 l186 0 l0 81 l105 0 l0 186 l-186 0 l0 -186 l-106 0 l0 -81 l-80 0 l0 -106 l-105 0 l0 106 Z" /><glyph glyph-name="" unicode="&#x310a;" d="M275 248 l79 0 l0 80 l-79 0 l0 104 l79 0 l0 266 l106 0 l0 -266 l265 0 l0 -104 l-265 0 l0 -80 l-105 0 l0 -186 l186 0 l0 80 l105 0 l0 -81 l-105 0 l0 -106 l-266 0 l0 293 ZM647 61 l78 0 l0 -106 l-78 0 l0 106 Z" /><glyph glyph-name="" unicode="&#x310b;" d="M407 61 l106 0 l0 81 l81 0 l0 106 l105 0 l0 80 l-292 0 l0 106 l106 0 l0 79 l80 0 l0 107 l-80 0 l0 -105 l-292 0 l0 105 l292 0 l0 79 l186 0 l0 -186 l-105 0 l0 -79 l185 0 l0 -186 l-79 0 l0 -106 l-106 0 l0 -187 l-187 0 l0 106 Z" /><glyph glyph-name="" unicode="&#x310c;" d="M487 -45 l-80 0 l0 107 l187 0 l0 80 l78 0 l0 186 l-185 0 l0 -186 l-80 0 l0 -80 l-107 0 l0 -106 l-79 0 l0 106 l79 0 l0 80 l107 0 l0 187 l-186 0 l0 186 l79 0 l0 106 l107 0 l0 -106 l-106 0 l0 -80 l186 0 l0 266 l107 0 l0 -266 l185 0 l0 -293 l-106 0 l0 -187 l-79 0 l0 -78 l-107 0 l0 78 Z" /><glyph glyph-name="" unicode="&#x310d;" d="M407 61 l80 0 l0 -106 l-80 0 l0 106 ZM673 61 l-79 0 l0 187 l79 0 l0 -106 l106 0 l0 -187 l-106 0 l0 106 ZM301 142 l106 0 l0 -80 l-106 0 l0 80 ZM221 434 l79 0 l0 79 l107 0 l0 107 l80 0 l0 -107 l-80 0 l0 -79 l-107 0 l0 -292 l-79 0 l0 292 ZM407 328 l187 0 l0 185 l79 0 l0 107 l106 0 l0 -107 l-106 0 l0 -185 l-79 0 l0 -80 l-187 0 l0 80 Z" /><glyph glyph-name="" unicode="&#x310e;" d="M407 62 l80 0 l0 80 l106 0 l0 107 l-292 0 l0 186 l106 0 l0 80 l-186 0 l0 106 l452 0 l0 80 l106 0 l0 -80 l-106 0 l0 -106 l-186 0 l0 -80 l-80 0 l0 -106 l187 0 l0 105 l78 0 l0 -292 l-78 0 l0 -187 l-107 0 l0 -78 l-80 0 l0 185 Z" /><glyph glyph-name="" unicode="&#x310f;" d="M181 61 l106 0 l0 265 l80 0 l0 292 l372 0 l0 80 l79 0 l0 -80 l-79 0 l0 -105 l-266 0 l0 -187 l-106 0 l0 -265 l-80 0 l0 -106 l-106 0 l0 106 Z" /><glyph glyph-name="" unicode="&#x3110;" d="M580 142 l-186 0 l0 -80 l-80 0 l0 451 l80 0 l0 -265 l186 0 l0 450 l105 0 l0 -743 l-105 0 l0 187 Z" /><glyph glyph-name="" unicode="&#x3111;" d="M593 61 l186 0 l0 -106 l-186 0 l0 106 ZM408 142 l184 0 l0 -80 l-184 0 l0 80 ZM327 248 l80 0 l0 -106 l-80 0 l0 106 ZM220 328 l106 0 l0 106 l81 0 l0 81 l107 0 l0 184 l78 0 l0 -184 l-78 0 l0 -81 l-107 0 l0 -106 l-81 0 l0 -80 l-106 0 l0 80 Z" /><glyph glyph-name="" unicode="&#x3112;" d="M407 515 l-187 0 l0 105 l559 0 l0 -105 l-265 0 l0 -560 l-107 0 l0 560 Z" /><glyph glyph-name="" unicode="&#x3113;" d="M181 61 l265 0 l0 81 l-184 0 l0 106 l185 0 l0 370 l106 0 l0 -370 l80 0 l0 264 l106 0 l0 -370 l-185 0 l0 -81 l264 0 l0 -106 l-637 0 l0 106 ZM181 512 l80 0 l0 -264 l-80 0 l0 264 Z" /><glyph glyph-name="" unicode="&#x3114;" d="M486 142 l-79 0 l0 -80 l-187 0 l0 80 l187 0 l0 106 l79 0 l0 80 l107 0 l0 106 l80 0 l0 79 l106 0 l0 -79 l-106 0 l0 -106 l-80 0 l0 -373 l-107 0 l0 187 ZM301 434 l106 0 l0 81 l79 0 l0 105 l106 0 l0 -105 l-106 0 l0 -81 l-79 0 l0 -106 l-106 0 l0 106 Z" /><glyph glyph-name="" unicode="&#x3115;" d="M220 142 l106 0 l0 292 l372 0 l0 186 l-478 0 l0 79 l559 0 l0 -265 l-80 0 l0 -106 l-292 0 l0 -186 l-81 0 l0 -187 l-106 0 l0 187 Z" /><glyph glyph-name="" unicode="&#x3116;" d="M261 513 l106 0 l0 107 l266 0 l0 79 l106 0 l0 -744 l-478 0 l0 558 ZM368 513 l0 -451 l265 0 l0 186 l-79 0 l0 80 l79 0 l0 185 l-265 0 ZM449 432 l104 0 l0 -104 l-104 0 l0 104 Z" /><glyph glyph-name="" unicode="&#x3117;" d="M299 515 l-79 0 l0 105 l373 0 l0 79 l78 0 l0 -79 l-78 0 l0 -105 l-186 0 l0 -560 l-108 0 l0 560 ZM487 328 l106 0 l0 106 l80 0 l0 186 l106 0 l0 -186 l-106 0 l0 -186 l-186 0 l0 80 Z" /><glyph glyph-name="" unicode="&#x3118;" d="M487 61 l105 0 l0 81 l-185 0 l0 186 l-187 0 l0 106 l266 0 l0 265 l106 0 l0 -265 l-105 0 l0 -186 l292 0 l0 -106 l-106 0 l0 -81 l-80 0 l0 -106 l-106 0 l0 106 ZM593 434 l80 0 l0 79 l106 0 l0 -79 l-106 0 l0 -106 l-80 0 l0 106 Z" /><glyph glyph-name="" unicode="&#x3119;" d="M220 142 l79 0 l0 106 l108 0 l0 80 l79 0 l0 104 l106 0 l0 -104 l-106 0 l0 -80 l-79 0 l0 -106 l-107 0 l0 -80 l373 0 l0 80 l106 0 l0 -187 l-559 0 l0 187 ZM593 248 l78 0 l0 -106 l-78 0 l0 106 ZM408 620 l78 0 l0 -186 l-78 0 l0 186 Z" /><glyph glyph-name="" unicode="&#x311a;" d="M422 328 l78 0 l0 106 l-78 0 l0 79 l157 0 l0 107 l186 0 l0 -107 l-186 0 l0 -185 l-79 0 l0 -373 l-78 0 l0 373 ZM234 620 l186 0 l0 -105 l-186 0 l0 105 Z" /><glyph glyph-name="" unicode="&#x311b;" d="M327 61 l372 0 l0 -106 l-372 0 l0 106 ZM220 328 l187 0 l0 187 l-187 0 l0 105 l481 0 l0 79 l78 0 l0 -79 l-78 0 l0 -105 l-187 0 l0 -187 l-107 0 l0 -80 l-81 0 l0 -186 l-106 0 l0 266 Z" /><glyph glyph-name="" unicode="&#x311c;" d="M408 -45 l185 0 l0 107 l106 0 l0 -107 l-106 0 l0 -78 l-185 0 l0 78 ZM328 62 l79 0 l0 -106 l-79 0 l0 106 ZM220 249 l107 0 l0 80 l187 0 l0 106 l-294 0 l0 80 l187 0 l0 106 l107 0 l0 80 l78 0 l0 -80 l-78 0 l0 -106 l265 0 l0 -80 l-186 0 l0 -186 l-266 0 l0 -186 l-107 0 l0 186 Z" /><glyph glyph-name="" unicode="&#x311d;" d="M354 61 l-79 0 l0 187 l-107 0 l0 78 l186 0 l0 106 l185 0 l0 266 l107 0 l0 -266 l186 0 l0 -106 l-293 0 l0 -184 l-78 0 l0 -81 l185 0 l0 -106 l-292 0 l0 106 ZM354 326 l0 -184 l105 0 l0 184 l-105 0 ZM276 698 l78 0 l0 -264 l-78 0 l0 264 Z" /><glyph glyph-name="" unicode="&#x311e;" d="M220 61 l80 0 l0 81 l107 0 l0 106 l-187 0 l0 186 l80 0 l0 81 l-80 0 l0 105 l373 0 l0 79 l186 0 l0 -79 l-186 0 l0 -186 l186 0 l0 -292 l-106 0 l0 -81 l-80 0 l0 -106 l-106 0 l0 106 l106 0 l0 81 l80 0 l0 184 l-187 0 l0 -184 l-79 0 l0 -81 l-107 0 l0 -106 l-80 0 l0 106 ZM301 434 l0 -106 l185 0 l0 185 l-79 0 l0 -79 l-106 0 Z" /><glyph glyph-name="" unicode="&#x311f;" d="M673 61 l106 0 l0 -106 l-106 0 l0 106 ZM593 248 l80 0 l0 -186 l-80 0 l0 186 ZM486 515 l-266 0 l0 105 l372 0 l0 -372 l-106 0 l0 267 Z" /><glyph glyph-name="" unicode="&#x3120;" d="M220 61 l80 0 l0 81 l107 0 l0 106 l-187 0 l0 80 l80 0 l0 106 l107 0 l0 186 l79 0 l0 -186 l-78 0 l0 -106 l185 0 l0 185 l80 0 l0 -185 l-80 0 l0 -186 l-185 0 l0 -80 l185 0 l0 80 l80 0 l0 -81 l-80 0 l0 -106 l-373 0 l0 106 ZM673 61 l106 0 l0 -106 l-106 0 l0 106 Z" /><glyph glyph-name="" unicode="&#x3121;" d="M234 61 l80 0 l0 81 l106 0 l0 106 l80 0 l0 80 l-78 0 l0 106 l183 0 l0 79 l-185 0 l0 -79 l-106 0 l0 79 l-80 0 l0 107 l372 0 l0 79 l80 0 l0 -265 l-80 0 l0 -186 l-106 0 l0 -106 l-80 0 l0 -81 l-106 0 l0 -106 l-80 0 l0 106 ZM687 61 l-81 0 l0 187 l81 0 l0 -106 l78 0 l0 -187 l-78 0 l0 106 Z" /><glyph glyph-name="" unicode="&#x3122;" d="M514 61 l80 0 l0 81 l105 0 l0 106 l-292 0 l0 -106 l-79 0 l0 106 l79 0 l0 78 l372 0 l0 -184 l-79 0 l0 -81 l-106 0 l0 -106 l-80 0 l0 106 ZM221 328 l106 0 l0 292 l186 0 l0 79 l186 0 l0 -265 l-105 0 l0 186 l-81 0 l0 -107 l-106 0 l0 -185 l-80 0 l0 -80 l-106 0 l0 80 Z" /><glyph glyph-name="" unicode="&#x3123;" d="M594 142 l105 0 l0 106 l-478 0 l0 451 l106 0 l0 -371 l452 0 l0 -186 l-79 0 l0 -187 l-106 0 l0 187 Z" /><glyph glyph-name="" unicode="&#x3124;" d="M221 61 l106 0 l0 267 l-106 0 l0 106 l186 0 l0 265 l106 0 l0 -265 l81 0 l0 79 l105 0 l0 -79 l-105 0 l0 -186 l-81 0 l0 -187 l-186 0 l0 -106 l-106 0 l0 106 ZM514 61 l265 0 l0 -106 l-265 0 l0 106 ZM407 326 l0 -78 l106 0 l0 78 l-106 0 Z" /><glyph glyph-name="" unicode="&#x3125;" d="M221 61 l79 0 l0 187 l107 0 l0 80 l80 0 l0 185 l107 0 l0 107 l78 0 l0 -107 l-78 0 l0 -185 l-107 0 l0 -80 l-80 0 l0 -187 l372 0 l0 -106 l-558 0 l0 106 Z" /><glyph glyph-name="" unicode="&#x3126;" d="M221 142 l79 0 l0 478 l107 0 l0 -478 l-107 0 l0 -187 l-79 0 l0 187 ZM594 61 l185 0 l0 -106 l-185 0 l0 106 ZM487 699 l106 0 l0 -637 l-106 0 l0 637 Z" /><glyph glyph-name="" unicode="&#x3127;" d="M407 618 l106 0 l0 78 l80 0 l0 -78 l-80 0 l0 -663 l-106 0 l0 663 Z" /><glyph glyph-name="" unicode="&#x3128;" d="M221 61 l106 0 l0 81 l80 0 l0 106 l106 0 l0 80 l-185 0 l0 106 l266 0 l0 265 l105 0 l0 -265 l-105 0 l0 -186 l-81 0 l0 -106 l-106 0 l0 -81 l-80 0 l0 -106 l-106 0 l0 106 ZM700 61 l-106 0 l0 187 l106 0 l0 -106 l79 0 l0 -187 l-79 0 l0 106 ZM221 513 l106 0 l0 -79 l-106 0 l0 79 Z" /><glyph glyph-name="" unicode="&#x3129;" d="M221 328 l79 0 l0 292 l107 0 l0 -292 l-106 0 l0 -266 l372 0 l0 558 l106 0 l0 -665 l-558 0 l0 373 ZM594 699 l78 0 l0 -78 l-78 0 l0 78 Z" /><glyph glyph-name="" unicode="&#x3220;" d="M36 805 l105 0 l0 -850 l-105 0 l0 850 ZM781 140 l79 0 l0 478 l105 0 l0 -478 l-105 0 l0 -185 l-79 0 l0 185 ZM222 432 l557 0 l0 -104 l-557 0 l0 104 ZM781 805 l78 0 l0 -185 l-78 0 l0 185 Z" /><glyph glyph-name="" unicode="&#x3221;" d="M36 805 l79 0 l0 -850 l-79 0 l0 850 ZM781 140 l79 0 l0 478 l105 0 l0 -478 l-105 0 l0 -185 l-79 0 l0 185 ZM302 140 l372 0 l0 -78 l-372 0 l0 78 ZM302 618 l292 0 l0 -105 l-292 0 l0 105 ZM781 805 l78 0 l0 -185 l-78 0 l0 185 Z" /><glyph glyph-name="" unicode="&#x3222;" d="M36 805 l79 0 l0 -850 l-79 0 l0 850 ZM781 61 l-559 0 l0 79 l638 0 l0 478 l105 0 l0 -478 l-105 0 l0 -185 l-79 0 l0 106 ZM302 432 l372 0 l0 -104 l-372 0 l0 104 ZM222 699 l559 0 l0 106 l78 0 l0 -185 l-637 0 l0 79 Z" /><glyph glyph-name="" unicode="&#x3223;" d="M36 805 l79 0 l0 -850 l-79 0 l0 850 ZM781 61 l-559 0 l0 638 l559 0 l0 106 l78 0 l0 -187 l-78 0 l0 -476 l79 0 l0 476 l105 0 l0 -478 l-105 0 l0 -185 l-79 0 l0 106 ZM302 247 l0 -105 l372 0 l0 105 l-186 0 l0 185 l-80 0 l0 -185 l-106 0 ZM302 618 l0 -184 l105 0 l0 184 l-105 0 ZM594 618 l0 -184 l80 0 l0 184 l-80 0 Z" /><glyph glyph-name="" unicode="&#x3224;" d="M49 805 l79 0 l0 -850 l-79 0 l0 850 ZM766 61 l-531 0 l0 79 l80 0 l0 294 l78 0 l0 184 l-78 0 l0 81 l372 0 l0 -81 l-186 0 l0 -184 l-107 0 l0 -292 l186 0 l0 186 l-79 0 l0 104 l186 0 l0 -290 l186 0 l0 476 l79 0 l0 -478 l-79 0 l0 -185 l-107 0 l0 106 ZM766 805 l105 0 l0 -185 l-105 0 l0 185 Z" /><glyph glyph-name="" unicode="&#x3225;" d="M35 805 l105 0 l0 -850 l-105 0 l0 850 ZM780 61 l-79 0 l0 79 l185 0 l0 478 l80 0 l0 -478 l-80 0 l0 -185 l-106 0 l0 106 ZM223 140 l105 0 l0 186 l79 0 l0 -186 l-79 0 l0 -78 l-105 0 l0 78 ZM594 326 l106 0 l0 -184 l-106 0 l0 184 ZM328 512 l79 0 l0 187 l106 0 l0 -187 l-106 0 l0 -78 l-79 0 l0 78 ZM514 512 l186 0 l0 -78 l-186 0 l0 78 ZM780 805 l105 0 l0 -185 l-105 0 l0 185 Z" /><glyph glyph-name="" unicode="&#x3226;" d="M35 805 l105 0 l0 -850 l-105 0 l0 850 ZM514 61 l186 0 l0 186 l80 0 l0 -105 l106 0 l0 476 l80 0 l0 -478 l-80 0 l0 -185 l-106 0 l0 106 l-80 0 l0 -106 l-186 0 l0 106 ZM407 434 l-184 0 l0 78 l184 0 l0 187 l107 0 l0 -187 l266 0 l0 -78 l-266 0 l0 -372 l-107 0 l0 372 ZM780 805 l105 0 l0 -185 l-105 0 l0 185 Z" /><glyph glyph-name="" unicode="&#x3227;" d="M35 805 l105 0 l0 -743 l81 0 l0 185 l107 0 l0 265 l79 0 l0 -265 l-79 0 l0 -186 l-107 0 l0 -106 l-186 0 l0 850 ZM780 61 l-79 0 l0 79 l185 0 l0 478 l80 0 l0 -478 l-80 0 l0 -185 l-106 0 l0 106 ZM594 512 l106 0 l0 -370 l-106 0 l0 370 ZM514 699 l80 0 l0 -186 l-80 0 l0 186 ZM780 805 l105 0 l0 -185 l-105 0 l0 185 Z" /><glyph glyph-name="" unicode="&#x3228;" d="M35 805 l79 0 l0 -850 l-79 0 l0 850 ZM594 61 l79 0 l0 79 l187 0 l0 478 l106 0 l0 -478 l-106 0 l0 -185 l-80 0 l0 106 l-107 0 l0 -106 l-79 0 l0 106 ZM223 140 l78 0 l0 188 l106 0 l0 106 l-106 0 l0 78 l106 0 l0 293 l80 0 l0 -293 l186 0 l0 -265 l-79 0 l0 -185 l-107 0 l0 185 l107 0 l0 185 l-107 0 l0 -104 l-80 0 l0 -188 l-106 0 l0 -78 l-78 0 l0 78 ZM780 805 l78 0 l0 -185 l-78 0 l0 185 Z" /><glyph glyph-name="" unicode="&#x3229;" d="M35 805 l79 0 l0 -850 l-79 0 l0 850 ZM780 140 l80 0 l0 478 l106 0 l0 -478 l-106 0 l0 -185 l-80 0 l0 185 ZM407 328 l-106 0 l0 106 l106 0 l0 265 l80 0 l0 -265 l186 0 l0 -106 l-186 0 l0 -266 l-80 0 l0 266 ZM780 805 l78 0 l0 -185 l-78 0 l0 185 Z" /><glyph glyph-name="" unicode="&#x4e00;" d="M129 400 l742 0 l0 -79 l-742 0 l0 79 Z" /><glyph glyph-name="" unicode="&#x4e01;" d="M316 68 l105 0 l0 106 l78 0 l0 451 l-370 0 l0 106 l742 0 l0 -106 l-266 0 l0 -557 l-184 0 l0 -79 l-105 0 l0 79 Z" /><glyph glyph-name="" unicode="&#x4e03;" d="M540 41 l292 0 l0 80 l79 0 l0 -80 l-79 0 l0 -105 l-292 0 l0 105 ZM460 306 l-371 0 l0 107 l371 0 l0 371 l79 0 l0 -291 l372 0 l0 -80 l-372 0 l0 -371 l-79 0 l0 264 Z" /><glyph glyph-name="" unicode="&#x4e07;" d="M129 123 l106 0 l0 105 l78 0 l0 372 l-184 0 l0 78 l742 0 l0 -78 l-450 0 l0 -107 l371 0 l0 -450 l-292 0 l0 80 l184 0 l0 290 l-263 0 l0 -185 l-107 0 l0 -185 l-185 0 l0 80 Z" /><glyph glyph-name="" unicode="&#x4e08;" d="M129 41 l186 0 l0 79 l79 0 l0 107 l105 0 l0 265 l-184 0 l0 -78 l-107 0 l0 79 l-79 0 l0 106 l371 0 l0 186 l80 0 l0 -186 l291 0 l0 -106 l-291 0 l0 -266 l-80 0 l0 -107 l-106 0 l0 -79 l-79 0 l0 -105 l-186 0 l0 105 ZM766 41 l105 0 l0 -105 l-105 0 l0 105 ZM501 120 l264 0 l0 -78 l-264 0 l0 78 ZM315 413 l78 0 l0 -186 l-78 0 l0 186 Z" /><glyph glyph-name="" unicode="&#x4e09;" d="M129 121 l742 0 l0 -78 l-742 0 l0 78 ZM236 413 l556 0 l0 -106 l-556 0 l0 106 ZM129 677 l742 0 l0 -78 l-742 0 l0 78 Z" /><glyph glyph-name="" unicode="&#x4e0a;" d="M49 29 l371 0 l0 742 l80 0 l0 -265 l371 0 l0 -106 l-370 0 l0 -371 l450 0 l0 -79 l-902 0 l0 79 Z" /><glyph glyph-name="" unicode="&#x4e0b;" d="M367 626 l-185 0 l0 105 l556 0 l0 -105 l-292 0 l0 -637 l-79 0 l0 637 ZM739 360 l78 0 l0 -78 l-78 0 l0 78 ZM633 465 l105 0 l0 -104 l-105 0 l0 104 ZM554 546 l78 0 l0 -79 l-78 0 l0 79 Z" /><glyph glyph-name="" unicode="&#x4e0c;" d="M236 135 l79 0 l0 451 l-186 0 l0 105 l742 0 l0 -105 l-185 0 l0 -557 l-81 0 l0 556 l-184 0 l0 -450 l-106 0 l0 -106 l-79 0 l0 106 Z" /><glyph glyph-name="" unicode="&#x4e0d;" d="M421 359 l-106 0 l0 -78 l-80 0 l0 -105 l-106 0 l0 105 l106 0 l0 79 l80 0 l0 107 l106 0 l0 79 l78 0 l0 106 l-263 0 l0 79 l556 0 l0 -79 l-187 0 l0 -106 l-105 0 l0 -557 l-79 0 l0 370 ZM792 359 l79 0 l0 -183 l-79 0 l0 183 ZM686 466 l106 0 l0 -106 l-106 0 l0 106 ZM606 545 l79 0 l0 -78 l-79 0 l0 78 Z" /><glyph glyph-name="" unicode="&#x4e0e;" d="M606 28 l78 0 l0 107 l-555 0 l0 79 l555 0 l0 106 l-449 0 l0 451 l78 0 l0 -80 l558 0 l0 -105 l-557 0 l0 -186 l477 0 l0 -451 l-185 0 l0 79 Z" /><glyph glyph-name="" unicode="&#x4e10;" d="M581 68 l104 0 l0 186 l-449 0 l0 106 l184 0 l0 264 l-105 0 l0 -185 l-80 0 l0 -79 l-106 0 l0 79 l105 0 l0 186 l-105 0 l0 106 l742 0 l0 -106 l-371 0 l0 -81 l185 0 l0 -105 l-185 0 l0 -79 l371 0 l0 -106 l-106 0 l0 -265 l-184 0 l0 79 Z" /><glyph glyph-name="" unicode="&#x4e11;" d="M89 135 l185 0 l0 79 l106 0 l0 107 l-184 0 l0 79 l184 0 l0 185 l-184 0 l0 106 l530 0 l0 -556 l185 0 l0 -106 l-822 0 l0 106 ZM382 214 l0 -78 l263 0 l0 184 l-185 0 l0 -106 l-78 0 ZM461 584 l0 -183 l184 0 l0 183 l-184 0 Z" /><glyph glyph-name="" unicode="&#x4e13;" d="M606 41 l78 0 l0 -105 l-78 0 l0 105 ZM314 120 l291 0 l0 107 l-292 0 l0 -106 l-78 0 l0 106 l78 0 l0 187 l-184 0 l0 79 l290 0 l0 106 l-290 0 l0 80 l290 0 l0 106 l81 0 l0 -106 l291 0 l0 -80 l-290 0 l0 -106 l370 0 l0 -79 l-451 0 l0 -107 l371 0 l0 -80 l-106 0 l0 -107 l-79 0 l0 -78 l-292 0 l0 78 Z" /><glyph glyph-name="" unicode="&#x4e14;" d="M129 123 l79 0 l0 555 l557 0 l0 -555 l106 0 l0 -80 l-742 0 l0 80 ZM315 228 l0 -105 l369 0 l0 105 l-369 0 ZM315 413 l0 -105 l369 0 l0 105 l-369 0 ZM315 599 l0 -105 l369 0 l0 105 l-369 0 Z" /><glyph glyph-name="" unicode="&#x4e15;" d="M129 134 l742 0 l0 -105 l-742 0 l0 105 ZM129 321 l80 0 l0 79 l106 0 l0 105 l79 0 l0 81 l-265 0 l0 105 l635 0 l0 -105 l-264 0 l0 -371 l-106 0 l0 184 l-79 0 l0 -78 l-106 0 l0 -106 l-80 0 l0 106 ZM765 320 l106 0 l0 -105 l-106 0 l0 105 ZM686 399 l78 0 l0 -78 l-78 0 l0 78 ZM581 505 l104 0 l0 -105 l-104 0 l0 105 Z" /><glyph glyph-name="" unicode="&#x4e16;" d="M221 400 l-185 0 l0 105 l185 0 l0 186 l106 0 l0 -185 l80 0 l0 265 l106 0 l0 -265 l80 0 l0 185 l106 0 l0 80 l79 0 l0 -80 l-78 0 l0 -186 l264 0 l0 -105 l-264 0 l0 -187 l78 0 l0 -78 l-371 0 l0 264 l-79 0 l0 -371 l555 0 l0 -79 l-662 0 l0 451 ZM514 399 l0 -185 l79 0 l0 185 l-79 0 Z" /><glyph glyph-name="" unicode="&#x4e18;" d="M129 69 l106 0 l0 556 l449 0 l0 106 l106 0 l0 -106 l-106 0 l0 -79 l-369 0 l0 -186 l556 0 l0 -106 l-186 0 l0 -185 l105 0 l0 -80 l-661 0 l0 80 ZM315 254 l0 -185 l290 0 l0 185 l-290 0 Z" /><glyph glyph-name="" unicode="&#x4e19;" d="M129 506 l291 0 l0 185 l-291 0 l0 80 l742 0 l0 -80 l-371 0 l0 -185 l186 0 l0 78 l106 0 l0 -635 l-106 0 l0 186 l-80 0 l0 185 l79 0 l0 106 l-80 0 l0 -106 l-105 0 l0 -79 l-79 0 l0 -105 l-105 0 l0 105 l104 0 l0 185 l-185 0 l0 -477 l-106 0 l0 557 Z" /><glyph glyph-name="" unicode="&#x4e1a;" d="M235 94 l78 0 l0 79 l-78 0 l0 187 l78 0 l0 292 l106 0 l0 79 l265 0 l0 -79 l-78 0 l0 -558 l185 0 l0 -105 l-556 0 l0 105 ZM420 651 l0 -556 l79 0 l0 556 l-79 0 ZM686 360 l106 0 l0 184 l79 0 l0 -184 l-79 0 l0 -186 l-106 0 l0 186 ZM129 544 l105 0 l0 -183 l-105 0 l0 183 Z" /><glyph glyph-name="" unicode="&#x4e1b;" d="M76 29 l291 0 l0 106 l79 0 l0 79 l-78 0 l0 107 l185 0 l0 450 l80 0 l0 -371 l105 0 l0 -185 l-105 0 l0 105 l-80 0 l0 -185 l-106 0 l0 -106 l370 0 l0 -79 l-741 0 l0 79 ZM76 214 l105 0 l0 371 l80 0 l0 186 l106 0 l0 -186 l-105 0 l0 -185 l105 0 l0 -79 l-106 0 l0 -107 l-80 0 l0 -78 l-105 0 l0 78 ZM739 214 l184 0 l0 -78 l-184 0 l0 78 Z" /><glyph glyph-name="" unicode="&#x4e1c;" d="M420 28 l79 0 l0 293 l-370 0 l0 79 l106 0 l0 105 l78 0 l0 81 l-184 0 l0 105 l291 0 l0 80 l80 0 l0 -80 l371 0 l0 -105 l-451 0 l0 -81 l-105 0 l0 -104 l185 0 l0 104 l105 0 l0 -105 l266 0 l0 -79 l-265 0 l0 -106 l158 0 l0 -80 l-159 0 l0 -185 l-185 0 l0 78 ZM129 135 l106 0 l0 80 l184 0 l0 -80 l-105 0 l0 -106 l-185 0 l0 106 ZM764 134 l107 0 l0 -105 l-107 0 l0 105 Z" /><glyph glyph-name="" unicode="&#x4e1d;" d="M129 28 l742 0 l0 -78 l-742 0 l0 78 ZM129 215 l80 0 l0 79 l106 0 l0 106 l-186 0 l0 79 l80 0 l0 186 l106 0 l0 106 l79 0 l0 -106 l-78 0 l0 -185 l78 0 l0 105 l106 0 l0 -105 l80 0 l0 185 l106 0 l0 106 l78 0 l0 -106 l-78 0 l0 -186 l-106 0 l0 -79 l-186 0 l0 -106 l-78 0 l0 -79 l264 0 l0 185 l106 0 l0 79 l79 0 l0 106 l106 0 l0 -106 l-106 0 l0 -185 l-79 0 l0 -79 l78 0 l0 -79 l-635 0 l0 79 Z" /><glyph glyph-name="" unicode="&#x4e1e;" d="M236 95 l78 0 l0 80 l105 0 l0 105 l-105 0 l0 -105 l-79 0 l0 -79 l-106 0 l0 79 l106 0 l0 106 l78 0 l0 79 l-184 0 l0 105 l291 0 l0 81 l185 0 l0 106 l-369 0 l0 79 l635 0 l0 -79 l-80 0 l0 -106 l-186 0 l0 -186 l-105 0 l0 -264 l291 0 l0 79 l80 0 l0 -80 l-80 0 l0 -106 l-555 0 l0 106 ZM685 280 l105 0 l0 -104 l-105 0 l0 104 ZM606 360 l78 0 l0 105 l106 0 l0 -105 l-106 0 l0 -79 l-78 0 l0 79 ZM420 465 l0 -105 l79 0 l0 105 l-79 0 Z" /><glyph glyph-name="" unicode="&#x4e22;" d="M315 28 l369 0 l0 106 l106 0 l0 -106 l-106 0 l0 -78 l-369 0 l0 78 ZM236 135 l77 0 l0 80 l-184 0 l0 106 l290 0 l0 79 l-183 0 l0 105 l183 0 l0 81 l-183 0 l0 105 l369 0 l0 80 l185 0 l0 -80 l-185 0 l0 -105 l-105 0 l0 -81 l184 0 l0 -105 l-184 0 l0 -79 l371 0 l0 -106 l-187 0 l0 -79 l-79 0 l0 79 l-185 0 l0 -80 l-106 0 l0 -106 l-78 0 l0 106 Z" /><glyph glyph-name="" unicode="&#x4e24;" d="M118 550 l191 0 l0 109 l-82 0 l0 83 l545 0 l0 -83 l-81 0 l0 -109 l-81 0 l0 -190 l81 0 l0 -82 l-82 0 l0 -109 l-109 0 l0 108 l-190 0 l0 -109 l-83 0 l0 -190 l-109 0 l0 572 ZM692 87 l80 0 l0 81 l-80 0 l0 110 l80 0 l0 191 l-80 0 l0 81 l190 0 l0 -463 l-109 0 l0 -109 l-81 0 l0 109 ZM227 468 l0 -190 l82 0 l0 190 l-82 0 ZM419 468 l0 -107 l80 0 l0 107 l-80 0 ZM419 659 l0 -108 l189 0 l0 108 l-189 0 Z" /><glyph glyph-name="" unicode="&#x4e25;" d="M89 28 l80 0 l0 372 l106 0 l0 291 l636 0 l0 -106 l-105 0 l0 -185 l105 0 l0 -80 l-636 0 l0 -292 l-106 0 l0 -79 l-80 0 l0 79 ZM354 584 l0 -183 l105 0 l0 183 l-105 0 ZM541 584 l0 -183 l104 0 l0 183 l-104 0 ZM169 771 l105 0 l0 -80 l-105 0 l0 80 Z" /><glyph glyph-name="" unicode="&#x4e27;" d="M261 321 l-185 0 l0 79 l185 0 l0 185 l-79 0 l0 107 l264 0 l0 79 l107 0 l0 -79 l370 0 l0 -107 l-105 0 l0 -79 l-79 0 l0 -106 l184 0 l0 -79 l-105 0 l0 -107 l-79 0 l0 -185 l-106 0 l0 105 l-80 0 l0 -105 l-107 0 l0 -79 l-185 0 l0 371 ZM739 28 l184 0 l0 -78 l-184 0 l0 78 ZM368 320 l0 -291 l78 0 l0 106 l107 0 l0 79 l185 0 l0 106 l-185 0 l0 -105 l-107 0 l0 105 l-78 0 ZM368 584 l0 -183 l78 0 l0 183 l-78 0 ZM553 584 l0 -183 l80 0 l0 105 l105 0 l0 78 l-185 0 Z" /><glyph glyph-name="" unicode="&#x4e28;" d="M447 728 l106 0 l0 -736 l-106 0 l0 736 Z" /><glyph glyph-name="" unicode="&#x4e2a;" d="M395 478 l104 0 l0 -528 l-104 0 l0 528 ZM129 400 l79 0 l0 79 l106 0 l0 107 l80 0 l0 185 l106 0 l0 -106 l78 0 l0 -79 l-184 0 l0 -107 l-80 0 l0 -79 l-106 0 l0 -105 l-79 0 l0 105 ZM685 478 l186 0 l0 -77 l-186 0 l0 77 ZM580 585 l104 0 l0 -105 l-104 0 l0 105 Z" /><glyph glyph-name="" unicode="&#x4e2b;" d="M353 506 l-79 0 l0 79 l-105 0 l0 186 l105 0 l0 -80 l79 0 l0 -106 l106 0 l0 -78 l81 0 l0 78 l105 0 l0 186 l186 0 l0 -80 l-106 0 l0 -106 l-80 0 l0 -79 l-105 0 l0 -106 l-81 0 l0 -451 l-106 0 l0 557 Z" /><glyph glyph-name="" unicode="&#x4e2c;" d="M553 320 l-106 0 l0 -105 l-79 0 l0 105 l78 0 l0 79 l-78 0 l0 186 l79 0 l0 -79 l106 0 l0 265 l79 0 l0 -822 l-79 0 l0 371 Z" /><glyph glyph-name="" unicode="&#x4e2d;" d="M394 214 l-265 0 l0 372 l265 0 l0 185 l106 0 l0 -185 l371 0 l0 -372 l-371 0 l0 -265 l-106 0 l0 265 ZM208 479 l0 -184 l185 0 l0 184 l-185 0 ZM501 479 l0 -184 l264 0 l0 184 l-264 0 Z" /><glyph glyph-name="" unicode="&#x4e30;" d="M421 121 l-292 0 l0 107 l291 0 l0 79 l-104 0 l0 106 l104 0 l0 80 l-184 0 l0 106 l185 0 l0 184 l79 0 l0 -184 l264 0 l0 -106 l-264 0 l0 -80 l185 0 l0 -106 l-185 0 l0 -79 l371 0 l0 -107 l-371 0 l0 -184 l-79 0 l0 184 Z" /><glyph glyph-name="" unicode="&#x4e32;" d="M393 28 l-264 0 l0 293 l263 0 l0 79 l-184 0 l0 105 l184 0 l0 79 l-184 0 l0 -78 l-79 0 l0 79 l79 0 l0 106 l185 0 l0 80 l107 0 l0 -80 l264 0 l0 -291 l-264 0 l0 -79 l371 0 l0 -293 l-371 0 l0 -78 l-107 0 l0 78 ZM208 213 l0 -77 l184 0 l0 77 l-184 0 ZM500 213 l0 -77 l264 0 l0 77 l-264 0 ZM500 584 l0 -78 l184 0 l0 78 l-184 0 Z" /><glyph glyph-name="" unicode="&#x4e34;" d="M227 33 l-109 0 l0 654 l109 0 l0 109 l191 0 l0 -109 l-109 0 l0 -272 l109 0 l0 190 l82 0 l0 191 l190 0 l0 -109 l-81 0 l0 -82 l-109 0 l0 -191 l-82 0 l0 -108 l-110 0 l0 -382 l-81 0 l0 109 ZM419 305 l463 0 l0 -381 l-82 0 l0 108 l-300 0 l0 -108 l-81 0 l0 381 ZM501 222 l0 -108 l107 0 l0 108 l-107 0 ZM691 222 l0 -108 l109 0 l0 108 l-109 0 ZM610 605 l190 0 l0 -109 l-110 0 l0 -81 l-80 0 l0 190 Z" /><glyph glyph-name="" unicode="&#x4e36;" d="M487 399 l105 0 l0 -184 l-105 0 l0 184 ZM408 504 l78 0 l0 -104 l-78 0 l0 104 Z" /><glyph glyph-name="" unicode="&#x4e38;" d="M89 42 l80 0 l0 80 l105 0 l0 185 l79 0 l0 186 l-264 0 l0 107 l265 0 l0 184 l105 0 l0 -184 l265 0 l0 -107 l-78 0 l0 -450 l185 0 l0 79 l80 0 l0 -80 l-80 0 l0 -105 l-291 0 l0 185 l-80 0 l0 106 l79 0 l0 265 l-80 0 l0 -265 l-105 0 l0 -106 l-80 0 l0 -80 l-105 0 l0 -105 l-80 0 l0 105 ZM169 413 l105 0 l0 -105 l-105 0 l0 105 Z" /><glyph glyph-name="" unicode="&#x4e39;" d="M129 135 l104 0 l0 186 l-184 0 l0 79 l185 0 l0 371 l530 0 l0 -371 l187 0 l0 -79 l-187 0 l0 -292 l-79 0 l0 -79 l-105 0 l0 79 l105 0 l0 291 l-370 0 l0 -291 l-81 0 l0 -79 l-105 0 l0 185 ZM315 691 l0 -290 l184 0 l0 104 l81 0 l0 -104 l105 0 l0 290 l-370 0 ZM421 586 l78 0 l0 -80 l-78 0 l0 80 Z" /><glyph glyph-name="" unicode="&#x4e3a;" d="M129 41 l105 0 l0 81 l79 0 l0 106 l106 0 l0 186 l-184 0 l0 79 l265 0 l0 292 l105 0 l0 -292 l-104 0 l0 -186 l104 0 l0 -79 l-186 0 l0 -106 l-106 0 l0 -81 l-79 0 l0 -105 l-105 0 l0 105 ZM606 41 l79 0 l0 266 l106 0 l0 107 l-185 0 l0 79 l265 0 l0 -186 l-79 0 l0 -266 l-107 0 l0 -105 l-79 0 l0 105 ZM314 679 l105 0 l0 -78 l-105 0 l0 78 Z" /><glyph glyph-name="" unicode="&#x4e3b;" d="M89 28 l264 0 l0 186 l-185 0 l0 80 l185 0 l0 186 l-264 0 l0 105 l265 0 l0 186 l79 0 l0 -186 l371 0 l0 -105 l-370 0 l0 -186 l185 0 l0 -80 l-185 0 l0 -186 l477 0 l0 -79 l-822 0 l0 79 Z" /><glyph glyph-name="" unicode="&#x4e3d;" d="M118 633 l81 0 l0 109 l574 0 l0 -109 l109 0 l0 -546 l-109 0 l0 -109 l-82 0 l0 109 l81 0 l0 191 l-81 0 l0 82 l81 0 l0 190 l-190 0 l0 -572 l-82 0 l0 108 l-109 0 l0 -108 l-82 0 l0 109 l81 0 l0 463 l-190 0 l0 -81 l108 0 l0 -109 l-109 0 l0 -382 l-81 0 l0 655 Z" /><glyph glyph-name="" unicode="&#x4e3e;" d="M159 59 l299 0 l0 109 l-108 0 l0 83 l109 0 l0 109 l190 0 l0 81 l-190 0 l0 -81 l-110 0 l0 -109 l-82 0 l0 -83 l-109 0 l0 -108 l-80 0 l0 108 l80 0 l0 83 l109 0 l0 109 l82 0 l0 82 l-190 0 l0 108 l108 0 l0 83 l82 0 l0 -82 l192 0 l0 82 l109 0 l0 -82 l81 0 l0 191 l110 0 l0 -192 l81 0 l0 -108 l-191 0 l0 -82 l-81 0 l0 -109 l81 0 l0 108 l110 0 l0 -108 l-110 0 l0 -83 l-190 0 l0 -108 l300 0 l0 190 l81 0 l0 -191 l-81 0 l0 -81 l-682 0 l0 81 ZM460 742 l80 0 l0 -108 l-80 0 l0 108 Z" /><glyph glyph-name="" unicode="&#x4e3f;" d="M315 28 l78 0 l0 107 l106 0 l0 80 l80 0 l0 555 l105 0 l0 -555 l-105 0 l0 -80 l-80 0 l0 -107 l-106 0 l0 -78 l-78 0 l0 78 Z" /><glyph glyph-name="" unicode="&#x4e43;" d="M129 136 l80 0 l0 79 l106 0 l0 185 l79 0 l0 186 l-265 0 l0 105 l635 0 l0 -105 l-78 0 l0 -186 l-106 0 l0 185 l-80 0 l0 -185 l-106 0 l0 -185 l-79 0 l0 -186 l-186 0 l0 107 ZM581 136 l183 0 l0 185 l-78 0 l0 78 l185 0 l0 -263 l-106 0 l0 -107 l-184 0 l0 107 Z" /><glyph glyph-name="" unicode="&#x4e45;" d="M118 33 l110 0 l0 80 l82 0 l0 110 l108 0 l0 83 l82 0 l0 108 l110 0 l0 81 l-300 0 l0 -81 l-82 0 l0 -108 l-110 0 l0 108 l110 0 l0 82 l82 0 l0 191 l108 0 l0 109 l81 0 l0 -109 l-80 0 l0 -82 l272 0 l0 -191 l-81 0 l0 -108 l-110 0 l0 -193 l-82 0 l0 -80 l-190 0 l0 -109 l-110 0 l0 109 ZM800 33 l-108 0 l0 80 l190 0 l0 -189 l-82 0 l0 109 ZM611 305 l80 0 l0 -191 l-80 0 l0 191 Z" /><glyph glyph-name="" unicode="&#x4e47;" d="M460 320 l-371 0 l0 79 l371 0 l0 187 l-291 0 l0 105 l555 0 l0 80 l108 0 l0 -80 l-108 0 l0 -105 l-184 0 l0 -187 l371 0 l0 -79 l-371 0 l0 -292 l292 0 l0 106 l79 0 l0 -185 l-451 0 l0 371 Z" /><glyph glyph-name="" unicode="&#x4e48;" d="M309 18 l109 0 l0 109 l272 0 l0 83 l109 0 l0 -83 l83 0 l0 -189 l-83 0 l0 80 l-381 0 l0 -80 l-109 0 l0 80 ZM227 127 l81 0 l0 83 l110 0 l0 109 l82 0 l0 191 l109 0 l0 81 l81 0 l0 -81 l-81 0 l0 -191 l-109 0 l0 -109 l-82 0 l0 -83 l-110 0 l0 -108 l-81 0 l0 108 ZM118 401 l109 0 l0 109 l81 0 l0 191 l110 0 l0 81 l81 0 l0 -81 l-81 0 l0 -191 l-110 0 l0 -109 l-81 0 l0 -191 l-109 0 l0 191 Z" /><glyph glyph-name="" unicode="&#x4e49;" d="M141 29 l80 0 l0 107 l186 0 l0 184 l186 0 l0 187 l79 0 l0 184 l105 0 l0 -184 l-105 0 l0 -187 l-79 0 l0 -184 l-186 0 l0 -107 l-186 0 l0 -80 l-80 0 l0 80 ZM779 28 l79 0 l0 -79 l-79 0 l0 79 ZM594 135 l183 0 l0 -106 l-183 0 l0 106 ZM301 400 l105 0 l0 -79 l-105 0 l0 79 ZM221 691 l78 0 l0 -289 l-78 0 l0 289 ZM487 585 l105 0 l0 -78 l-105 0 l0 78 ZM407 771 l79 0 l0 -184 l-79 0 l0 184 Z" /><glyph glyph-name="" unicode="&#x4e4b;" d="M393 28 l478 0 l0 -79 l-478 0 l0 79 ZM129 108 l184 0 l0 106 l80 0 l0 81 l107 0 l0 105 l79 0 l0 80 l-450 0 l0 106 l264 0 l0 185 l107 0 l0 -105 l79 0 l0 -80 l185 0 l0 -106 l-79 0 l0 -80 l-106 0 l0 -105 l-79 0 l0 -81 l-107 0 l0 -185 l-264 0 l0 79 Z" /><glyph glyph-name="" unicode="&#x4e4c;" d="M579 41 l-450 0 l0 80 l556 0 l0 -79 l80 0 l0 186 l-530 0 l0 451 l186 0 l0 106 l79 0 l0 -106 l265 0 l0 -265 l-264 0 l0 79 l183 0 l0 106 l-370 0 l0 -292 l557 0 l0 -266 l-105 0 l0 -105 l-187 0 l0 105 Z" /><glyph glyph-name="" unicode="&#x4e4d;" d="M395 598 l476 0 l0 -105 l-370 0 l0 -79 l370 0 l0 -107 l-370 0 l0 -80 l370 0 l0 -107 l-371 0 l0 -184 l-105 0 l0 662 ZM129 493 l79 0 l0 106 l107 0 l0 186 l78 0 l0 -186 l-78 0 l0 -106 l-107 0 l0 -185 l-79 0 l0 185 Z" /><glyph glyph-name="" unicode="&#x4e4e;" d="M446 19 l108 0 l0 299 l-491 0 l0 83 l299 0 l0 109 l83 0 l0 -108 l109 0 l0 189 l-192 0 l0 -81 l-108 0 l0 82 l-82 0 l0 109 l463 0 l0 82 l191 0 l0 -82 l-190 0 l0 -299 l109 0 l0 189 l82 0 l0 -190 l109 0 l0 -83 l-301 0 l0 -299 l-81 0 l0 -82 l-108 0 l0 82 Z" /><glyph glyph-name="" unicode="&#x4e4f;" d="M129 121 l186 0 l0 107 l185 0 l0 79 l80 0 l0 106 l-265 0 l0 -106 l-106 0 l0 106 l106 0 l0 80 l79 0 l0 106 l-265 0 l0 79 l557 0 l0 105 l78 0 l0 -105 l-78 0 l0 -79 l-186 0 l0 -106 l264 0 l0 -80 l-78 0 l0 -106 l-106 0 l0 -79 l-80 0 l0 -107 l-106 0 l0 -79 l-185 0 l0 -105 l-80 0 l0 184 ZM395 41 l476 0 l0 -104 l-476 0 l0 104 ZM129 493 l79 0 l0 -79 l-79 0 l0 79 Z" /><glyph glyph-name="" unicode="&#x4e50;" d="M391 46 l108 0 l0 272 l-108 0 l0 -81 l-83 0 l0 -110 l-109 0 l0 -81 l-81 0 l0 81 l81 0 l0 110 l109 0 l0 82 l-108 0 l0 109 l300 0 l0 163 l82 0 l0 -163 l300 0 l0 -109 l-108 0 l0 -82 l108 0 l0 -191 l-109 0 l0 81 l-83 0 l0 109 l-108 0 l0 -190 l-82 0 l0 -108 l-109 0 l0 108 ZM118 592 l81 0 l0 109 l301 0 l0 81 l272 0 l0 -81 l-272 0 l0 -109 l-301 0 l0 -163 l-81 0 l0 163 Z" /><glyph glyph-name="" unicode="&#x4e52;" d="M129 41 l79 0 l0 80 l105 0 l0 106 l-184 0 l0 79 l79 0 l0 371 l292 0 l0 107 l264 0 l0 -107 l-264 0 l0 -79 l-185 0 l0 -105 l449 0 l0 -81 l-79 0 l0 -106 l186 0 l0 -79 l-477 0 l0 -186 l-186 0 l0 -105 l-79 0 l0 105 ZM315 412 l0 -106 l263 0 l0 106 l-263 0 Z" /><glyph glyph-name="" unicode="&#x4e53;" d="M818 28 l105 0 l0 -78 l-105 0 l0 78 ZM632 136 l185 0 l0 -107 l-185 0 l0 107 ZM553 215 l-477 0 l0 106 l184 0 l0 371 l372 0 l0 79 l185 0 l0 -79 l-185 0 l0 -106 l-265 0 l0 -79 l556 0 l0 -107 l-185 0 l0 -79 l185 0 l0 -106 l-291 0 l0 -79 l-79 0 l0 79 ZM367 400 l0 -78 l264 0 l0 78 l-264 0 Z" /><glyph glyph-name="" unicode="&#x4e54;" d="M237 28 l78 0 l0 266 l-79 0 l0 -79 l-107 0 l0 79 l107 0 l0 106 l-107 0 l0 80 l291 0 l0 106 l-183 0 l0 79 l370 0 l0 106 l185 0 l0 -106 l-185 0 l0 -79 l-107 0 l0 -106 l-79 0 l0 -452 l-106 0 l0 -78 l-78 0 l0 78 ZM607 400 l-107 0 l0 80 l371 0 l0 -80 l-79 0 l0 -106 l-106 0 l0 -344 l-79 0 l0 450 ZM792 294 l79 0 l0 -79 l-79 0 l0 79 Z" /><glyph glyph-name="" unicode="&#x4e56;" d="M421 69 l-292 0 l0 106 l186 0 l0 79 l-186 0 l0 106 l186 0 l0 80 l-186 0 l0 185 l371 0 l0 106 l292 0 l0 -106 l-292 0 l0 -79 l371 0 l0 -106 l-185 0 l0 -80 l185 0 l0 -291 l-266 0 l0 371 l-105 0 l0 -451 l-79 0 l0 80 ZM686 254 l0 -78 l106 0 l0 78 l-106 0 Z" /><glyph glyph-name="" unicode="&#x4e58;" d="M129 28 l80 0 l0 107 l106 0 l0 79 l-186 0 l0 107 l80 0 l0 79 l106 0 l0 105 l-186 0 l0 80 l80 0 l0 106 l371 0 l0 80 l184 0 l0 -80 l-183 0 l0 -106 l290 0 l0 -371 l-185 0 l0 -78 l-106 0 l0 77 l-80 0 l0 -184 l-106 0 l0 105 l-79 0 l0 -106 l-106 0 l0 -78 l-80 0 l0 78 ZM686 134 l185 0 l0 -105 l-185 0 l0 105 ZM500 505 l0 -184 l80 0 l0 184 l-80 0 ZM686 505 l0 -104 l78 0 l0 104 l-78 0 Z" /><glyph glyph-name="" unicode="&#x4e59;" d="M208 135 l558 0 l0 79 l105 0 l0 -185 l-663 0 l0 106 ZM129 214 l79 0 l0 106 l105 0 l0 81 l81 0 l0 106 l105 0 l0 79 l-370 0 l0 105 l636 0 l0 -105 l-186 0 l0 -79 l-79 0 l0 -106 l-106 0 l0 -81 l-81 0 l0 -106 l-105 0 l0 -78 l-79 0 l0 78 Z" /><glyph glyph-name="" unicode="&#x4e5c;" d="M315 399 l-106 0 l0 -78 l-80 0 l0 79 l80 0 l0 105 l106 0 l0 266 l79 0 l0 -265 l186 0 l0 79 l184 0 l0 -370 l-264 0 l0 106 l185 0 l0 184 l-105 0 l0 -105 l-185 0 l0 -371 l370 0 l0 105 l106 0 l0 -106 l-106 0 l0 -78 l-450 0 l0 449 Z" /><glyph glyph-name="" unicode="&#x4e5d;" d="M63 33 l109 0 l0 81 l82 0 l0 192 l109 0 l0 108 l-191 0 l0 82 l191 0 l0 300 l82 0 l0 -299 l109 0 l0 108 l83 0 l0 -572 l109 0 l0 80 l191 0 l0 -80 l-110 0 l0 -109 l-273 0 l0 490 l-109 0 l0 -108 l-82 0 l0 -192 l-109 0 l0 -81 l-82 0 l0 -109 l-109 0 l0 109 ZM63 605 l108 0 l0 -108 l-108 0 l0 108 Z" /><glyph glyph-name="" unicode="&#x4e5e;" d="M315 41 l477 0 l0 80 l79 0 l0 -80 l-79 0 l0 -105 l-477 0 l0 105 ZM236 121 l78 0 l0 106 l107 0 l0 79 l78 0 l0 106 l-78 0 l0 -106 l-106 0 l0 106 l106 0 l0 80 l371 0 l0 -80 l-108 0 l0 -106 l-184 0 l0 -79 l-79 0 l0 -106 l-107 0 l0 -79 l-78 0 l0 79 ZM129 493 l106 0 l0 184 l79 0 l0 107 l107 0 l0 -107 l450 0 l0 -79 l-557 0 l0 -185 l-185 0 l0 80 Z" /><glyph glyph-name="" unicode="&#x4e5f;" d="M314 28 l450 0 l0 106 l107 0 l0 -185 l-557 0 l0 79 ZM208 320 l-79 0 l0 80 l79 0 l0 291 l105 0 l0 -184 l187 0 l0 264 l79 0 l0 -185 l185 0 l0 -372 l-79 0 l0 -79 l-185 0 l0 265 l-187 0 l0 -371 l-105 0 l0 291 ZM580 506 l0 -291 l104 0 l0 291 l-104 0 Z" /><glyph glyph-name="" unicode="&#x4e60;" d="M606 94 l78 0 l0 186 l-184 0 l0 -105 l-371 0 l0 106 l371 0 l0 79 l185 0 l0 186 l107 0 l0 79 l-371 0 l0 -78 l-108 0 l0 79 l-184 0 l0 105 l742 0 l0 -185 l-79 0 l0 -452 l-107 0 l0 -105 l-79 0 l0 105 ZM421 546 l78 0 l0 -185 l-78 0 l0 185 Z" /><glyph glyph-name="" unicode="&#x4e61;" d="M181 54 l372 0 l0 81 l80 0 l0 105 l-371 0 l0 80 l184 0 l0 106 l-184 0 l0 80 l105 0 l0 79 l79 0 l0 186 l187 0 l0 -80 l-80 0 l0 -106 l-106 0 l0 -78 l186 0 l0 78 l106 0 l0 106 l79 0 l0 -106 l-79 0 l0 -79 l-106 0 l0 -80 l-80 0 l0 -106 l186 0 l0 105 l79 0 l0 -185 l-79 0 l0 -105 l-106 0 l0 -81 l-80 0 l0 -105 l-372 0 l0 105 Z" /><glyph glyph-name="" unicode="&#x4e66;" d="M420 214 l-291 0 l0 107 l290 0 l0 184 l-290 0 l0 80 l291 0 l0 186 l80 0 l0 -186 l291 0 l0 106 l80 0 l0 -106 l-80 0 l0 -185 l-107 0 l0 -79 l-79 0 l0 -107 l-105 0 l0 -264 l-80 0 l0 264 ZM606 135 l184 0 l0 79 l-105 0 l0 106 l186 0 l0 -185 l-80 0 l0 -106 l-185 0 l0 106 ZM500 505 l0 -184 l105 0 l0 79 l79 0 l0 105 l-184 0 ZM685 771 l105 0 l0 -79 l-105 0 l0 79 Z" /><glyph glyph-name="" unicode="&#x4e69;" d="M129 321 l80 0 l0 450 l106 0 l0 -185 l184 0 l0 -81 l-184 0 l0 -184 l-106 0 l0 -185 l185 0 l0 79 l-78 0 l0 105 l183 0 l0 -370 l-105 0 l0 78 l-185 0 l0 -78 l-80 0 l0 371 ZM581 771 l105 0 l0 -742 l79 0 l0 105 l106 0 l0 -184 l-290 0 l0 821 Z" /><glyph glyph-name="" unicode="&#x4e70;" d="M118 18 l190 0 l0 109 l191 0 l0 83 l-381 0 l0 109 l190 0 l0 82 l-81 0 l0 109 l81 0 l0 82 l-81 0 l0 109 l573 0 l0 81 l82 0 l0 -190 l-272 0 l0 -273 l272 0 l0 -109 l-273 0 l0 -83 l-109 0 l0 -109 l-192 0 l0 -80 l-190 0 l0 80 ZM801 18 l81 0 l0 -80 l-81 0 l0 80 ZM610 127 l190 0 l0 -108 l-190 0 l0 108 ZM419 400 l0 -80 l80 0 l0 80 l-80 0 ZM419 591 l0 -81 l80 0 l0 81 l-80 0 Z" /><glyph glyph-name="" unicode="&#x4e71;" d="M131 319 l81 0 l0 82 l-190 0 l0 109 l191 0 l0 192 l191 0 l0 80 l109 0 l0 -80 l-109 0 l0 -109 l-82 0 l0 -83 l272 0 l0 83 l-80 0 l0 109 l80 0 l0 80 l110 0 l0 -763 l191 0 l0 108 l82 0 l0 -109 l-82 0 l0 -80 l-301 0 l0 462 l-272 0 l0 -81 l191 0 l0 -381 l-109 0 l0 80 l-191 0 l0 -80 l-82 0 l0 381 ZM213 210 l0 -82 l191 0 l0 82 l-191 0 Z" /><glyph glyph-name="" unicode="&#x4e73;" d="M182 42 l77 0 l0 79 l-183 0 l0 106 l183 0 l0 79 l-183 0 l0 108 l291 0 l0 79 l79 0 l0 106 l106 0 l0 78 l-185 0 l0 -184 l-107 0 l0 105 l-79 0 l0 -105 l-105 0 l0 185 l291 0 l0 106 l264 0 l0 -741 l-78 0 l0 449 l-107 0 l0 -186 l-79 0 l0 -79 l79 0 l0 -106 l-79 0 l0 -185 l-185 0 l0 106 ZM632 42 l186 0 l0 79 l105 0 l0 -79 l-105 0 l0 -106 l-186 0 l0 106 Z" /><glyph glyph-name="" unicode="&#x4e7e;" d="M221 28 l-78 0 l0 80 l78 0 l0 107 l-78 0 l0 265 l78 0 l0 106 l-185 0 l0 79 l185 0 l0 106 l106 0 l0 -106 l187 0 l0 -79 l-187 0 l0 -106 l-105 0 l0 -80 l105 0 l0 80 l187 0 l0 106 l79 0 l0 185 l106 0 l0 -106 l265 0 l0 -79 l-370 0 l0 -106 l291 0 l0 -80 l-107 0 l0 -106 l-79 0 l0 -186 l-106 0 l0 -80 l-79 0 l0 80 l79 0 l0 186 l105 0 l0 105 l-184 0 l0 -184 l-186 0 l0 -107 l79 0 l0 -80 l-80 0 l0 -79 l-106 0 l0 79 ZM594 28 l291 0 l0 80 l79 0 l0 -80 l-79 0 l0 -79 l-291 0 l0 79 Z" /><glyph glyph-name="" unicode="&#x4e86;" d="M350 87 l108 0 l0 463 l82 0 l0 109 l-381 0 l0 83 l681 0 l0 -83 l-190 0 l0 -109 l-109 0 l0 -463 l-83 0 l0 -109 l-108 0 l0 109 Z" /><glyph glyph-name="" unicode="&#x4e88;" d="M394 320 l-265 0 l0 80 l370 0 l0 106 l-104 0 l0 80 l185 0 l0 105 l-371 0 l0 80 l556 0 l0 -185 l-185 0 l0 -186 l-80 0 l0 -451 l-106 0 l0 371 ZM686 320 l-105 0 l0 80 l290 0 l0 -80 l-105 0 l0 -105 l-80 0 l0 105 Z" /><glyph glyph-name="" unicode="&#x4e89;" d="M274 41 l79 0 l0 79 l-264 0 l0 107 l264 0 l0 80 l-264 0 l0 107 l79 0 l0 79 l291 0 l0 105 l-291 0 l0 -105 l-79 0 l0 106 l79 0 l0 80 l105 0 l0 105 l81 0 l0 -105 l291 0 l0 -80 l-106 0 l0 -106 l-79 0 l0 -79 l79 0 l0 78 l186 0 l0 -78 l186 0 l0 -107 l-186 0 l0 -187 l-265 0 l0 -184 l-186 0 l0 105 ZM460 306 l0 -79 l185 0 l0 79 l-185 0 Z" /><glyph glyph-name="" unicode="&#x4e8b;" d="M315 28 l-78 0 l0 107 l183 0 l0 79 l-183 0 l0 107 l183 0 l0 78 l-184 0 l0 -78 l-107 0 l0 79 l107 0 l0 185 l-107 0 l0 106 l292 0 l0 80 l79 0 l0 -80 l371 0 l0 -106 l-79 0 l0 -450 l-106 0 l0 -107 l-186 0 l0 -78 l-185 0 l0 78 ZM500 213 l0 -77 l185 0 l0 77 l-185 0 ZM500 399 l0 -78 l185 0 l0 78 l-185 0 Z" /><glyph glyph-name="" unicode="&#x4e8c;" d="M129 134 l742 0 l0 -105 l-742 0 l0 105 ZM236 691 l528 0 l0 -105 l-528 0 l0 105 Z" /><glyph glyph-name="" unicode="&#x4e8d;" d="M421 68 l78 0 l0 371 l-370 0 l0 105 l742 0 l0 -105 l-266 0 l0 -371 l-105 0 l0 -79 l-79 0 l0 79 ZM236 731 l556 0 l0 -106 l-556 0 l0 106 Z" /><glyph glyph-name="" unicode="&#x4e8e;" d="M421 68 l78 0 l0 292 l-370 0 l0 80 l370 0 l0 186 l-185 0 l0 105 l451 0 l0 -105 l-185 0 l0 -186 l291 0 l0 -80 l-292 0 l0 -292 l-79 0 l0 -79 l-79 0 l0 79 Z" /><glyph glyph-name="" unicode="&#x4e8f;" d="M486 87 l109 0 l0 82 l83 0 l0 109 l-383 0 l0 191 l-163 0 l0 81 l736 0 l0 -81 l-463 0 l0 -109 l381 0 l0 -273 l-108 0 l0 -109 l-192 0 l0 109 ZM214 742 l572 0 l0 -82 l-572 0 l0 82 Z" /><glyph glyph-name="" unicode="&#x4e91;" d="M129 135 l186 0 l0 185 l105 0 l0 81 l-291 0 l0 105 l742 0 l0 -105 l-264 0 l0 -81 l-186 0 l0 -184 l265 0 l0 78 l106 0 l0 -185 l-663 0 l0 106 ZM608 320 l78 0 l0 -105 l-78 0 l0 105 ZM315 691 l371 0 l0 -104 l-371 0 l0 104 Z" /><glyph glyph-name="" unicode="&#x4e92;" d="M118 129 l464 0 l0 81 l-381 0 l0 109 l108 0 l0 273 l-191 0 l0 109 l764 0 l0 -109 l-491 0 l0 -82 l381 0 l0 -108 l-80 0 l0 -273 l190 0 l0 -109 l-764 0 l0 109 ZM391 401 l0 -82 l191 0 l0 82 l-191 0 Z" /><glyph glyph-name="" unicode="&#x4e93;" d="M142 68 l80 0 l0 106 l78 0 l0 265 l-158 0 l0 105 l715 0 l0 -105 l-184 0 l0 -450 l-80 0 l0 450 l-186 0 l0 -265 l-106 0 l0 -106 l-79 0 l0 -79 l-80 0 l0 79 ZM222 731 l556 0 l0 -105 l-556 0 l0 105 Z" /><glyph glyph-name="" unicode="&#x4e94;" d="M141 122 l159 0 l0 291 l106 0 l0 187 l-265 0 l0 78 l717 0 l0 -78 l-371 0 l0 -187 l291 0 l0 -291 l80 0 l0 -80 l-717 0 l0 80 ZM407 306 l0 -184 l265 0 l0 184 l-265 0 Z" /><glyph glyph-name="" unicode="&#x4e95;" d="M118 33 l81 0 l0 80 l109 0 l0 110 l-108 0 l0 83 l108 0 l0 190 l-190 0 l0 109 l190 0 l0 191 l82 0 l0 -190 l192 0 l0 190 l108 0 l0 -191 l192 0 l0 -109 l-191 0 l0 -190 l80 0 l0 -83 l-81 0 l0 -299 l-108 0 l0 298 l-192 0 l0 -109 l-82 0 l0 -80 l-109 0 l0 -109 l-81 0 l0 109 ZM390 495 l0 -189 l191 0 l0 189 l-191 0 Z" /><glyph glyph-name="" unicode="&#x4e98;" d="M275 586 l-106 0 l0 105 l662 0 l0 -662 l-556 0 l0 557 ZM355 320 l0 -105 l369 0 l0 105 l-369 0 ZM355 505 l0 -104 l369 0 l0 104 l-369 0 Z" /><glyph glyph-name="" unicode="&#x4e9a;" d="M236 135 l78 0 l0 79 l-78 0 l0 106 l78 0 l0 266 l-185 0 l0 105 l742 0 l0 -105 l-263 0 l0 -451 l263 0 l0 -106 l-635 0 l0 106 ZM421 585 l0 -449 l78 0 l0 449 l-78 0 ZM687 401 l105 0 l0 105 l79 0 l0 -105 l-79 0 l0 -186 l-105 0 l0 186 ZM129 506 l106 0 l0 -185 l-106 0 l0 185 Z" /><glyph glyph-name="" unicode="&#x4e9b;" d="M129 41 l742 0 l0 -105 l-742 0 l0 105 ZM235 228 l450 0 l0 79 l107 0 l0 106 l79 0 l0 -106 l-79 0 l0 -185 l-557 0 l0 106 ZM129 679 l184 0 l0 106 l106 0 l0 -185 l80 0 l0 -107 l-79 0 l0 -79 l79 0 l0 -106 l-370 0 l0 371 ZM606 785 l79 0 l0 -184 l107 0 l0 78 l79 0 l0 -79 l-79 0 l0 -107 l-107 0 l0 -185 l-79 0 l0 477 ZM235 599 l0 -185 l78 0 l0 185 l-78 0 Z" /><glyph glyph-name="" unicode="&#x4e9f;" d="M89 68 l822 0 l0 -79 l-822 0 l0 79 ZM380 255 l-291 0 l0 290 l370 0 l0 80 l-184 0 l0 106 l449 0 l0 -106 l-159 0 l0 -80 l-105 0 l0 -290 l185 0 l0 105 l-80 0 l0 184 l265 0 l0 -105 l-106 0 l0 -184 l-79 0 l0 -80 l-265 0 l0 80 ZM725 254 l105 0 l0 -79 l-105 0 l0 79 ZM195 439 l0 -78 l79 0 l0 78 l-79 0 Z" /><glyph glyph-name="" unicode="&#x4ea0;" d="M129 306 l264 0 l0 187 l107 0 l0 -187 l371 0 l0 -78 l-742 0 l0 78 Z" /><glyph glyph-name="" unicode="&#x4ea1;" d="M208 440 l-79 0 l0 106 l371 0 l0 78 l79 0 l0 -78 l292 0 l0 -106 l-556 0 l0 -371 l449 0 l0 -80 l-556 0 l0 451 ZM395 731 l104 0 l0 -106 l-104 0 l0 106 Z" /><glyph glyph-name="" unicode="&#x4ea2;" d="M104 33 l109 0 l0 81 l81 0 l0 382 l-272 0 l0 109 l955 0 l0 -109 l-299 0 l0 -463 l108 0 l0 80 l81 0 l0 -189 l-273 0 l0 490 l-190 0 l0 -300 l-109 0 l0 -81 l-82 0 l0 -109 l-109 0 l0 109 ZM405 797 l80 0 l0 -108 l-80 0 l0 108 Z" /><glyph glyph-name="" unicode="&#x4ea4;" d="M118 20 l192 0 l0 109 l108 0 l0 81 l190 0 l0 300 l-190 0 l0 -300 l-108 0 l0 109 l-192 0 l0 83 l191 0 l0 108 l-191 0 l0 81 l764 0 l0 -81 l-82 0 l0 -108 l-109 0 l0 -192 l-82 0 l0 -190 l-299 0 l0 -82 l-192 0 l0 82 ZM610 19 l272 0 l0 -81 l-272 0 l0 81 ZM801 401 l81 0 l0 -81 l-81 0 l0 81 ZM419 783 l189 0 l0 -81 l-189 0 l0 81 Z" /><glyph glyph-name="" unicode="&#x4ea5;" d="M118 20 l192 0 l0 109 l190 0 l0 81 l82 0 l0 109 l109 0 l0 82 l81 0 l0 -82 l-81 0 l0 -109 l-109 0 l0 -81 l-82 0 l0 -109 l-190 0 l0 -82 l-192 0 l0 82 ZM774 19 l108 0 l0 -81 l-108 0 l0 81 ZM583 128 l189 0 l0 -108 l-189 0 l0 108 ZM118 210 l192 0 l0 109 l81 0 l0 83 l191 0 l0 108 l109 0 l0 -108 l-109 0 l0 -83 l-82 0 l0 -109 l-190 0 l0 -81 l-192 0 l0 81 ZM201 402 l109 0 l0 108 l80 0 l0 82 l-272 0 l0 109 l273 0 l0 82 l109 0 l0 -82 l382 0 l0 -109 l-382 0 l0 -82 l-109 0 l0 -108 l-81 0 l0 -82 l-109 0 l0 82 Z" /><glyph glyph-name="" unicode="&#x4ea6;" d="M129 28 l105 0 l0 107 l80 0 l0 184 l-80 0 l0 -184 l-105 0 l0 185 l105 0 l0 80 l80 0 l0 106 l-185 0 l0 80 l292 0 l0 185 l78 0 l0 -185 l-78 0 l0 -558 l-187 0 l0 -79 l-105 0 l0 79 ZM501 28 l104 0 l0 478 l-104 0 l0 79 l370 0 l0 -79 l-184 0 l0 -106 l105 0 l0 -80 l-106 0 l0 -292 l-80 0 l0 -79 l-105 0 l0 79 ZM793 319 l78 0 l0 -184 l-78 0 l0 184 Z" /><glyph glyph-name="" unicode="&#x4ea7;" d="M76 42 l105 0 l0 185 l79 0 l0 266 l106 0 l0 106 l-184 0 l0 79 l371 0 l0 106 l79 0 l0 -106 l291 0 l0 -79 l-105 0 l0 -106 l105 0 l0 -79 l-556 0 l0 -187 l-107 0 l0 -185 l-79 0 l0 -106 l-105 0 l0 106 ZM447 598 l0 -105 l184 0 l0 105 l-184 0 Z" /><glyph glyph-name="" unicode="&#x4ea8;" d="M419 20 l80 0 l0 190 l-381 0 l0 109 l108 0 l0 273 l-108 0 l0 109 l382 0 l0 82 l109 0 l0 -82 l273 0 l0 -109 l-81 0 l0 -273 l81 0 l0 -109 l-273 0 l0 -272 l-190 0 l0 82 ZM310 510 l0 -108 l381 0 l0 108 l-381 0 Z" /><glyph glyph-name="" unicode="&#x4ea9;" d="M129 28 l106 0 l0 108 l184 0 l0 79 l-184 0 l0 -79 l-106 0 l0 79 l106 0 l0 106 l184 0 l0 78 l-184 0 l0 -78 l-106 0 l0 79 l106 0 l0 106 l529 0 l0 -556 l-80 0 l0 78 l-449 0 l0 -78 l-106 0 l0 78 ZM500 215 l0 -79 l184 0 l0 79 l-184 0 ZM500 399 l0 -78 l184 0 l0 78 l-184 0 ZM129 691 l291 0 l0 80 l80 0 l0 -80 l371 0 l0 -105 l-742 0 l0 105 Z" /><glyph glyph-name="" unicode="&#x4eab;" d="M393 135 l-264 0 l0 185 l184 0 l0 106 l371 0 l0 80 l-371 0 l0 -80 l-105 0 l0 160 l-79 0 l0 105 l264 0 l0 80 l107 0 l0 -80 l371 0 l0 -105 l-107 0 l0 -160 l-78 0 l0 -106 l78 0 l0 -79 l107 0 l0 -106 l-371 0 l0 -186 l-107 0 l0 186 Z" /><glyph glyph-name="" unicode="&#x4eac;" d="M418 113 l-191 0 l0 -80 l-109 0 l0 80 l109 0 l0 110 l81 0 l0 83 l382 0 l0 108 l-382 0 l0 -108 l-81 0 l0 -83 l-109 0 l0 83 l109 0 l0 189 l572 0 l0 -381 l-190 0 l0 108 l-109 0 l0 -298 l-82 0 l0 189 ZM800 113 l82 0 l0 -80 l-82 0 l0 80 ZM118 687 l300 0 l0 109 l82 0 l0 -109 l382 0 l0 -81 l-764 0 l0 81 Z" /><glyph glyph-name="" unicode="&#x4ead;" d="M421 42 l78 0 l0 80 l-264 0 l0 106 l-106 0 l0 78 l742 0 l0 -78 l-106 0 l0 -106 l-185 0 l0 -185 l-159 0 l0 105 ZM235 599 l-106 0 l0 79 l292 0 l0 105 l79 0 l0 -105 l371 0 l0 -79 l-106 0 l0 -185 l-530 0 l0 185 Z" /><glyph glyph-name="" unicode="&#x4eae;" d="M132 33 l163 0 l0 190 l-163 0 l0 82 l736 0 l0 -82 l-189 0 l0 -190 l107 0 l0 80 l82 0 l0 -80 l-82 0 l0 -109 l-190 0 l0 298 l-191 0 l0 -189 l-110 0 l0 -109 l-163 0 l0 109 ZM214 606 l-82 0 l0 82 l354 0 l0 108 l110 0 l0 -108 l272 0 l0 -82 l-82 0 l0 -191 l-572 0 l0 191 Z" /><glyph glyph-name="" unicode="&#x4eb2;" d="M315 28 l105 0 l0 187 l-106 0 l0 -186 l-185 0 l0 80 l105 0 l0 106 l-105 0 l0 79 l291 0 l0 106 l-291 0 l0 80 l184 0 l0 106 l-184 0 l0 79 l292 0 l0 106 l79 0 l0 -106 l371 0 l0 -79 l-186 0 l0 -106 l186 0 l0 -80 l-371 0 l0 -106 l371 0 l0 -79 l-187 0 l0 -106 l-79 0 l0 106 l-105 0 l0 -265 l-185 0 l0 78 ZM685 108 l186 0 l0 -79 l-186 0 l0 79 ZM421 585 l0 -104 l184 0 l0 104 l-184 0 Z" /><glyph glyph-name="" unicode="&#x4eb3;" d="M421 134 l-107 0 l0 -105 l-185 0 l0 106 l106 0 l0 80 l370 0 l0 105 l-370 0 l0 -105 l-106 0 l0 185 l105 0 l0 186 l-105 0 l0 105 l371 0 l0 80 l105 0 l0 -80 l-105 0 l0 -105 l105 0 l0 105 l266 0 l0 -105 l-79 0 l0 -186 l79 0 l0 -265 l-79 0 l0 -107 l79 0 l0 -78 l-450 0 l0 184 ZM500 135 l0 -106 l105 0 l0 106 l187 0 l0 80 l-187 0 l0 -80 l-105 0 Z" /><glyph glyph-name="" unicode="&#x4eb5;" d="M314 28 l-185 0 l0 107 l185 0 l0 80 l80 0 l0 106 l105 0 l0 78 l-185 0 l0 -184 l-106 0 l0 106 l-79 0 l0 79 l79 0 l0 105 l-79 0 l0 186 l371 0 l0 80 l79 0 l0 -80 l292 0 l0 -105 l-106 0 l0 -265 l-265 0 l0 -106 l-105 0 l0 -79 l105 0 l0 79 l78 0 l0 -80 l-78 0 l0 -107 l-106 0 l0 -78 l-80 0 l0 78 ZM685 28 l186 0 l0 -78 l-186 0 l0 78 ZM580 135 l104 0 l0 80 l81 0 l0 105 l106 0 l0 -105 l-106 0 l0 -80 l-81 0 l0 -106 l-104 0 l0 106 ZM580 505 l0 -104 l104 0 l0 104 l-104 0 ZM395 585 l0 -79 l183 0 l0 79 l-183 0 Z" /><glyph glyph-name="" unicode="&#x4eba;" d="M129 42 l80 0 l0 79 l106 0 l0 185 l79 0 l0 478 l106 0 l0 -291 l80 0 l0 -266 l-80 0 l0 79 l-106 0 l0 -185 l-79 0 l0 -79 l-106 0 l0 -106 l-80 0 l0 106 ZM765 42 l-79 0 l0 79 l185 0 l0 -185 l-106 0 l0 106 ZM581 227 l104 0 l0 -105 l-104 0 l0 105 Z" /><glyph glyph-name="" unicode="&#x4ebb;" d="M460 399 l-105 0 l0 106 l105 0 l0 80 l80 0 l0 185 l105 0 l0 -185 l-105 0 l0 -635 l-80 0 l0 449 Z" /><glyph glyph-name="" unicode="&#x4ebf;" d="M234 400 l-105 0 l0 106 l105 0 l0 185 l79 0 l0 80 l107 0 l0 -80 l-107 0 l0 -742 l-79 0 l0 451 ZM501 28 l265 0 l0 185 l105 0 l0 -185 l-105 0 l0 -79 l-265 0 l0 79 ZM421 214 l79 0 l0 186 l79 0 l0 106 l105 0 l0 80 l-263 0 l0 105 l450 0 l0 -105 l-105 0 l0 -80 l-81 0 l0 -106 l-106 0 l0 -186 l-79 0 l0 -185 l-79 0 l0 185 Z" /><glyph glyph-name="" unicode="&#x4ec0;" d="M208 400 l-79 0 l0 105 l79 0 l0 186 l106 0 l0 80 l78 0 l0 -80 l-78 0 l0 -741 l-106 0 l0 450 ZM579 400 l-185 0 l0 105 l185 0 l0 266 l105 0 l0 -266 l187 0 l0 -105 l-187 0 l0 -450 l-105 0 l0 450 Z" /><glyph glyph-name="" unicode="&#x4ec1;" d="M261 306 l-185 0 l0 108 l105 0 l0 79 l80 0 l0 185 l106 0 l0 106 l79 0 l0 -106 l-78 0 l0 -557 l555 0 l0 -79 l-556 0 l0 -106 l-106 0 l0 370 ZM447 598 l476 0 l0 -105 l-476 0 l0 105 Z" /><glyph glyph-name="" unicode="&#x4ec2;" d="M274 400 l-105 0 l0 -78 l-80 0 l0 78 l80 0 l0 106 l105 0 l0 186 l80 0 l0 79 l105 0 l0 -79 l-105 0 l0 -663 l105 0 l0 106 l80 0 l0 371 l-79 0 l0 80 l80 0 l0 106 l79 0 l0 79 l105 0 l0 -79 l-105 0 l0 -106 l292 0 l0 -557 l-108 0 l0 -79 l-78 0 l0 79 l78 0 l0 476 l-184 0 l0 -370 l-79 0 l0 -106 l-81 0 l0 -79 l-185 0 l0 450 Z" /><glyph glyph-name="" unicode="&#x4ec3;" d="M221 399 l-105 0 l0 -78 l-80 0 l0 79 l80 0 l0 105 l105 0 l0 266 l186 0 l0 -80 l-106 0 l0 -742 l-80 0 l0 450 ZM594 28 l78 0 l0 558 l-265 0 l0 105 l557 0 l0 -105 l-186 0 l0 -558 l-105 0 l0 -79 l-79 0 l0 79 Z" /><glyph glyph-name="" unicode="&#x4ec4;" d="M237 68 l78 0 l0 106 l106 0 l0 186 l78 0 l0 264 l-263 0 l0 -556 l-107 0 l0 663 l663 0 l0 -106 l-185 0 l0 -265 l-107 0 l0 -186 l-79 0 l0 -106 l-106 0 l0 -79 l-78 0 l0 79 ZM792 68 l-106 0 l0 105 l185 0 l0 -184 l-79 0 l0 79 ZM607 359 l78 0 l0 -184 l-78 0 l0 184 Z" /><glyph glyph-name="" unicode="&#x4ec5;" d="M254 401 l-82 0 l0 -82 l-109 0 l0 82 l109 0 l0 109 l82 0 l0 273 l191 0 l0 -82 l-82 0 l0 -682 l82 0 l0 109 l190 0 l0 82 l-81 0 l0 108 l190 0 l0 274 l-298 0 l0 108 l490 0 l0 -108 l-109 0 l0 -274 l-82 0 l0 -190 l-110 0 l0 -109 l-190 0 l0 -82 l-191 0 l0 464 ZM827 19 l-82 0 l0 108 l191 0 l0 -190 l-109 0 l0 82 ZM446 510 l108 0 l0 -191 l-108 0 l0 191 Z" /><glyph glyph-name="" unicode="&#x4ec6;" d="M235 306 l-106 0 l0 187 l106 0 l0 184 l79 0 l0 107 l105 0 l0 -107 l-105 0 l0 -741 l-79 0 l0 370 ZM606 121 l78 0 l0 -185 l-78 0 l0 185 ZM500 677 l105 0 l0 107 l79 0 l0 -107 l-79 0 l0 -555 l-105 0 l0 555 ZM792 412 l79 0 l0 -185 l-79 0 l0 185 ZM685 492 l105 0 l0 -79 l-105 0 l0 79 Z" /><glyph glyph-name="" unicode="&#x4ec7;" d="M76 585 l105 0 l0 186 l78 0 l0 -186 l-77 0 l0 -556 l185 0 l0 185 l79 0 l0 292 l-185 0 l0 79 l185 0 l0 186 l107 0 l0 -186 l184 0 l0 -556 l81 0 l0 105 l105 0 l0 -105 l-105 0 l0 -79 l-186 0 l0 555 l-79 0 l0 -291 l-107 0 l0 -185 l-79 0 l0 -79 l-291 0 l0 635 Z" /><glyph glyph-name="" unicode="&#x4ec9;" d="M274 400 l-105 0 l0 -78 l-80 0 l0 78 l80 0 l0 106 l105 0 l0 186 l80 0 l0 79 l105 0 l0 -79 l-105 0 l0 -663 l105 0 l0 662 l372 0 l0 -556 l80 0 l0 -185 l-187 0 l0 636 l-184 0 l0 -557 l-81 0 l0 -79 l-185 0 l0 450 Z" /><glyph glyph-name="" unicode="&#x4eca;" d="M419 20 l81 0 l0 109 l108 0 l0 81 l-381 0 l0 108 l573 0 l0 -108 l-110 0 l0 -81 l-81 0 l0 -191 l-190 0 l0 82 ZM118 510 l190 0 l0 82 l110 0 l0 191 l82 0 l0 -82 l108 0 l0 -109 l-190 0 l0 -82 l-110 0 l0 -108 l-81 0 l0 -82 l-109 0 l0 190 ZM419 510 l80 0 l0 -108 l-80 0 l0 108 ZM691 510 l191 0 l0 -108 l-191 0 l0 108 ZM610 591 l80 0 l0 -80 l-80 0 l0 80 Z" /><glyph glyph-name="" unicode="&#x4ecb;" d="M118 20 l109 0 l0 109 l81 0 l0 272 l109 0 l0 -272 l-109 0 l0 -191 l-190 0 l0 82 ZM610 402 l80 0 l0 108 l192 0 l0 -108 l-192 0 l0 -464 l-80 0 l0 464 ZM118 510 l190 0 l0 82 l110 0 l0 191 l82 0 l0 -82 l108 0 l0 -109 l-190 0 l0 -82 l-110 0 l0 -108 l-81 0 l0 -82 l-109 0 l0 190 ZM610 591 l80 0 l0 -80 l-80 0 l0 80 Z" /><glyph glyph-name="" unicode="&#x4ecd;" d="M235 306 l-106 0 l0 187 l106 0 l0 184 l80 0 l0 107 l105 0 l0 -107 l-104 0 l0 -634 l105 0 l0 184 l78 0 l0 371 l-78 0 l0 79 l450 0 l0 -79 l-79 0 l0 -184 l-106 0 l0 184 l-81 0 l0 -371 l-105 0 l0 -185 l-79 0 l0 -106 l-186 0 l0 370 ZM686 42 l106 0 l0 371 l79 0 l0 -371 l-79 0 l0 -106 l-106 0 l0 106 Z" /><glyph glyph-name="" unicode="&#x4ece;" d="M302 29 l105 0 l0 106 l79 0 l0 79 l-79 0 l0 107 l185 0 l0 450 l80 0 l0 -557 l-80 0 l0 -79 l-106 0 l0 -106 l-79 0 l0 -79 l-105 0 l0 79 ZM142 135 l79 0 l0 557 l80 0 l0 79 l106 0 l0 -79 l-105 0 l0 -292 l105 0 l0 -79 l-106 0 l0 -186 l-80 0 l0 -106 l-79 0 l0 106 ZM779 134 l78 0 l0 -105 l-78 0 l0 105 ZM673 214 l105 0 l0 -78 l-105 0 l0 78 Z" /><glyph glyph-name="" unicode="&#x4ed1;" d="M254 400 l109 0 l0 -80 l191 0 l0 81 l81 0 l0 109 l301 0 l0 -109 l-301 0 l0 -82 l-81 0 l0 -109 l-190 0 l0 -191 l271 0 l0 108 l191 0 l0 -109 l-80 0 l0 -80 l-492 0 l0 462 ZM63 510 l191 0 l0 83 l109 0 l0 189 l191 0 l0 -189 l-191 0 l0 -83 l-109 0 l0 -109 l-82 0 l0 -81 l-109 0 l0 190 ZM554 592 l81 0 l0 -82 l-81 0 l0 82 Z" /><glyph glyph-name="" unicode="&#x4ed3;" d="M275 42 l451 0 l0 79 l106 0 l0 -79 l-106 0 l0 -106 l-451 0 l0 106 ZM169 414 l-80 0 l0 79 l185 0 l0 106 l81 0 l0 185 l184 0 l0 -185 l-184 0 l0 -106 l-80 0 l0 -79 l370 0 l0 79 l266 0 l0 -79 l-266 0 l0 -292 l-184 0 l0 105 l78 0 l0 79 l-265 0 l0 -263 l-105 0 l0 371 ZM540 598 l105 0 l0 -105 l-105 0 l0 105 Z" /><glyph glyph-name="" unicode="&#x4ed4;" d="M260 413 l-79 0 l0 -106 l-105 0 l0 106 l105 0 l0 79 l79 0 l0 292 l186 0 l0 -105 l-79 0 l0 -265 l265 0 l0 184 l-185 0 l0 80 l371 0 l0 -186 l-79 0 l0 -79 l185 0 l0 -106 l-186 0 l0 -371 l-184 0 l0 105 l78 0 l0 265 l-265 0 l0 -370 l-107 0 l0 477 Z" /><glyph glyph-name="" unicode="&#x4ed5;" d="M261 400 l-80 0 l0 -78 l-105 0 l0 78 l105 0 l0 106 l80 0 l0 265 l185 0 l0 -79 l-78 0 l0 -186 l265 0 l0 265 l106 0 l0 -265 l184 0 l0 -106 l-184 0 l0 -265 l184 0 l0 -106 l-476 0 l0 106 l185 0 l0 265 l-265 0 l0 -450 l-106 0 l0 450 Z" /><glyph glyph-name="" unicode="&#x4ed6;" d="M235 400 l-106 0 l0 79 l106 0 l0 292 l80 0 l0 -370 l106 0 l0 184 l79 0 l0 -105 l105 0 l0 291 l81 0 l0 -185 l185 0 l0 -371 l-185 0 l0 -79 l-81 0 l0 263 l-105 0 l0 -370 l292 0 l0 105 l79 0 l0 -184 l-450 0 l0 344 l-106 0 l0 -344 l-80 0 l0 450 ZM686 478 l0 -183 l106 0 l0 183 l-106 0 Z" /><glyph glyph-name="" unicode="&#x4ed7;" d="M234 414 l-105 0 l0 185 l105 0 l0 186 l185 0 l0 -106 l-105 0 l0 -80 l292 0 l0 186 l79 0 l0 -186 l186 0 l0 -106 l-186 0 l0 -373 l-79 0 l0 -79 l-187 0 l0 -105 l-185 0 l0 478 ZM792 41 l79 0 l0 -105 l-79 0 l0 105 ZM314 492 l0 -450 l105 0 l0 78 l81 0 l0 187 l105 0 l0 185 l-105 0 l0 -184 l-81 0 l0 184 l-105 0 ZM686 120 l105 0 l0 -78 l-105 0 l0 78 Z" /><glyph glyph-name="" unicode="&#x4ed8;" d="M274 400 l-105 0 l0 -105 l-80 0 l0 105 l80 0 l0 79 l105 0 l0 186 l80 0 l0 106 l105 0 l0 -106 l-105 0 l0 -78 l370 0 l0 184 l81 0 l0 -185 l106 0 l0 -107 l-106 0 l0 -529 l-186 0 l0 79 l105 0 l0 450 l-370 0 l0 -529 l-80 0 l0 450 ZM540 294 l78 0 l0 -79 l-78 0 l0 79 ZM460 400 l79 0 l0 -105 l-79 0 l0 105 Z" /><glyph glyph-name="" unicode="&#x4ed9;" d="M208 426 l-79 0 l0 80 l79 0 l0 265 l107 0 l0 -185 l78 0 l0 -451 l-78 0 l0 -80 l79 0 l0 80 l186 0 l0 636 l106 0 l0 -636 l80 0 l0 450 l105 0 l0 -636 l-105 0 l0 105 l-372 0 l0 -105 l-186 0 l0 477 Z" /><glyph glyph-name="" unicode="&#x4edd;" d="M129 28 l291 0 l0 187 l-105 0 l0 105 l369 0 l0 -105 l-184 0 l0 -187 l371 0 l0 -78 l-742 0 l0 78 ZM129 505 l185 0 l0 81 l107 0 l0 105 l79 0 l0 80 l78 0 l0 -185 l-157 0 l0 -81 l-107 0 l0 -104 l-185 0 l0 104 ZM685 505 l186 0 l0 -104 l-186 0 l0 104 ZM580 585 l104 0 l0 -79 l-104 0 l0 79 Z" /><glyph glyph-name="" unicode="&#x4ede;" d="M235 400 l-106 0 l0 105 l106 0 l0 266 l79 0 l0 -450 l106 0 l0 184 l80 0 l0 -104 l105 0 l0 185 l-185 0 l0 105 l451 0 l0 -663 l-80 0 l0 -78 l-106 0 l0 78 l105 0 l0 557 l-106 0 l0 -185 l-79 0 l0 -265 l-105 0 l0 -107 l-80 0 l0 -78 l-185 0 l0 450 ZM315 215 l0 -186 l105 0 l0 106 l79 0 l0 185 l-79 0 l0 -105 l-105 0 Z" /><glyph glyph-name="" unicode="&#x4edf;" d="M221 399 l-105 0 l0 -105 l-80 0 l0 106 l80 0 l0 80 l105 0 l0 291 l186 0 l0 -106 l-106 0 l0 -265 l292 0 l0 186 l-186 0 l0 79 l371 0 l0 106 l80 0 l0 -106 l-80 0 l0 -79 l-105 0 l0 -186 l291 0 l0 -106 l-291 0 l0 -345 l-80 0 l0 344 l-292 0 l0 -344 l-80 0 l0 450 Z" /><glyph glyph-name="" unicode="&#x4ee1;" d="M261 399 l-79 0 l0 -77 l-106 0 l0 78 l106 0 l0 106 l79 0 l0 265 l106 0 l0 -265 l79 0 l0 80 l108 0 l0 185 l79 0 l0 -79 l291 0 l0 -106 l-370 0 l0 -80 l-108 0 l0 -106 l-79 0 l0 -450 l-106 0 l0 449 ZM554 28 l264 0 l0 106 l106 0 l0 -106 l-106 0 l0 -78 l-264 0 l0 78 ZM447 135 l107 0 l0 80 l78 0 l0 106 l-185 0 l0 78 l370 0 l0 -78 l-79 0 l0 -106 l-105 0 l0 -80 l-79 0 l0 -106 l-107 0 l0 106 Z" /><glyph glyph-name="" unicode="&#x4ee3;" d="M260 400 l-79 0 l0 -78 l-105 0 l0 78 l105 0 l0 106 l79 0 l0 265 l186 0 l0 -79 l-79 0 l0 -186 l186 0 l0 265 l79 0 l0 -265 l186 0 l0 78 l105 0 l0 -78 l-105 0 l0 -106 l-186 0 l0 -185 l-79 0 l0 185 l-186 0 l0 -450 l-107 0 l0 450 ZM818 29 l-80 0 l0 105 l185 0 l0 -184 l-105 0 l0 79 ZM632 214 l105 0 l0 -78 l-105 0 l0 78 ZM738 691 l79 0 l0 -105 l-79 0 l0 105 Z" /><glyph glyph-name="" unicode="&#x4ee4;" d="M500 33 l-191 0 l0 80 l272 0 l0 110 l-272 0 l0 82 l462 0 l0 -82 l-81 0 l0 -110 l-108 0 l0 -80 l108 0 l0 -109 l-190 0 l0 109 ZM118 496 l81 0 l0 109 l191 0 l0 191 l110 0 l0 -109 l81 0 l0 -82 l-81 0 l0 -109 l-301 0 l0 -81 l-81 0 l0 81 ZM501 496 l81 0 l0 109 l189 0 l0 -109 l-189 0 l0 -81 l-81 0 l0 81 ZM772 495 l110 0 l0 -80 l-110 0 l0 80 Z" /><glyph glyph-name="" unicode="&#x4ee5;" d="M315 28 l185 0 l0 107 l106 0 l0 79 l80 0 l0 557 l106 0 l0 -636 l-186 0 l0 -107 l-106 0 l0 -79 l-185 0 l0 79 ZM129 691 l105 0 l0 -476 l81 0 l0 104 l105 0 l0 -105 l-105 0 l0 -79 l-81 0 l0 -106 l-105 0 l0 662 ZM793 134 l78 0 l0 -105 l-78 0 l0 105 ZM501 506 l104 0 l0 -105 l-104 0 l0 105 ZM421 585 l78 0 l0 -78 l-78 0 l0 78 Z" /><glyph glyph-name="" unicode="&#x4ee8;" d="M261 399 l-79 0 l0 -77 l-106 0 l0 78 l106 0 l0 106 l79 0 l0 265 l185 0 l0 -79 l-79 0 l0 -557 l557 0 l0 -107 l-557 0 l0 -78 l-106 0 l0 449 ZM447 399 l477 0 l0 -77 l-477 0 l0 77 ZM447 691 l477 0 l0 -104 l-477 0 l0 104 Z" /><glyph glyph-name="" unicode="&#x4eea;" d="M235 400 l-106 0 l0 106 l106 0 l0 265 l80 0 l0 -742 l106 0 l0 106 l79 0 l0 185 l107 0 l0 80 l79 0 l0 106 l-78 0 l0 80 l78 0 l0 105 l185 0 l0 -105 l-79 0 l0 -186 l-106 0 l0 -265 l-186 0 l0 -107 l-79 0 l0 -79 l-186 0 l0 451 ZM687 134 l184 0 l0 -105 l-184 0 l0 105 ZM421 586 l79 0 l0 185 l106 0 l0 -185 l-106 0 l0 -265 l-79 0 l0 265 Z" /><glyph glyph-name="" unicode="&#x4eeb;" d="M261 399 l-79 0 l0 -77 l-106 0 l0 78 l106 0 l0 106 l79 0 l0 186 l106 0 l0 79 l79 0 l0 -79 l-79 0 l0 -291 l79 0 l0 105 l108 0 l0 80 l79 0 l0 185 l105 0 l0 -265 l-184 0 l0 -106 l-108 0 l0 -79 l-79 0 l0 -292 l79 0 l0 106 l108 0 l0 186 l79 0 l0 79 l105 0 l0 105 l79 0 l0 -105 l-79 0 l0 -79 l-105 0 l0 -186 l-79 0 l0 -107 l-108 0 l0 -78 l-185 0 l0 449 ZM554 28 l79 0 l0 107 l105 0 l0 80 l80 0 l0 -80 l106 0 l0 -185 l-106 0 l0 78 l-185 0 l0 -78 l-79 0 l0 78 Z" /><glyph glyph-name="" unicode="&#x4eec;" d="M228 401 l-110 0 l0 191 l110 0 l0 190 l81 0 l0 -844 l-81 0 l0 463 ZM419 592 l81 0 l0 109 l382 0 l0 -763 l-190 0 l0 80 l108 0 l0 573 l-300 0 l0 -653 l-81 0 l0 654 Z" /><glyph glyph-name="" unicode="&#x4ef0;" d="M181 320 l-105 0 l0 80 l105 0 l0 185 l79 0 l0 186 l107 0 l0 -80 l557 0 l0 -556 l-105 0 l0 -107 l-81 0 l0 -79 l-106 0 l0 264 l-79 0 l0 -78 l-106 0 l0 -107 l-80 0 l0 107 l80 0 l0 79 l106 0 l0 106 l79 0 l0 264 l-185 0 l0 -370 l-80 0 l0 370 l-107 0 l0 -635 l-79 0 l0 371 ZM739 584 l0 -449 l79 0 l0 449 l-79 0 Z" /></font>
</defs>
</svg>
